<mxfile host="app.diagrams.net" agent="Mozilla/5.0 (Macintosh; Intel Mac OS X 10_15_7) AppleWebKit/537.36 (KHTML, like Gecko) Chrome/132.0.0.0 Safari/537.36" version="26.0.10" pages="3">
  <diagram name="[0] clab limits" id="tJziRCqHFudNewLzHaw2">
    <mxGraphModel dx="716" dy="334" grid="0" gridSize="5" guides="1" tooltips="1" connect="1" arrows="1" fold="1" page="1" pageScale="1" pageWidth="827" pageHeight="1169" background="#4d5766" math="0" shadow="0">
      <root>
        <mxCell id="qbExKh2GQzYHgT6TWYTY-0" />
        <mxCell id="qbExKh2GQzYHgT6TWYTY-1" parent="qbExKh2GQzYHgT6TWYTY-0" />
        <mxCell id="hM18RylwCYSOnlRyK38Z-0" value="" style="verticalLabelPosition=bottom;verticalAlign=top;html=1;shape=mxgraph.basic.rect;fillColor2=none;strokeWidth=1;size=3.87;indent=0;topLeftStyle=rounded;topRightStyle=rounded;strokeColor=#98A2AE;rotation=-180;fillColor=#edf3f5;" parent="qbExKh2GQzYHgT6TWYTY-1" vertex="1">
          <mxGeometry x="352" y="170" width="199" height="267" as="geometry" />
        </mxCell>
        <mxCell id="hM18RylwCYSOnlRyK38Z-1" value="&lt;b&gt;APIs&lt;/b&gt;" style="verticalLabelPosition=middle;verticalAlign=middle;html=1;shape=mxgraph.basic.rect;fillColor2=none;strokeWidth=1;size=4.22;indent=29.33;topLeftStyle=rounded;topRightStyle=rounded;strokeColor=#98a2ae;fillColor=#BEC8D2;labelPosition=center;align=center;fontFamily=Google Sans;fontSource=https%3A%2F%2Ffonts.googleapis.com%2Fcss%3Ffamily%3DGoogle%2BSans;fontColor=#FFFFFF;" parent="qbExKh2GQzYHgT6TWYTY-1" vertex="1">
          <mxGeometry x="352" y="151" width="199" height="19" as="geometry" />
        </mxCell>
        <mxCell id="hM18RylwCYSOnlRyK38Z-12" value="" style="rounded=1;whiteSpace=wrap;html=1;" parent="qbExKh2GQzYHgT6TWYTY-1" vertex="1">
          <mxGeometry x="401" y="366" width="39" height="43" as="geometry" />
        </mxCell>
        <mxCell id="hM18RylwCYSOnlRyK38Z-13" value="" style="group;aspect=fixed;" parent="qbExKh2GQzYHgT6TWYTY-1" vertex="1" connectable="0">
          <mxGeometry x="406" y="370" width="29" height="29" as="geometry" />
        </mxCell>
        <mxCell id="hM18RylwCYSOnlRyK38Z-14" value="" style="group" parent="hM18RylwCYSOnlRyK38Z-13" vertex="1" connectable="0">
          <mxGeometry width="29" height="29" as="geometry" />
        </mxCell>
        <mxCell id="hM18RylwCYSOnlRyK38Z-15" value="" style="whiteSpace=wrap;html=1;aspect=fixed;fillColor=#001135;strokeColor=none;connectable=1;allowArrows=1;fontFamily=Manrope;fontSource=https%3A%2F%2Ffonts.googleapis.com%2Fcss%3Ffamily%3DManrope;" parent="hM18RylwCYSOnlRyK38Z-14" vertex="1">
          <mxGeometry width="29" height="29" as="geometry" />
        </mxCell>
        <mxCell id="hM18RylwCYSOnlRyK38Z-16" value="" style="endArrow=open;html=1;edgeStyle=orthogonalEdgeStyle;rounded=0;endFill=0;startSize=6;endSize=2;strokeColor=#FFFFFF;fontFamily=Manrope;fontSource=https%3A%2F%2Ffonts.googleapis.com%2Fcss%3Ffamily%3DManrope;" parent="hM18RylwCYSOnlRyK38Z-14" edge="1">
          <mxGeometry width="48.33333333333334" height="48.33333333333334" as="geometry">
            <mxPoint x="2.9" y="11.6" as="sourcePoint" />
            <mxPoint x="10.633333333333335" y="2.9" as="targetPoint" />
            <Array as="points">
              <mxPoint x="10.633333333333335" y="11.6" />
            </Array>
          </mxGeometry>
        </mxCell>
        <mxCell id="hM18RylwCYSOnlRyK38Z-17" value="" style="endArrow=open;html=1;edgeStyle=orthogonalEdgeStyle;rounded=0;endFill=0;startSize=6;endSize=2;strokeColor=#FFFFFF;fontFamily=Manrope;fontSource=https%3A%2F%2Ffonts.googleapis.com%2Fcss%3Ffamily%3DManrope;" parent="hM18RylwCYSOnlRyK38Z-14" edge="1">
          <mxGeometry width="48.33333333333334" height="48.33333333333334" as="geometry">
            <mxPoint x="10.633333333333335" y="26.1" as="sourcePoint" />
            <mxPoint x="2.9" y="18.366666666666667" as="targetPoint" />
            <Array as="points">
              <mxPoint x="10.633333333333335" y="18.366666666666667" />
            </Array>
          </mxGeometry>
        </mxCell>
        <mxCell id="hM18RylwCYSOnlRyK38Z-18" value="" style="endArrow=open;html=1;edgeStyle=orthogonalEdgeStyle;rounded=0;endFill=0;startSize=6;endSize=2;strokeColor=#FFFFFF;fontFamily=Manrope;fontSource=https%3A%2F%2Ffonts.googleapis.com%2Fcss%3Ffamily%3DManrope;" parent="hM18RylwCYSOnlRyK38Z-14" edge="1">
          <mxGeometry width="48.33333333333334" height="48.33333333333334" as="geometry">
            <mxPoint x="17.4" y="2.9" as="sourcePoint" />
            <mxPoint x="26.1" y="11.6" as="targetPoint" />
            <Array as="points">
              <mxPoint x="17.4" y="11.6" />
            </Array>
          </mxGeometry>
        </mxCell>
        <mxCell id="hM18RylwCYSOnlRyK38Z-19" value="" style="endArrow=open;html=1;edgeStyle=orthogonalEdgeStyle;rounded=0;endFill=0;startSize=6;endSize=2;strokeColor=#FFFFFF;fontFamily=Manrope;fontSource=https%3A%2F%2Ffonts.googleapis.com%2Fcss%3Ffamily%3DManrope;" parent="hM18RylwCYSOnlRyK38Z-14" edge="1">
          <mxGeometry width="48.33333333333334" height="48.33333333333334" as="geometry">
            <mxPoint x="26.1" y="18.366666666666667" as="sourcePoint" />
            <mxPoint x="17.4" y="26.1" as="targetPoint" />
            <Array as="points">
              <mxPoint x="17.4" y="18.366666666666667" />
            </Array>
          </mxGeometry>
        </mxCell>
        <mxCell id="hM18RylwCYSOnlRyK38Z-21" value="" style="rounded=1;whiteSpace=wrap;html=1;" parent="qbExKh2GQzYHgT6TWYTY-1" vertex="1">
          <mxGeometry x="457" y="365" width="39" height="44" as="geometry" />
        </mxCell>
        <mxCell id="hM18RylwCYSOnlRyK38Z-22" value="" style="group;aspect=fixed;" parent="qbExKh2GQzYHgT6TWYTY-1" vertex="1" connectable="0">
          <mxGeometry x="462" y="369" width="29" height="29" as="geometry" />
        </mxCell>
        <mxCell id="hM18RylwCYSOnlRyK38Z-23" value="" style="group" parent="hM18RylwCYSOnlRyK38Z-22" vertex="1" connectable="0">
          <mxGeometry width="29" height="29" as="geometry" />
        </mxCell>
        <mxCell id="hM18RylwCYSOnlRyK38Z-24" value="" style="whiteSpace=wrap;html=1;aspect=fixed;fillColor=#001135;strokeColor=none;connectable=1;allowArrows=1;fontFamily=Manrope;fontSource=https%3A%2F%2Ffonts.googleapis.com%2Fcss%3Ffamily%3DManrope;" parent="hM18RylwCYSOnlRyK38Z-23" vertex="1">
          <mxGeometry width="29" height="29" as="geometry" />
        </mxCell>
        <mxCell id="hM18RylwCYSOnlRyK38Z-25" value="" style="endArrow=open;html=1;edgeStyle=orthogonalEdgeStyle;rounded=0;endFill=0;startSize=6;endSize=2;strokeColor=#FFFFFF;fontFamily=Manrope;fontSource=https%3A%2F%2Ffonts.googleapis.com%2Fcss%3Ffamily%3DManrope;" parent="hM18RylwCYSOnlRyK38Z-23" edge="1">
          <mxGeometry width="48.33333333333334" height="48.33333333333334" as="geometry">
            <mxPoint x="2.9" y="11.6" as="sourcePoint" />
            <mxPoint x="10.633333333333335" y="2.9" as="targetPoint" />
            <Array as="points">
              <mxPoint x="10.633333333333335" y="11.6" />
            </Array>
          </mxGeometry>
        </mxCell>
        <mxCell id="hM18RylwCYSOnlRyK38Z-26" value="" style="endArrow=open;html=1;edgeStyle=orthogonalEdgeStyle;rounded=0;endFill=0;startSize=6;endSize=2;strokeColor=#FFFFFF;fontFamily=Manrope;fontSource=https%3A%2F%2Ffonts.googleapis.com%2Fcss%3Ffamily%3DManrope;" parent="hM18RylwCYSOnlRyK38Z-23" edge="1">
          <mxGeometry width="48.33333333333334" height="48.33333333333334" as="geometry">
            <mxPoint x="10.633333333333335" y="26.1" as="sourcePoint" />
            <mxPoint x="2.9" y="18.366666666666667" as="targetPoint" />
            <Array as="points">
              <mxPoint x="10.633333333333335" y="18.366666666666667" />
            </Array>
          </mxGeometry>
        </mxCell>
        <mxCell id="hM18RylwCYSOnlRyK38Z-27" value="" style="endArrow=open;html=1;edgeStyle=orthogonalEdgeStyle;rounded=0;endFill=0;startSize=6;endSize=2;strokeColor=#FFFFFF;fontFamily=Manrope;fontSource=https%3A%2F%2Ffonts.googleapis.com%2Fcss%3Ffamily%3DManrope;" parent="hM18RylwCYSOnlRyK38Z-23" edge="1">
          <mxGeometry width="48.33333333333334" height="48.33333333333334" as="geometry">
            <mxPoint x="17.4" y="2.9" as="sourcePoint" />
            <mxPoint x="26.1" y="11.6" as="targetPoint" />
            <Array as="points">
              <mxPoint x="17.4" y="11.6" />
            </Array>
          </mxGeometry>
        </mxCell>
        <mxCell id="hM18RylwCYSOnlRyK38Z-28" value="" style="endArrow=open;html=1;edgeStyle=orthogonalEdgeStyle;rounded=0;endFill=0;startSize=6;endSize=2;strokeColor=#FFFFFF;fontFamily=Manrope;fontSource=https%3A%2F%2Ffonts.googleapis.com%2Fcss%3Ffamily%3DManrope;" parent="hM18RylwCYSOnlRyK38Z-23" edge="1">
          <mxGeometry width="48.33333333333334" height="48.33333333333334" as="geometry">
            <mxPoint x="26.1" y="18.366666666666667" as="sourcePoint" />
            <mxPoint x="17.4" y="26.1" as="targetPoint" />
            <Array as="points">
              <mxPoint x="17.4" y="18.366666666666667" />
            </Array>
          </mxGeometry>
        </mxCell>
        <mxCell id="hM18RylwCYSOnlRyK38Z-31" value="" style="rounded=0;orthogonalLoop=1;jettySize=auto;html=1;fontFamily=Manrope;fontSize=12;fontColor=#FFFFFF;endArrow=oval;endFill=1;startArrow=oval;startFill=1;strokeColor=#98A2AE;entryX=1;entryY=0.5;entryDx=0;entryDy=0;exitX=0;exitY=0.5;exitDx=0;exitDy=0;endSize=3;startSize=3;" parent="qbExKh2GQzYHgT6TWYTY-1" source="hM18RylwCYSOnlRyK38Z-21" target="hM18RylwCYSOnlRyK38Z-12" edge="1">
          <mxGeometry relative="1" as="geometry">
            <mxPoint x="444.21000000000004" y="414.37" as="sourcePoint" />
            <mxPoint x="425.63" y="411.1099999999999" as="targetPoint" />
          </mxGeometry>
        </mxCell>
        <mxCell id="1FbAa0HUl8JFI7gKUBUg-12" value="" style="group;aspect=fixed;" parent="qbExKh2GQzYHgT6TWYTY-1" vertex="1" connectable="0">
          <mxGeometry x="430.52" y="279" width="40" height="40" as="geometry" />
        </mxCell>
        <mxCell id="1FbAa0HUl8JFI7gKUBUg-13" value="" style="whiteSpace=wrap;html=1;aspect=fixed;fillColor=#001135;strokeColor=none;connectable=1;allowArrows=1;" parent="1FbAa0HUl8JFI7gKUBUg-12" vertex="1">
          <mxGeometry width="40" height="40" as="geometry" />
        </mxCell>
        <mxCell id="1FbAa0HUl8JFI7gKUBUg-14" value="" style="shape=image;verticalLabelPosition=bottom;labelBackgroundColor=default;verticalAlign=top;aspect=fixed;imageAspect=0;image=data:image/svg+xml,PHN2ZyB4bWxuczp4bGluaz0iaHR0cDovL3d3dy53My5vcmcvMTk5OS94bGluayIgeG1sbnM9Imh0dHA6Ly93d3cudzMub3JnLzIwMDAvc3ZnIiBoZWlnaHQ9Ijc3NS40NSIgd2lkdGg9Ijc4Mi4wMyIgdmlld0JveD0iLTE3My4yNjY3IC0zMDkuNjY0IDc4Mi4wMjk4IDc3NS40NTAzIj4mI3hhOyAgPGRlZnM+JiN4YTsgICAgPGxpbmVhckdyYWRpZW50IGdyYWRpZW50VHJhbnNmb3JtPSJtYXRyaXgoMSwgMCwgMCwgMSwgLTE3My4yNjc2NywgLTMwOS42NjQzOTgpIiBncmFkaWVudFVuaXRzPSJ1c2VyU3BhY2VPblVzZSIgeTI9IjY0NS41NiIgeDI9IjQ5NC42OCIgeTE9IjY0NS41NiIgeDE9IjQ1My44OCIgaWQ9ImxpbmVhci1ncmFkaWVudCI+JiN4YTsgICAgICA8c3RvcCBzdG9wLWNvbG9yPSIjMjUyMzY0IiBvZmZzZXQ9IjAiLz4mI3hhOyAgICAgIDxzdG9wIHN0b3AtY29sb3I9IiMyYTIyNjQiIG9mZnNldD0iMC4xMSIvPiYjeGE7ICAgICAgPHN0b3Agc3RvcC1jb2xvcj0iIzM5MWY2NCIgb2Zmc2V0PSIwLjI1Ii8+JiN4YTsgICAgICA8c3RvcCBzdG9wLWNvbG9yPSIjNTExYjY1IiBvZmZzZXQ9IjAuNCIvPiYjeGE7ICAgICAgPHN0b3Agc3RvcC1jb2xvcj0iIzc0MTY2NSIgb2Zmc2V0PSIwLjU1Ii8+JiN4YTsgICAgICA8c3RvcCBzdG9wLWNvbG9yPSIjYTAwZjY2IiBvZmZzZXQ9IjAuNzIiLz4mI3hhOyAgICAgIDxzdG9wIHN0b3AtY29sb3I9IiNkNTA2NjgiIG9mZnNldD0iMC44OCIvPiYjeGE7ICAgICAgPHN0b3Agc3RvcC1jb2xvcj0iI2ZmMDA2OSIgb2Zmc2V0PSIxIi8+JiN4YTsgICAgPC9saW5lYXJHcmFkaWVudD4mI3hhOyAgICA8bGluZWFyR3JhZGllbnQgZ3JhZGllbnRUcmFuc2Zvcm09Im1hdHJpeCgxLCAwLCAwLCAxLCAtMTczLjI2NzY3LCAtMzA5LjY2NDM5OCkiIGdyYWRpZW50VW5pdHM9InVzZXJTcGFjZU9uVXNlIiB5Mj0iNzA5Ljk1IiB4Mj0iNDU3LjU4IiB5MT0iNzA5Ljk1IiB4MT0iMzcwLjE4IiBpZD0ibGluZWFyLWdyYWRpZW50LTIiPiYjeGE7ICAgICAgPHN0b3Agc3RvcC1jb2xvcj0iIzc0MjI2ZSIgb2Zmc2V0PSIwIi8+JiN4YTsgICAgICA8c3RvcCBzdG9wLWNvbG9yPSIjNzMyMjZkIiBvZmZzZXQ9IjAiLz4mI3hhOyAgICAgIDxzdG9wIHN0b3AtY29sb3I9IiM1MTIyNjkiIG9mZnNldD0iMC4yOCIvPiYjeGE7ICAgICAgPHN0b3Agc3RvcC1jb2xvcj0iIzM5MjI2NiIgb2Zmc2V0PSIwLjU1Ii8+JiN4YTsgICAgICA8c3RvcCBzdG9wLWNvbG9yPSIjMmEyMjY0IiBvZmZzZXQ9IjAuOCIvPiYjeGE7ICAgICAgPHN0b3Agc3RvcC1jb2xvcj0iIzI1MjM2NCIgb2Zmc2V0PSIxIi8+JiN4YTsgICAgPC9saW5lYXJHcmFkaWVudD4mI3hhOyAgICA8bGluZWFyR3JhZGllbnQgZ3JhZGllbnRUcmFuc2Zvcm09Im1hdHJpeCgxLCAwLCAwLCAxLCAtMTczLjI2NzY3LCAtMzA5LjY2NDM5OCkiIGdyYWRpZW50VW5pdHM9InVzZXJTcGFjZU9uVXNlIiB5Mj0iNDI5LjciIHgyPSI4OC41MyIgeTE9IjI3Ny4zMSIgeDE9Ijg4LjUzIiBpZD0ibGluZWFyLWdyYWRpZW50LTMiPiYjeGE7ICAgICAgPHN0b3Agc3RvcC1jb2xvcj0iI2ZmYzkwZiIgb2Zmc2V0PSIwIi8+JiN4YTsgICAgICA8c3RvcCBzdG9wLWNvbG9yPSIjYjcwMDVmIiBvZmZzZXQ9IjEiLz4mI3hhOyAgICA8L2xpbmVhckdyYWRpZW50PiYjeGE7ICAgIDxsaW5lYXJHcmFkaWVudCBncmFkaWVudFRyYW5zZm9ybT0ibWF0cml4KDEsIDAsIDAsIDEsIC0xNzMuMjY3NjcsIC0zMDkuNjY0Mzk4KSIgZ3JhZGllbnRVbml0cz0idXNlclNwYWNlT25Vc2UiIHkyPSIxMDQuNTUiIHgyPSIxODQiIHkxPSIxMDQuNTUiIHgxPSIxMjkuOTkiIGlkPSJsaW5lYXItZ3JhZGllbnQtNCI+JiN4YTsgICAgICA8c3RvcCBzdG9wLWNvbG9yPSIjZjlmZjAwIiBvZmZzZXQ9IjAiLz4mI3hhOyAgICAgIDxzdG9wIHN0b3AtY29sb3I9IiNmZjU3MDAiIG9mZnNldD0iMSIvPiYjeGE7ICAgIDwvbGluZWFyR3JhZGllbnQ+JiN4YTsgICAgPGxpbmVhckdyYWRpZW50IGdyYWRpZW50VHJhbnNmb3JtPSJtYXRyaXgoMSwgMCwgMCwgMSwgLTE3My4yNjc2NywgLTMwOS42NjQzOTgpIiBncmFkaWVudFVuaXRzPSJ1c2VyU3BhY2VPblVzZSIgeTI9IjQyOS43IiB4Mj0iMTI5LjYzIiB5MT0iMTg0Ljc5IiB4MT0iMTI5LjYzIiBpZD0ibGluZWFyLWdyYWRpZW50LTUiPiYjeGE7ICAgICAgPHN0b3Agc3RvcC1jb2xvcj0iI2M3MDAzMyIgb2Zmc2V0PSIwIi8+JiN4YTsgICAgICA8c3RvcCBzdG9wLWNvbG9yPSIjODIwMDQ4IiBvZmZzZXQ9IjAuMzQiLz4mI3hhOyAgICAgIDxzdG9wIHN0b3AtY29sb3I9IiMxNDAwNGIiIG9mZnNldD0iMSIvPiYjeGE7ICAgIDwvbGluZWFyR3JhZGllbnQ+JiN4YTsgICAgPGxpbmVhckdyYWRpZW50IHhsaW5rOmhyZWY9IiNsaW5lYXItZ3JhZGllbnQtNCIgZ3JhZGllbnRUcmFuc2Zvcm09Im1hdHJpeCgxLCAwLCAwLCAxLCAtMzQ2LjUzNTMzOSwgLTYxOS4zMjg3OTYpIiB5Mj0iNTEuMDgiIHgyPSI0NDYuMTYiIHkxPSI1MS4wOCIgeDE9IjI1Mi43MyIgaWQ9ImxpbmVhci1ncmFkaWVudC02Ii8+JiN4YTsgICAgPGxpbmVhckdyYWRpZW50IGdyYWRpZW50VHJhbnNmb3JtPSJtYXRyaXgoMSwgMCwgMCwgMSwgLTE3My4yNjc2NywgLTMwOS42NjQzOTgpIiBncmFkaWVudFVuaXRzPSJ1c2VyU3BhY2VPblVzZSIgeTI9IjEzNy4wMiIgeDI9IjMwMi4xOCIgeTE9IjEzNy4wMiIgeDE9IjIxOS4xNiIgaWQ9ImxpbmVhci1ncmFkaWVudC03Ij4mI3hhOyAgICAgIDxzdG9wIHN0b3AtY29sb3I9IiNiNzAwNWYiIG9mZnNldD0iMCIvPiYjeGE7ICAgICAgPHN0b3Agc3RvcC1jb2xvcj0iI2ZmYzkwZiIgb2Zmc2V0PSIxIi8+JiN4YTsgICAgPC9saW5lYXJHcmFkaWVudD4mI3hhOyAgICA8bGluZWFyR3JhZGllbnQgZ3JhZGllbnRUcmFuc2Zvcm09Im1hdHJpeCgxLCAwLCAwLCAxLCAtMTczLjI2NzY3LCAtMzA5LjY2NDM5OCkiIGdyYWRpZW50VW5pdHM9InVzZXJTcGFjZU9uVXNlIiB5Mj0iNDI5LjciIHgyPSIxNDIuODYiIHkxPSIyODUuMjgiIHgxPSIxNDIuODYiIGlkPSJsaW5lYXItZ3JhZGllbnQtOCI+JiN4YTsgICAgICA8c3RvcCBzdG9wLWNvbG9yPSIjNzQyMjZlIiBvZmZzZXQ9IjAiLz4mI3hhOyAgICAgIDxzdG9wIHN0b3AtY29sb3I9IiMyNTIzNjQiIG9mZnNldD0iMSIvPiYjeGE7ICAgIDwvbGluZWFyR3JhZGllbnQ+JiN4YTsgICAgPGxpbmVhckdyYWRpZW50IGdyYWRpZW50VHJhbnNmb3JtPSJtYXRyaXgoMSwgMCwgMCwgMSwgLTE3My4yNjc2NywgLTMwOS42NjQzOTgpIiBncmFkaWVudFVuaXRzPSJ1c2VyU3BhY2VPblVzZSIgeTI9IjE3OS4xNCIgeDI9IjM5Mi44NCIgeTE9IjE3OS4xNCIgeDE9IjE3Mi44OSIgaWQ9ImxpbmVhci1ncmFkaWVudC05Ij4mI3hhOyAgICAgIDxzdG9wIHN0b3AtY29sb3I9IiMyNzAwNGIiIG9mZnNldD0iMCIvPiYjeGE7ICAgICAgPHN0b3Agc3RvcC1jb2xvcj0iI2ZmMDAyYSIgb2Zmc2V0PSIxIi8+JiN4YTsgICAgPC9saW5lYXJHcmFkaWVudD4mI3hhOyAgICA8bGluZWFyR3JhZGllbnQgeGxpbms6aHJlZj0iI2xpbmVhci1ncmFkaWVudC03IiBncmFkaWVudFRyYW5zZm9ybT0ibWF0cml4KDEsIDAsIDAsIDEsIC0zNDYuNTM1MzM5LCAtNjE5LjMyODc5NikiIHkyPSIzMzcuNTkiIHgyPSIxODYuNDMiIHkxPSIzMzcuNTkiIHgxPSIxNDguMDgiIGlkPSJsaW5lYXItZ3JhZGllbnQtMTAiLz4mI3hhOyAgICA8bGluZWFyR3JhZGllbnQgeGxpbms6aHJlZj0iI2xpbmVhci1ncmFkaWVudC03IiBncmFkaWVudFRyYW5zZm9ybT0ibWF0cml4KDEsIDAsIDAsIDEsIC0zNDYuNTM1MzM5LCAtNjE5LjMyODc5NikiIHkyPSIyMjguNzIiIHgyPSIzMjcuMDYiIHkxPSIyMjguNzIiIHgxPSIxNzkuMDciIGlkPSJsaW5lYXItZ3JhZGllbnQtMTEiLz4mI3hhOyAgICA8bGluZWFyR3JhZGllbnQgeGxpbms6aHJlZj0iI2xpbmVhci1ncmFkaWVudC05IiBncmFkaWVudFRyYW5zZm9ybT0ibWF0cml4KDEsIDAsIDAsIDEsIC0zNDYuNTM1MzM5LCAtNjE5LjMyODc5NikiIHkyPSIxNDYuOCIgeDI9IjM4MS40MSIgeTE9IjE0Ni44IiB4MT0iMzA5LjExIiBpZD0ibGluZWFyLWdyYWRpZW50LTEyIi8+JiN4YTsgICAgPGxpbmVhckdyYWRpZW50IHhsaW5rOmhyZWY9IiNsaW5lYXItZ3JhZGllbnQtOSIgZ3JhZGllbnRUcmFuc2Zvcm09Im1hdHJpeCgxLCAwLCAwLCAxLCAtMzQ2LjUzNTMzOSwgLTYxOS4zMjg3OTYpIiB5Mj0iMTg2LjQ5IiB4Mj0iMzUzLjkyIiB5MT0iMTg2LjQ5IiB4MT0iMjg0LjMiIGlkPSJsaW5lYXItZ3JhZGllbnQtMTMiLz4mI3hhOyAgICA8bGluZWFyR3JhZGllbnQgeGxpbms6aHJlZj0iI2xpbmVhci1ncmFkaWVudC03IiBncmFkaWVudFRyYW5zZm9ybT0ibWF0cml4KDEsIDAsIDAsIDEsIC0zNDYuNTM1MzM5LCAtNjE5LjMyODc5NikiIHkyPSIyODYuMTciIHgyPSIyNzEuNiIgeTE9IjI4Ni4xNyIgeDE9IjE4Mi4yIiBpZD0ibGluZWFyLWdyYWRpZW50LTE0Ii8+JiN4YTsgICAgPGxpbmVhckdyYWRpZW50IGdyYWRpZW50VHJhbnNmb3JtPSJtYXRyaXgoMSwgMCwgMCwgMSwgLTE3My4yNjc2NywgLTMwOS42NjQzOTgpIiBncmFkaWVudFVuaXRzPSJ1c2VyU3BhY2VPblVzZSIgeTI9IjE4Ni41MiIgeDI9IjQyOC4zNCIgeTE9IjE4Ni41MiIgeDE9IjI4OC45NCIgaWQ9ImxpbmVhci1ncmFkaWVudC0xNSI+JiN4YTsgICAgICA8c3RvcCBzdG9wLWNvbG9yPSIjNWMwMDRkIiBvZmZzZXQ9IjAiLz4mI3hhOyAgICAgIDxzdG9wIHN0b3AtY29sb3I9IiM0OTIxNjMiIG9mZnNldD0iMSIvPiYjeGE7ICAgIDwvbGluZWFyR3JhZGllbnQ+JiN4YTsgICAgPGxpbmVhckdyYWRpZW50IHhsaW5rOmhyZWY9IiNsaW5lYXItZ3JhZGllbnQtNCIgZ3JhZGllbnRUcmFuc2Zvcm09Im1hdHJpeCgxLCAwLCAwLCAxLCAtMzQ2LjUzNTMzOSwgLTYxOS4zMjg3OTYpIiB5Mj0iMTI0LjMxIiB4Mj0iNjY0LjY3IiB5MT0iMTI0LjMxIiB4MT0iNDY5LjA5IiBpZD0ibGluZWFyLWdyYWRpZW50LTE2Ii8+JiN4YTsgICAgPGxpbmVhckdyYWRpZW50IGdyYWRpZW50VHJhbnNmb3JtPSJtYXRyaXgoMSwgMCwgMCwgMSwgLTE3My4yNjc2NywgLTMwOS42NjQzOTgpIiBncmFkaWVudFVuaXRzPSJ1c2VyU3BhY2VPblVzZSIgeTI9IjEyNy43NSIgeDI9IjY2NC42NyIgeTE9IjEyNy43NSIgeDE9IjUyOS42NyIgaWQ9ImxpbmVhci1ncmFkaWVudC0xNyI+JiN4YTsgICAgICA8c3RvcCBzdG9wLWNvbG9yPSIjZmZjODAwIiBvZmZzZXQ9IjAiLz4mI3hhOyAgICAgIDxzdG9wIHN0b3AtY29sb3I9IiNmZjAwMmEiIG9mZnNldD0iMSIvPiYjeGE7ICAgIDwvbGluZWFyR3JhZGllbnQ+JiN4YTsgICAgPGxpbmVhckdyYWRpZW50IGdyYWRpZW50VHJhbnNmb3JtPSJtYXRyaXgoMSwgMCwgMCwgMSwgLTE3My4yNjc2NywgLTMwOS42NjQzOTgpIiBncmFkaWVudFVuaXRzPSJ1c2VyU3BhY2VPblVzZSIgeTI9IjMyMC4yNiIgeDI9IjI1MS4yMiIgeTE9IjMyMC4yNiIgeDE9IjE0OC4wOCIgaWQ9ImxpbmVhci1ncmFkaWVudC0xOCI+JiN4YTsgICAgICA8c3RvcCBzdG9wLWNvbG9yPSIjMTQwMDRiIiBvZmZzZXQ9IjAiLz4mI3hhOyAgICAgIDxzdG9wIHN0b3AtY29sb3I9IiM4MjAwNDgiIG9mZnNldD0iMC42NiIvPiYjeGE7ICAgICAgPHN0b3Agc3RvcC1jb2xvcj0iI2M3MDAzMyIgb2Zmc2V0PSIxIi8+JiN4YTsgICAgPC9saW5lYXJHcmFkaWVudD4mI3hhOyAgICA8bGluZWFyR3JhZGllbnQgZ3JhZGllbnRUcmFuc2Zvcm09Im1hdHJpeCgxLCAwLCAwLCAxLCAtMTczLjI2NzY3LCAtMzA5LjY2NDM5OCkiIGdyYWRpZW50VW5pdHM9InVzZXJTcGFjZU9uVXNlIiB5Mj0iMjM2LjA2IiB4Mj0iMzIyLjU2IiB5MT0iMjM2LjA2IiB4MT0iMjQ4LjkiIGlkPSJsaW5lYXItZ3JhZGllbnQtMTkiPiYjeGE7ICAgICAgPHN0b3Agc3RvcC1jb2xvcj0iIzc0MjI2ZSIgb2Zmc2V0PSIwIi8+JiN4YTsgICAgICA8c3RvcCBzdG9wLWNvbG9yPSIjNDkyMTYzIiBvZmZzZXQ9IjEiLz4mI3hhOyAgICA8L2xpbmVhckdyYWRpZW50PiYjeGE7ICAgIDxsaW5lYXJHcmFkaWVudCBncmFkaWVudFRyYW5zZm9ybT0ibWF0cml4KDEsIDAsIDAsIDEsIC0xNzMuMjY3NjcsIC0zMDkuNjY0Mzk4KSIgZ3JhZGllbnRVbml0cz0idXNlclNwYWNlT25Vc2UiIHkyPSIyNTEuNDciIHgyPSI0MzYuNjQiIHkxPSIyNTEuNDciIHgxPSIyMjcuMzUiIGlkPSJsaW5lYXItZ3JhZGllbnQtMjAiPiYjeGE7ICAgICAgPHN0b3Agc3RvcC1jb2xvcj0iI2ZmMDAyYSIgb2Zmc2V0PSIwIi8+JiN4YTsgICAgICA8c3RvcCBzdG9wLWNvbG9yPSIjZmZjODAwIiBvZmZzZXQ9IjEiLz4mI3hhOyAgICA8L2xpbmVhckdyYWRpZW50PiYjeGE7ICAgIDxsaW5lYXJHcmFkaWVudCB4bGluazpocmVmPSIjbGluZWFyLWdyYWRpZW50LTkiIGdyYWRpZW50VHJhbnNmb3JtPSJtYXRyaXgoMSwgMCwgMCwgMSwgLTM0Ni41MzUzMzksIC02MTkuMzI4Nzk2KSIgeTI9IjE5OC4yNiIgeDI9IjQ3Ny44MiIgeTE9IjE5OC4yNiIgeDE9IjM2OC4zNSIgaWQ9ImxpbmVhci1ncmFkaWVudC0yMSIvPiYjeGE7ICAgIDxsaW5lYXJHcmFkaWVudCB4bGluazpocmVmPSIjbGluZWFyLWdyYWRpZW50LTE1IiBncmFkaWVudFRyYW5zZm9ybT0ibWF0cml4KDEsIDAsIDAsIDEsIC0zNDYuNTM1MzM5LCAtNjE5LjMyODc5NikiIHkyPSIyNjIuMTkiIHgyPSI0ODMuNDIiIHkxPSIyNjIuMTkiIHgxPSIyNDMuNzciIGlkPSJsaW5lYXItZ3JhZGllbnQtMjIiLz4mI3hhOyAgICA8bGluZWFyR3JhZGllbnQgeGxpbms6aHJlZj0iI2xpbmVhci1ncmFkaWVudC04IiBncmFkaWVudFRyYW5zZm9ybT0ibWF0cml4KDEsIDAsIDAsIDEsIC0zNDYuNTM1MzM5LCAtNjE5LjMyODc5NikiIHkyPSIyOTIuNDIiIHgyPSI0NzEuODUiIHkxPSIyOTIuNDIiIHgxPSIyNDIuNzUiIGlkPSJsaW5lYXItZ3JhZGllbnQtMjMiLz4mI3hhOyAgICA8bGluZWFyR3JhZGllbnQgZ3JhZGllbnRUcmFuc2Zvcm09Im1hdHJpeCgxLCAwLCAwLCAxLCAtMTczLjI2NzY3LCAtMzA5LjY2NDM5OCkiIGdyYWRpZW50VW5pdHM9InVzZXJTcGFjZU9uVXNlIiB5Mj0iMzQ2LjY0IiB4Mj0iNDY3LjA0IiB5MT0iMzQ2LjY0IiB4MT0iMjg1LjczIiBpZD0ibGluZWFyLWdyYWRpZW50LTI0Ij4mI3hhOyAgICAgIDxzdG9wIHN0b3AtY29sb3I9IiNkZTAwNmIiIG9mZnNldD0iMCIvPiYjeGE7ICAgICAgPHN0b3Agc3RvcC1jb2xvcj0iI2Q1MDE2YSIgb2Zmc2V0PSIwLjAzIi8+JiN4YTsgICAgICA8c3RvcCBzdG9wLWNvbG9yPSIjYTAwYjY4IiBvZmZzZXQ9IjAuMjEiLz4mI3hhOyAgICAgIDxzdG9wIHN0b3AtY29sb3I9IiM3NDE0NjYiIG9mZnNldD0iMC4zOSIvPiYjeGE7ICAgICAgPHN0b3Agc3RvcC1jb2xvcj0iIzUxMWE2NSIgb2Zmc2V0PSIwLjU3Ii8+JiN4YTsgICAgICA8c3RvcCBzdG9wLWNvbG9yPSIjMzkxZjY0IiBvZmZzZXQ9IjAuNzMiLz4mI3hhOyAgICAgIDxzdG9wIHN0b3AtY29sb3I9IiMyYTIyNjQiIG9mZnNldD0iMC44OCIvPiYjeGE7ICAgICAgPHN0b3Agc3RvcC1jb2xvcj0iIzI1MjM2NCIgb2Zmc2V0PSIxIi8+JiN4YTsgICAgPC9saW5lYXJHcmFkaWVudD4mI3hhOyAgICA8bGluZWFyR3JhZGllbnQgeGxpbms6aHJlZj0iI2xpbmVhci1ncmFkaWVudC0yIiBncmFkaWVudFRyYW5zZm9ybT0ibWF0cml4KDEsIDAsIDAsIDEsIC0zNDYuNTM1MzM5LCAtNjE5LjMyODc5NikiIHkyPSIzMTcuNTQiIHgyPSI0ODMuNDIiIHkxPSIzMTcuNTQiIHgxPSIzMjIuNTYiIGlkPSJsaW5lYXItZ3JhZGllbnQtMjUiLz4mI3hhOyAgICA8bGluZWFyR3JhZGllbnQgZ3JhZGllbnRUcmFuc2Zvcm09Im1hdHJpeCgxLCAwLCAwLCAxLCAtMTczLjI2NzY3LCAtMzA5LjY2NDM5OCkiIGdyYWRpZW50VW5pdHM9InVzZXJTcGFjZU9uVXNlIiB5Mj0iMjk5LjcxIiB4Mj0iNDkxLjcyIiB5MT0iMjk5LjcxIiB4MT0iNDIxLjcxIiBpZD0ibGluZWFyLWdyYWRpZW50LTI2Ij4mI3hhOyAgICAgIDxzdG9wIHN0b3AtY29sb3I9IiMyNTIzNjQiIG9mZnNldD0iMCIvPiYjeGE7ICAgICAgPHN0b3Agc3RvcC1jb2xvcj0iIzc0MjI2ZSIgb2Zmc2V0PSIxIi8+JiN4YTsgICAgPC9saW5lYXJHcmFkaWVudD4mI3hhOyAgICA8bGluZWFyR3JhZGllbnQgZ3JhZGllbnRUcmFuc2Zvcm09Im1hdHJpeCgxLCAwLCAwLCAxLCAtMTczLjI2NzY3LCAtMzA5LjY2NDM5OCkiIGdyYWRpZW50VW5pdHM9InVzZXJTcGFjZU9uVXNlIiB5Mj0iMzk3LjYyIiB4Mj0iNDcwLjEzIiB5MT0iMzk3LjYyIiB4MT0iMzQwLjU2IiBpZD0ibGluZWFyLWdyYWRpZW50LTI3Ij4mI3hhOyAgICAgIDxzdG9wIHN0b3AtY29sb3I9IiMyNTIzNjQiIG9mZnNldD0iMCIvPiYjeGE7ICAgICAgPHN0b3Agc3RvcC1jb2xvcj0iIzJhMjI2NCIgb2Zmc2V0PSIwLjIiLz4mI3hhOyAgICAgIDxzdG9wIHN0b3AtY29sb3I9IiMzOTIyNjYiIG9mZnNldD0iMC40NSIvPiYjeGE7ICAgICAgPHN0b3Agc3RvcC1jb2xvcj0iIzUxMjI2OSIgb2Zmc2V0PSIwLjcyIi8+JiN4YTsgICAgICA8c3RvcCBzdG9wLWNvbG9yPSIjNzMyMjZkIiBvZmZzZXQ9IjEiLz4mI3hhOyAgICAgIDxzdG9wIHN0b3AtY29sb3I9IiM3NDIyNmUiIG9mZnNldD0iMSIvPiYjeGE7ICAgIDwvbGluZWFyR3JhZGllbnQ+JiN4YTsgICAgPGxpbmVhckdyYWRpZW50IHhsaW5rOmhyZWY9IiNsaW5lYXItZ3JhZGllbnQtMTciIGdyYWRpZW50VHJhbnNmb3JtPSJtYXRyaXgoMSwgMCwgMCwgMSwgLTM0Ni41MzUzMzksIC02MTkuMzI4Nzk2KSIgeTI9IjE4OS44NyIgeDI9IjcxMi4yNCIgeTE9IjE4OS44NyIgeDE9IjUyNC43OSIgaWQ9ImxpbmVhci1ncmFkaWVudC0yOCIvPiYjeGE7ICAgIDxsaW5lYXJHcmFkaWVudCB4bGluazpocmVmPSIjbGluZWFyLWdyYWRpZW50LTQiIGdyYWRpZW50VHJhbnNmb3JtPSJtYXRyaXgoMSwgMCwgMCwgMSwgLTM0Ni41MzUzMzksIC02MTkuMzI4Nzk2KSIgeTI9IjIyNS44NCIgeDI9Ijc1Mi41IiB5MT0iMjI1Ljg0IiB4MT0iNjExLjU2IiBpZD0ibGluZWFyLWdyYWRpZW50LTI5Ii8+JiN4YTsgICAgPGxpbmVhckdyYWRpZW50IHhsaW5rOmhyZWY9IiNsaW5lYXItZ3JhZGllbnQtMTciIGdyYWRpZW50VHJhbnNmb3JtPSJtYXRyaXgoMSwgMCwgMCwgMSwgLTM0Ni41MzUzMzksIC02MTkuMzI4Nzk2KSIgeTI9IjM0My40IiB4Mj0iNzgyLjAzIiB5MT0iMzQzLjQiIHgxPSI1NjAuNzEiIGlkPSJsaW5lYXItZ3JhZGllbnQtMzAiLz4mI3hhOyAgICA8bGluZWFyR3JhZGllbnQgeGxpbms6aHJlZj0iI2xpbmVhci1ncmFkaWVudC0yMCIgZ3JhZGllbnRUcmFuc2Zvcm09Im1hdHJpeCgxLCAwLCAwLCAxLCAtMzQ2LjUzNTMzOSwgLTYxOS4zMjg3OTYpIiB5Mj0iMzA1LjAyIiB4Mj0iNzc3LjQ5IiB5MT0iMzA1LjAyIiB4MT0iNjk0LjYzIiBpZD0ibGluZWFyLWdyYWRpZW50LTMxIi8+JiN4YTsgICAgPGxpbmVhckdyYWRpZW50IHhsaW5rOmhyZWY9IiNsaW5lYXItZ3JhZGllbnQtMjciIGdyYWRpZW50VHJhbnNmb3JtPSJtYXRyaXgoMSwgMCwgMCwgMSwgLTM0Ni41MzUzMzksIC02MTkuMzI4Nzk2KSIgeTI9IjI4Ny4wNSIgeDI9IjU3OS45NiIgeTE9IjI4Ny4wNSIgeDE9IjQ2NS43OCIgaWQ9ImxpbmVhci1ncmFkaWVudC0zMiIvPiYjeGE7ICAgIDxsaW5lYXJHcmFkaWVudCB4bGluazpocmVmPSIjbGluZWFyLWdyYWRpZW50LTI2IiBncmFkaWVudFRyYW5zZm9ybT0ibWF0cml4KDEsIDAsIDAsIDEsIC0zNDYuNTM1MzM5LCAtNjE5LjMyODc5NikiIHkyPSIzMjcuOTIiIHgyPSI3MDYuMzUiIHkxPSIzMjcuOTIiIHgxPSI1NjAuNzEiIGlkPSJsaW5lYXItZ3JhZGllbnQtMzMiLz4mI3hhOyAgICA8bGluZWFyR3JhZGllbnQgeGxpbms6aHJlZj0iI2xpbmVhci1ncmFkaWVudC0yNyIgZ3JhZGllbnRUcmFuc2Zvcm09Im1hdHJpeCgxLCAwLCAwLCAxLCAtMzQ2LjUzNTMzOSwgLTYxOS4zMjg3OTYpIiB5Mj0iMzU1LjM3IiB4Mj0iNDY3LjA0IiB5MT0iMzU1LjM3IiB4MT0iMzQ5LjgzIiBpZD0ibGluZWFyLWdyYWRpZW50LTM0Ii8+JiN4YTsgICAgPGxpbmVhckdyYWRpZW50IHhsaW5rOmhyZWY9IiNsaW5lYXItZ3JhZGllbnQtMjQiIGdyYWRpZW50VHJhbnNmb3JtPSJtYXRyaXgoMSwgMCwgMCwgMSwgLTM0Ni41MzUzMzksIC02MTkuMzI4Nzk2KSIgeTI9IjQxOC42MyIgeDI9IjYwNi4yNSIgeTE9IjQxOC42MyIgeDE9IjM4NC4xMSIgaWQ9ImxpbmVhci1ncmFkaWVudC0zNSIvPiYjeGE7ICAgIDxsaW5lYXJHcmFkaWVudCB4bGluazpocmVmPSIjbGluZWFyLWdyYWRpZW50LTMiIGdyYWRpZW50VHJhbnNmb3JtPSJtYXRyaXgoMSwgMCwgMCwgMSwgLTM0Ni41MzUzMzksIC02MTkuMzI4Nzk2KSIgeTI9IjM2MC4zOSIgeDI9IjU2Ny45IiB5MT0iMzYwLjM5IiB4MT0iMzg0LjExIiBpZD0ibGluZWFyLWdyYWRpZW50LTM2Ii8+JiN4YTsgICAgPGxpbmVhckdyYWRpZW50IGdyYWRpZW50VHJhbnNmb3JtPSJtYXRyaXgoMSwgMCwgMCwgMSwgLTE3My4yNjc2NywgLTMwOS42NjQzOTgpIiBncmFkaWVudFVuaXRzPSJ1c2VyU3BhY2VPblVzZSIgeTI9IjMzOC45NSIgeDI9IjUwNi43NSIgeTE9IjMzOC45NSIgeDE9IjQ3Ny4xNiIgaWQ9ImxpbmVhci1ncmFkaWVudC0zNyI+JiN4YTsgICAgICA8c3RvcCBzdG9wLWNvbG9yPSIjZmYwMDJhIiBvZmZzZXQ9IjAiLz4mI3hhOyAgICAgIDxzdG9wIHN0b3AtY29sb3I9IiM1NTIxNmUiIG9mZnNldD0iMC44MiIvPiYjeGE7ICAgIDwvbGluZWFyR3JhZGllbnQ+JiN4YTsgICAgPGxpbmVhckdyYWRpZW50IHhsaW5rOmhyZWY9IiNsaW5lYXItZ3JhZGllbnQtMyIgZ3JhZGllbnRUcmFuc2Zvcm09Im1hdHJpeCgxLCAwLCAwLCAxLCAtMzQ2LjUzNTMzOSwgLTYxOS4zMjg3OTYpIiB5Mj0iNDAwLjAzIiB4Mj0iNjExLjU0IiB5MT0iMjU3LjEzIiB4MT0iNDY4LjY1IiBpZD0ibGluZWFyLWdyYWRpZW50LTM4Ii8+JiN4YTsgICAgPGxpbmVhckdyYWRpZW50IHhsaW5rOmhyZWY9IiNsaW5lYXItZ3JhZGllbnQtMTciIGdyYWRpZW50VHJhbnNmb3JtPSJtYXRyaXgoMSwgMCwgMCwgMSwgLTM0Ni41MzUzMzksIC02MTkuMzI4Nzk2KSIgeTI9IjQ3Mi4yMiIgeDI9IjY2MC44NCIgeTE9IjQ3Mi4yMiIgeDE9IjU2OC43OCIgaWQ9ImxpbmVhci1ncmFkaWVudC0zOSIvPiYjeGE7ICAgIDxsaW5lYXJHcmFkaWVudCB4bGluazpocmVmPSIjbGluZWFyLWdyYWRpZW50IiBncmFkaWVudFRyYW5zZm9ybT0ibWF0cml4KDEsIDAsIDAsIDEsIC0zNDYuNTM1MzM5LCAtNjE5LjMyODc5NikiIHkyPSI0ODcuNzEiIHgyPSI2MDYuMjUiIHkxPSI0ODcuNzEiIHgxPSI1MzcuMjgiIGlkPSJsaW5lYXItZ3JhZGllbnQtNDAiLz4mI3hhOyAgICA8bGluZWFyR3JhZGllbnQgeGxpbms6aHJlZj0iI2xpbmVhci1ncmFkaWVudC0xNyIgZ3JhZGllbnRUcmFuc2Zvcm09Im1hdHJpeCgxLCAwLCAwLCAxLCAtMzQ2LjUzNTMzOSwgLTYxOS4zMjg3OTYpIiB5Mj0iNjg3LjcxIiB4Mj0iNTMyLjc5IiB5MT0iNTM1Ljk1IiB4MT0iNTMyLjc5IiBpZD0ibGluZWFyLWdyYWRpZW50LTQxIi8+JiN4YTsgICAgPGxpbmVhckdyYWRpZW50IGdyYWRpZW50VHJhbnNmb3JtPSJtYXRyaXgoMSwgMCwgMCwgMSwgLTE3My4yNjc2NywgLTMwOS42NjQzOTgpIiBncmFkaWVudFVuaXRzPSJ1c2VyU3BhY2VPblVzZSIgeTI9IjQ1Ni41NSIgeDI9Ijc2OC43IiB5MT0iNDU2LjU1IiB4MT0iNjk2LjA3IiBpZD0ibGluZWFyLWdyYWRpZW50LTQyIj4mI3hhOyAgICAgIDxzdG9wIHN0b3AtY29sb3I9IiNmZjAwNjkiIG9mZnNldD0iMCIvPiYjeGE7ICAgICAgPHN0b3Agc3RvcC1jb2xvcj0iI2Q1MDY2OCIgb2Zmc2V0PSIwLjEyIi8+JiN4YTsgICAgICA8c3RvcCBzdG9wLWNvbG9yPSIjYTAwZjY2IiBvZmZzZXQ9IjAuMjgiLz4mI3hhOyAgICAgIDxzdG9wIHN0b3AtY29sb3I9IiM3NDE2NjUiIG9mZnNldD0iMC40NSIvPiYjeGE7ICAgICAgPHN0b3Agc3RvcC1jb2xvcj0iIzUxMWI2NSIgb2Zmc2V0PSIwLjYiLz4mI3hhOyAgICAgIDxzdG9wIHN0b3AtY29sb3I9IiMzOTFmNjQiIG9mZnNldD0iMC43NSIvPiYjeGE7ICAgICAgPHN0b3Agc3RvcC1jb2xvcj0iIzJhMjI2NCIgb2Zmc2V0PSIwLjg5Ii8+JiN4YTsgICAgICA8c3RvcCBzdG9wLWNvbG9yPSIjMjUyMzY0IiBvZmZzZXQ9IjEiLz4mI3hhOyAgICA8L2xpbmVhckdyYWRpZW50PiYjeGE7ICAgIDxsaW5lYXJHcmFkaWVudCB4bGluazpocmVmPSIjbGluZWFyLWdyYWRpZW50LTE3IiBncmFkaWVudFRyYW5zZm9ybT0ibWF0cml4KDEsIDAsIDAsIDEsIC0zNDYuNTM1MzM5LCAtNjE5LjMyODc5NikiIHkyPSI1MTcuNDYiIHgyPSI1MTYuMDQiIHkxPSI1MTcuNDYiIHgxPSI0NzAuMTMiIGlkPSJsaW5lYXItZ3JhZGllbnQtNDMiLz4mI3hhOyAgICA8bGluZWFyR3JhZGllbnQgeGxpbms6aHJlZj0iI2xpbmVhci1ncmFkaWVudC0yIiBncmFkaWVudFRyYW5zZm9ybT0ibWF0cml4KDEsIDAsIDAsIDEsIC0zNDYuNTM1MzM5LCAtNjE5LjMyODc5NikiIHkyPSI1NTYuMDYiIHgyPSI1ODAuNyIgeTE9IjU1Ni4wNiIgeDE9IjUzMy4yOSIgaWQ9ImxpbmVhci1ncmFkaWVudC00NCIvPiYjeGE7ICAgIDxsaW5lYXJHcmFkaWVudCB4bGluazpocmVmPSIjbGluZWFyLWdyYWRpZW50LTE3IiBncmFkaWVudFRyYW5zZm9ybT0ibWF0cml4KDEsIDAsIDAsIDEsIC0zNDYuNTM1MzM5LCAtNjE5LjMyODc5NikiIHkyPSI0NzAuNTkiIHgyPSI1NjcuOSIgeTE9IjQ3MC41OSIgeDE9IjQ3MC4xMyIgaWQ9ImxpbmVhci1ncmFkaWVudC00NSIvPiYjeGE7ICAgIDxsaW5lYXJHcmFkaWVudCBncmFkaWVudFRyYW5zZm9ybT0ibWF0cml4KDEsIDAsIDAsIDEsIC0xNzMuMjY3NjcsIC0zMDkuNjY0Mzk4KSIgZ3JhZGllbnRVbml0cz0idXNlclNwYWNlT25Vc2UiIHkyPSI0MDkuMyIgeDI9IjQ5My4wOSIgeTE9IjQwOS4zIiB4MT0iNDIxLjA3IiBpZD0ibGluZWFyLWdyYWRpZW50LTQ2Ij4mI3hhOyAgICAgIDxzdG9wIHN0b3AtY29sb3I9IiM4MDAwNGEiIG9mZnNldD0iMCIvPiYjeGE7ICAgICAgPHN0b3Agc3RvcC1jb2xvcj0iI2M3MDAzMyIgb2Zmc2V0PSIxIi8+JiN4YTsgICAgPC9saW5lYXJHcmFkaWVudD4mI3hhOyAgICA8bGluZWFyR3JhZGllbnQgeGxpbms6aHJlZj0iI2xpbmVhci1ncmFkaWVudCIgZ3JhZGllbnRUcmFuc2Zvcm09Im1hdHJpeCgxLCAwLCAwLCAxLCAtMzQ2LjUzNTMzOSwgLTYxOS4zMjg3OTYpIiB5Mj0iNTk4Ljg0IiB4Mj0iNTcwLjM0IiB5MT0iNjgxLjA3IiB4MT0iNTIyLjg2IiBpZD0ibGluZWFyLWdyYWRpZW50LTQ3Ii8+JiN4YTsgICAgPGxpbmVhckdyYWRpZW50IHhsaW5rOmhyZWY9IiNsaW5lYXItZ3JhZGllbnQtNDYiIGdyYWRpZW50VHJhbnNmb3JtPSJtYXRyaXgoMSwgMCwgMCwgMSwgLTM0Ni41MzUzMzksIC02MTkuMzI4Nzk2KSIgeTI9IjQ4NC41NyIgeDI9IjUzMy4yOSIgeTE9IjQ4NC41NyIgeDE9IjQ2MC44NCIgaWQ9ImxpbmVhci1ncmFkaWVudC00OCIvPiYjeGE7ICAgIDxsaW5lYXJHcmFkaWVudCB4bGluazpocmVmPSIjbGluZWFyLWdyYWRpZW50LTQ2IiBncmFkaWVudFRyYW5zZm9ybT0ibWF0cml4KDEuMDAyMjksIDAsIDAsIDEsIC0zNDguNDA4NzYsIC02MTkuMzI4Nzk2KSIgeTI9IjQ5NS45MyIgeDI9IjY4Ny43MyIgeTE9IjQ5NS45MyIgeDE9IjY0NC44NyIgaWQ9ImxpbmVhci1ncmFkaWVudC00OSIvPiYjeGE7ICAgIDxsaW5lYXJHcmFkaWVudCB4bGluazpocmVmPSIjbGluZWFyLWdyYWRpZW50LTQyIiBncmFkaWVudFRyYW5zZm9ybT0ibWF0cml4KDEsIDAsIDAsIDEsIC0zNDYuNTM1MzM5LCAtNjE5LjMyODc5NikiIHkyPSI1NTkuNTgiIHgyPSI3MTQuNjEiIHkxPSI1NTkuNTgiIHgxPSI2NjAuODQiIGlkPSJsaW5lYXItZ3JhZGllbnQtNTAiLz4mI3hhOyAgICA8bGluZWFyR3JhZGllbnQgeGxpbms6aHJlZj0iI2xpbmVhci1ncmFkaWVudC0zIiBncmFkaWVudFRyYW5zZm9ybT0ibWF0cml4KDEsIDAsIDAsIDEsIC0zNDYuNTM1MzM5LCAtNjE5LjMyODc5NikiIHkyPSI0MDUuOTUiIHgyPSI1NDIuMzciIHkxPSI0MDUuOTUiIHgxPSI0MjEuMDciIGlkPSJsaW5lYXItZ3JhZGllbnQtNTEiLz4mI3hhOyAgICA8bGluZWFyR3JhZGllbnQgeGxpbms6aHJlZj0iI2xpbmVhci1ncmFkaWVudC04IiBncmFkaWVudFRyYW5zZm9ybT0ibWF0cml4KDEsIDAsIDAsIDEsIC0zNDYuNTM1MzM5LCAtNjE5LjMyODc5NikiIHgyPSIxMDYuODIiIHkxPSIyMTMuNTEiIHgxPSIxMDYuODIiIGlkPSJsaW5lYXItZ3JhZGllbnQtNTIiLz4mI3hhOyAgICA8bGluZWFyR3JhZGllbnQgeGxpbms6aHJlZj0iI2xpbmVhci1ncmFkaWVudC0xOCIgZ3JhZGllbnRUcmFuc2Zvcm09Im1hdHJpeCgxLCAwLCAwLCAxLCAtMzQ2LjUzNTMzOSwgLTYxOS4zMjg3OTYpIiB5Mj0iMzI3LjE3IiB4Mj0iMzIyLjU2IiB5MT0iMzI3LjE3IiB4MT0iMjA3LjE1IiBpZD0ibGluZWFyLWdyYWRpZW50LTUzIi8+JiN4YTsgICAgPGxpbmVhckdyYWRpZW50IGdyYWRpZW50VHJhbnNmb3JtPSJtYXRyaXgoMSwgMCwgMCwgMSwgLTE3My4yNjc2NywgLTMwOS42NjQzOTgpIiBncmFkaWVudFVuaXRzPSJ1c2VyU3BhY2VPblVzZSIgeTI9IjI2MS4zMiIgeDI9IjQ0My43IiB5MT0iMjYxLjMyIiB4MT0iMzIxLjQ3IiBpZD0ibGluZWFyLWdyYWRpZW50LTU0Ij4mI3hhOyAgICAgIDxzdG9wIHN0b3AtY29sb3I9IiNmZmM5MGYiIG9mZnNldD0iMCIvPiYjeGE7ICAgICAgPHN0b3Agc3RvcC1jb2xvcj0iI2RhNWUwMCIgb2Zmc2V0PSIxIi8+JiN4YTsgICAgPC9saW5lYXJHcmFkaWVudD4mI3hhOyAgPC9kZWZzPiYjeGE7ICA8cG9seWdvbiBzdHlsZT0iZmlsbDogcmdiKDI1NSwgMjE3LCAxNTMpOyBzdHJva2Utd2lkdGg6IDBweDsiIHBvaW50cz0iLTY2LjYyOCAtMjA3LjQ5NCAtMzUuMzA3IC0xNzAuMjc0IC01My44MjggLTM0LjA4NCAtNjQuMjU4IC0xMDEuNDc0IC02Ni42MjggLTIwNy40OTQiIGNsYXNzPSJjbHMtODEiLz4mI3hhOyAgPHBvbHlnb24gc3R5bGU9ImZpbGw6IHJnYigyMzQsIDI0MCwgMjQ5KTsgc3Ryb2tlLXdpZHRoOiAwcHg7IiBwb2ludHM9IjMzLjg4MiAzMi43MjYgLTI2LjExOCA4My43MjYgMTA0Ljg4MiAzMi43MjYgMzMuODgyIDMyLjcyNiIgY2xhc3M9ImNscy04NyIvPiYjeGE7ICA8cG9seWdvbiBzdHlsZT0iZmlsbDogcmdiKDE3NiwgMjEwLCAyNTUpOyBzdHJva2Utd2lkdGg6IDBweDsiIHBvaW50cz0iMzYuNDQyIDg2LjExNiAxMDQuODgyIDMyLjcyNiAtMjYuMTE4IDgzLjcyNiAzNi40NDIgODYuMTE2IiBjbGFzcz0iY2xzLTY1Ii8+JiN4YTsgIDxwb2x5Z29uIHN0eWxlPSJmaWxsOiByZ2IoMTMyLCAxODMsIDI1NSk7IHN0cm9rZS13aWR0aDogMHB4OyIgcG9pbnRzPSIxMDQuODgyIDMyLjcyNiAxNzUuMTkyIDQ3LjM1NiAxLjY1MiAxMDcuNTE2IDEwNC44ODIgMzIuNzI2IiBjbGFzcz0iY2xzLTY2Ii8+JiN4YTsgIDxwb2x5Z29uIHN0eWxlPSJmaWxsOiByZ2IoMjM0LCAyNDAsIDI0OSk7IHN0cm9rZS13aWR0aDogMHB4OyIgcG9pbnRzPSItMjYuMTE4IDgzLjcyNiAtNjYuNjI4IDEyMC4wMzYgLTIyLjU3OCAxMjUuNzU2IDM2LjQ0MiA4Ni4xMTYgLTI2LjExOCA4My43MjYiIGNsYXNzPSJjbHMtODciLz4mI3hhOyAgPHBvbHlnb24gc3R5bGU9ImZpbGw6IHJnYigxMzIsIDE4MywgMjU1KTsgc3Ryb2tlLXdpZHRoOiAwcHg7IiBwb2ludHM9Ii02Ni42MjggMTIwLjAzNiAtNzIuNzg4IDE2NS44MzYgLTIyLjU3OCAxMjUuNzU2IC02Ni42MjggMTIwLjAzNiIgY2xhc3M9ImNscy02NiIvPiYjeGE7ICA8cG9seWdvbiBzdHlsZT0iZmlsbDogcmdiKDE3NiwgMjEwLCAyNTUpOyBzdHJva2Utd2lkdGg6IDBweDsiIHBvaW50cz0iLTE0Mi4zODggMTk2LjY3NiAtMTQyLjM4OCAyMTkuMTM2IC03Mi43ODggMTY1LjgzNiAtNjYuNjI4IDEyMC4wMzYgLTE0Mi4zODggMTk2LjY3NiIgY2xhc3M9ImNscy02NSIvPiYjeGE7ICA8cG9seWdvbiBzdHlsZT0iZmlsbDogcmdiKDEzMiwgMTgzLCAyNTUpOyBzdHJva2Utd2lkdGg6IDBweDsiIHBvaW50cz0iLTE0Mi4zODggMjE5LjEzNiAtMTYwLjg4OCAyMDkuMDA2IC0xNDIuMzg4IDE5Ni42NzYgLTE0Mi4zODggMjE5LjEzNiIgY2xhc3M9ImNscy02NiIvPiYjeGE7ICA8cG9seWdvbiBzdHlsZT0iZmlsbDogcmdiKDEwMiwgMTEzLCAxMzApOyBzdHJva2Utd2lkdGg6IDBweDsiIHBvaW50cz0iLTE2OC4zNzggMjE2LjA1NiAtMTQyLjM4OCAyMTkuMTM2IC0xNjAuODg4IDIwOS4wMDYgLTE2OC4zNzggMjE2LjA1NiIgY2xhc3M9ImNscy02NyIvPiYjeGE7ICA8cGF0aCBzdHlsZT0iZmlsbDogcmdiKDM2LCA0NSwgNTcpOyBzdHJva2Utd2lkdGg6IDBweDsiIGQ9Ik0gLTE3My4yMTggMjQ5LjA4NiBMIC0xNzMuMjE4IDIzOC41MTYgQyAtMTczLjIxOCAyMjkuMjI2IC0xNjguMzY4IDIxNi4wNTYgLTE2OC4zNjggMjE2LjA1NiBMIC0xNDIuMzc4IDIxOS4xMzYgTCAtMTczLjIxOCAyNDkuMDg2IFoiIGNsYXNzPSJjbHMtNjIiLz4mI3hhOyAgPHBhdGggc3R5bGU9ImZpbGw6IHJnYig4LCA0MywgOTQpOyBzdHJva2Utd2lkdGg6IDBweDsiIGQ9Ik0gLTE3My4yMTggMjQ5LjA4NiBDIC0xNzEuNzQ4IDI1Mi44MzYgLTE2OC4zNjggMjUzLjA0NiAtMTY4LjM2OCAyNTMuMDQ2IEwgLTcwLjEzOCAxODkuMTc2IEwgLTcyLjc3OCAxNjUuODM2IEwgLTE0Mi4zNjggMjE5LjEzNiBDIC0xNDIuMzY4IDIxOS4xMzYgLTE3NC42ODggMjQ1LjMzNiAtMTczLjIxOCAyNDkuMDg2IFoiIGNsYXNzPSJjbHMtNjEiLz4mI3hhOyAgPHBvbHlnb24gc3R5bGU9ImZpbGw6IHJnYigzNiwgNDUsIDU3KTsgc3Ryb2tlLXdpZHRoOiAwcHg7IiBwb2ludHM9Ii0yMi41NzggMTI1Ljc1NiAyLjUzMiAxNDAuMjk2IC03MC4xNDggMTg5LjE4NiAtNzIuNzg4IDE2NS44MzYgLTIyLjU3OCAxMjUuNzU2IiBjbGFzcz0iY2xzLTYyIi8+JiN4YTsgIDxwb2x5Z29uIHN0eWxlPSJmaWxsOiByZ2IoMCwgMTIsIDM4KTsgc3Ryb2tlLXdpZHRoOiAwcHg7IiBwb2ludHM9Ii0yMi41NzggMTI1Ljc1NiA0NC44NjIgMTI1Ljc1NiAyLjUzMiAxNDAuMjk2IC0yMi41NzggMTI1Ljc1NiIgY2xhc3M9ImNscy05NSIvPiYjeGE7ICA8cG9seWdvbiBzdHlsZT0iZmlsbDogcmdiKDEwMiwgMTEzLCAxMzApOyBzdHJva2Utd2lkdGg6IDBweDsiIHBvaW50cz0iMTIzLjM5MiA2OS4wNTYgMjA2Ljc5MiA5My4xNDYgNTcuNTQyIDExNi44NTYgMTIzLjM5MiA2OS4wNTYiIGNsYXNzPSJjbHMtNjciLz4mI3hhOyAgPHBvbHlnb24gc3R5bGU9ImZpbGw6IHJnYigwLCAxMiwgMzgpOyBzdHJva2Utd2lkdGg6IDBweDsiIHBvaW50cz0iMTc1LjE5MiA0Ny4zNTYgMjM3LjUxMiAxMDkuMDQ2IDEyMy4zOTIgNjkuMDU2IDE3NS4xOTIgNDcuMzU2IiBjbGFzcz0iY2xzLTk1Ii8+JiN4YTsgIDxwb2x5Z29uIHN0eWxlPSJmaWxsOiByZ2IoMjExLCAyMjYsIDI1NSk7IHN0cm9rZS13aWR0aDogMHB4OyIgcG9pbnRzPSI1Ny41NDIgMTE2Ljg1NiA0NC44NjIgMTI1Ljc1NiAtMjIuNTc4IDEyNS43NTYgMzYuNDQyIDg2LjExNiAxNzAuODUgNDguODk5IDU3LjU0MiAxMTYuODU2IiBjbGFzcz0iY2xzLTYzIi8+JiN4YTsgIDxwb2x5Z29uIHN0eWxlPSJmaWxsOiByZ2IoMzYsIDQ1LCA1Nyk7IHN0cm9rZS13aWR0aDogMHB4OyIgcG9pbnRzPSI1Ny41NDIgMTE2Ljg1NiA0NC44NjIgMTI1Ljc1NiAyMzcuNTEyIDEwOS4wNDYgMTk2LjcxMiA5NC43NDYgNTcuNTQyIDExNi44NTYiIGNsYXNzPSJjbHMtNjIiLz4mI3hhOyAgPHBhdGggc3R5bGU9ImZpbGw6IHJnYigwLCAxMiwgMzgpOyBzdHJva2Utd2lkdGg6IDBweDsiIGQ9Ik0gLTE2OC4zNzggMjUzLjA1NiBDIC0xNjguMzc4IDI1My4wNTYgLTE0My41MTggMjU5LjI2NiAtMTM3LjA1OCAyNTUuODU2IEMgLTEzMC41OTggMjUyLjQ0NiAtMTEyLjY2OCAyMzIuNTc2IC0xMTIuNjY4IDIzMi41NzYgTCAtMTMwLjU5OCAyMjguNDk2IEwgLTE2OC4zNjggMjUzLjA1NiBMIC0xNjguMzc4IDI1My4wNTYgWiIgY2xhc3M9ImNscy05NSIvPiYjeGE7ICA8cG9seWdvbiBzdHlsZT0iZmlsbDogcmdiKDcsIDI0LCA1Myk7IHN0cm9rZS13aWR0aDogMHB4OyIgcG9pbnRzPSItNS44NTggMTYyLjIwNiA0NC44NjIgMTI1Ljc1NiAyLjUzMiAxNDAuMjk2IC0xMzAuNTk4IDIyOC40OTYgLTExMi42NjggMjMyLjU3NiAtNS44NTggMTYyLjIwNiIgY2xhc3M9ImNscy01OSIvPiYjeGE7ICA8cGF0aCBzdHlsZT0iZmlsbDogcmdiKDAsIDEyLCAzOCk7IHN0cm9rZS13aWR0aDogMHB4OyIgZD0iTSAxMzguNjYyIDExNy42MjYgTCAyMjEuOTEyIDIxNC4wNzYgTCAxNjIuNDEyIDE0Ny4wOTYgTCAxNjUuMzQyIDE5NC40MDYgTCAxNTAuNzIyIDIzNS42NTYgTCAxMzUuMjYyIDE4MS4wNjYgQyAxMzUuMjYyIDE4MS4wNjYgMTMwLjU2MiAxNzAuNjU2IDExOC44NTIgMTU5LjM1NiBDIDExMS4zNjIgMTUyLjEyNiA5Mi4yMjIgMTQ2LjcwNiA4NS41MjIgMTQ1LjMzNiBDIDc4LjgyMiAxNDMuOTY2IDY2LjA2MiAxNDMuMTE2IDUzLjM4MiAxNDUuMTY2IEMgNDAuNzAyIDE0Ny4yMTYgLTUuODQ4IDE2Mi4yMTYgLTUuODQ4IDE2Mi4yMTYgTCA0NC44NzIgMTI1Ljc2NiBMIDEzOC42NjIgMTE3LjYzNiBMIDEzOC42NjIgMTE3LjYyNiBaIiBjbGFzcz0iY2xzLTk1Ii8+JiN4YTsgIDxwb2x5Z29uIHN0eWxlPSJmaWxsOiByZ2IoMCwgMjAzLCAyNTUpOyBzdHJva2Utd2lkdGg6IDBweDsiIHBvaW50cz0iMTI2LjYxMiAyNDIuMTc2IDE1MC43MTIgMjM1LjY0NiAxMzUuMjUyIDE4MS4wNTYgMTI2LjYxMiAyNDIuMTc2IiBjbGFzcz0iY2xzLTkxIi8+JiN4YTsgIDxwb2x5Z29uIHN0eWxlPSJmaWxsOiByZ2IoMCwgMjIwLCAyNTUpOyBzdHJva2Utd2lkdGg6IDBweDsiIHBvaW50cz0iMTUzLjgwMiAyNzguMjg2IDEyNi42MTIgMjQyLjE3NiAxNTAuNzEyIDIzNS42NDYgMTUzLjgwMiAyNzguMjg2IiBjbGFzcz0iY2xzLTkyIi8+JiN4YTsgIDxwb2x5Z29uIHN0eWxlPSJmaWxsOiByZ2IoMCwgMTIyLCAyNTUpOyBzdHJva2Utd2lkdGg6IDBweDsiIHBvaW50cz0iOTcuNjMyIDMzMC42NDYgMTUzLjgwMiAyNzguMjg2IDEyNi42MTIgMjQyLjE3NiA5Ny42MzIgMzMwLjY0NiIgY2xhc3M9ImNscy05NyIvPiYjeGE7ICA8cG9seWdvbiBzdHlsZT0iZmlsbDogcmdiKDEwNiwgMjMxLCAyNTUpOyBzdHJva2Utd2lkdGg6IDBweDsiIHBvaW50cz0iNTUuOTQyIDMyMi40MTYgMTI2LjYxMiAyNDIuMTc2IDk3LjYzMiAzMzAuNjQ2IDU1Ljk0MiAzMjIuNDE2IiBjbGFzcz0iY2xzLTcwIi8+JiN4YTsgIDxwb2x5Z29uIHN0eWxlPSJmaWxsOiByZ2IoMTU5LCAyMzgsIDI0Nyk7IHN0cm9rZS13aWR0aDogMHB4OyIgcG9pbnRzPSI2OS4wNzIgMzU2LjM3NiAtMS40MjggMzM3LjA4NiA1NS45NDIgMzIyLjQxNiA5Ny42MzIgMzMwLjY0NiA2OS4wNzIgMzU2LjM3NiIgY2xhc3M9ImNscy03MSIvPiYjeGE7ICA8cG9seWdvbiBzdHlsZT0iZmlsbDogcmdiKDAsIDIwMywgMjU1KTsgc3Ryb2tlLXdpZHRoOiAwcHg7IiBwb2ludHM9IjE1My44MDIgMjc4LjI4NiAxNTguODYyIDMzMy4yMjYgNjkuMDcyIDM1Ni4zNzYgMTUzLjgwMiAyNzguMjg2IiBjbGFzcz0iY2xzLTkxIi8+JiN4YTsgIDxwb2x5Z29uIHN0eWxlPSJmaWxsOiByZ2IoMCwgMjAzLCAyNTUpOyBzdHJva2Utd2lkdGg6IDBweDsiIHBvaW50cz0iMTA4LjQzMiAzODAuMDQ2IDY5LjA3MiAzNTYuMzc2IDE1OC44NjIgMzMzLjIyNiAxMDguODk2IDM4MC4yMzciIGNsYXNzPSJjbHMtOTEiLz4mI3hhOyAgPHBvbHlnb24gc3R5bGU9ImZpbGw6IHJnYigxMDYsIDIzMSwgMjU1KTsgc3Ryb2tlLXdpZHRoOiAwcHg7IiBwb2ludHM9IjkyLjg1MiAzOTUuMzM2IDEuNjUyIDM4MC4wNDYgNjkuMDcyIDM1Ni4zNzYgMTA4LjkzOCAzODAuMjM2IDkyLjg1MiAzOTUuMzM2IiBjbGFzcz0iY2xzLTcwIi8+JiN4YTsgIDxwb2x5Z29uIHN0eWxlPSJmaWxsOiByZ2IoMCwgMTIyLCAyNTUpOyBzdHJva2Utd2lkdGg6IDBweDsiIHBvaW50cz0iMTk0Ljg4MiAzNjEuMDA2IDE1OC44NjIgMzMzLjIyNiA5Mi44NTIgMzk1LjMzNiAxOTQuODgyIDM2MS4wMDYiIGNsYXNzPSJjbHMtOTciLz4mI3hhOyAgPHBvbHlnb24gc3R5bGU9ImZpbGw6IHJnYigxMDYsIDIzMSwgMjU1KTsgc3Ryb2tlLXdpZHRoOiAwcHg7IiBwb2ludHM9IjExNi45MjIgNDQzLjg1NiA1Ny4yMzIgNDE4LjEyNiA5My40NzQgMzk1LjEzIDE5NC44ODIgMzYxLjAwNiAxMTYuOTIyIDQ0My44NTYiIGNsYXNzPSJjbHMtNzAiLz4mI3hhOyAgPHBvbHlnb24gc3R5bGU9ImZpbGw6IHJnYigwLCA0OSwgMTE2KTsgc3Ryb2tlLXdpZHRoOiAwcHg7IiBwb2ludHM9IjIzMC4xNzIgMjkwLjMxNiAyNTYuNjgyIDE3My4zMjYgMjM3LjUxMiAxMDkuMDQ2IDIxNS45OTIgMjQyLjE3NiAyMzAuMTcyIDI5MC4zMTYiIGNsYXNzPSJjbHMtOTAiLz4mI3hhOyAgPHBvbHlnb24gc3R5bGU9ImZpbGw6IHJnYigzNiwgNDUsIDU3KTsgc3Ryb2tlLXdpZHRoOiAwcHg7IiBwb2ludHM9IjE2NS4zMzIgMTk0LjM5NiAyMTcuMzYyIDIzMy42ODYgMjIxLjkwMiAyMTQuMDc2IDE2Mi40MDIgMTQ3LjA4NiAxNjUuMzMyIDE5NC4zOTYiIGNsYXNzPSJjbHMtNjIiLz4mI3hhOyAgPHBvbHlnb24gc3R5bGU9ImZpbGw6IHJnYigxMCwgMjQsIDM3KTsgc3Ryb2tlLXdpZHRoOiAwcHg7IiBwb2ludHM9IjE1MC43MTIgMjMxLjgxNiAyMTcuMzYyIDIzMy42ODYgMTY1LjMzMiAxOTQuMzk2IDE1MC43MTIgMjMxLjgxNiIgY2xhc3M9ImNscy02MCIvPiYjeGE7ICA8cG9seWdvbiBzdHlsZT0iZmlsbDogcmdiKDAsIDQ5LCAxMTYpOyBzdHJva2Utd2lkdGg6IDBweDsiIHBvaW50cz0iMjE2Ljg4MiAyMzkuODE2IDIxNi44ODIgMjM2LjYxNiAyMTcuMzYyIDIzMy42ODYgMTUwLjcxMiAyMzEuODE2IDE1My44MDIgMjc4LjI4NiAyMTYuODgyIDIzOS44MTYiIGNsYXNzPSJjbHMtOTAiLz4mI3hhOyAgPHBvbHlnb24gc3R5bGU9ImZpbGw6IHJnYigwLCAxMjIsIDI1NSk7IHN0cm9rZS13aWR0aDogMHB4OyIgcG9pbnRzPSIxNTguODYyIDMzMy4yMjYgMjE2Ljg4MiAyMzkuODE2IDE1My44MDIgMjc4LjI4NiAxNTguODYyIDMzMy4yMjYiIGNsYXNzPSJjbHMtOTciLz4mI3hhOyAgPHBvbHlnb24gc3R5bGU9ImZpbGw6IHJnYigwLCA5MiwgMjU1KTsgc3Ryb2tlLXdpZHRoOiAwcHg7IiBwb2ludHM9IjIzMC4xNzIgMjkwLjMxNiAyMTYuODgyIDIzOS44MTYgMTU4Ljg2MiAzMzMuMjI2IDIzMC4xNzIgMjkwLjMxNiIgY2xhc3M9ImNscy05NCIvPiYjeGE7ICA8cG9seWdvbiBzdHlsZT0iZmlsbDogcmdiKDAsIDY5LCAxNzgpOyBzdHJva2Utd2lkdGg6IDBweDsiIHBvaW50cz0iMTk0Ljg4MiAzNjEuMDA2IDE1OC44NjIgMzMzLjIyNiAyMzAuMTcyIDI5MC4zMTYgMTk0Ljg4MiAzNjEuMDA2IiBjbGFzcz0iY2xzLTkzIi8+JiN4YTsgIDxwb2x5Z29uIHN0eWxlPSJmaWxsOiByZ2IoMCwgNjksIDE3OCk7IHN0cm9rZS13aWR0aDogMHB4OyIgcG9pbnRzPSIyNzUuMjMyIDIyNC4wNDYgMjMwLjE3MiAyOTAuMzE2IDI1Ni42ODIgMTczLjMyNiAyNzUuMjMyIDIyNC4wNDYiIGNsYXNzPSJjbHMtOTMiLz4mI3hhOyAgPHBvbHlnb24gc3R5bGU9ImZpbGw6IHJnYigxNiwgMCwgMzApOyBzdHJva2Utd2lkdGg6IDBweDsiIHBvaW50cz0iMjE5LjU3MiA0MTUuMzE2IDI1My41ODIgMzU0LjkxNiAxMTYuOTIyIDQ0My44NTYgMjE5LjU3MiA0MTUuMzE2IiBjbGFzcz0iY2xzLTU4Ii8+JiN4YTsgIDxwb2x5Z29uIHN0eWxlPSJmaWxsOiByZ2IoMCwgMTIyLCAyNTUpOyBzdHJva2Utd2lkdGg6IDBweDsiIHBvaW50cz0iMjc1LjIzMiAyMjQuMDQ2IDI5MS42NzIgMjcxLjkzNiAxOTQuODgyIDM2MS4wMDYgMjMwLjE3MiAyOTAuMzE2IDI3NS4yMzIgMjI0LjA0NiIgY2xhc3M9ImNscy05NyIvPiYjeGE7ICA8cG9seWdvbiBzdHlsZT0iZmlsbDogdXJsKCcjbGluZWFyLWdyYWRpZW50Jyk7IHN0cm9rZS13aWR0aDogMHB4OyIgcG9pbnRzPSIzMjEuNDEyIDI4Ni40MDYgMjgwLjYxMiAzOTkuMzg2IDI4NS42MTIgMjcyLjQwNiAzMjEuNDEyIDI4Ni40MDYiIGNsYXNzPSJjbHMtMSIvPiYjeGE7ICA8cG9seWdvbiBzdHlsZT0iZmlsbDogdXJsKCcjbGluZWFyLWdyYWRpZW50LTInKTsgc3Ryb2tlLXdpZHRoOiAwcHg7IiBwb2ludHM9IjE5Ni45MTIgNDQzLjg1NiAyODAuNjEyIDM5OS4zODYgMjg0LjMxMiAzNTYuNzE2IDIxOS41NzIgNDE1LjMxNiAxOTYuOTEyIDQ0My44NTYiIGNsYXNzPSJjbHMtNDgiLz4mI3hhOyAgPHBhdGggc3R5bGU9ImZpbGw6IHJnYigxNiwgMCwgMzApOyBzdHJva2Utd2lkdGg6IDBweDsiIGQ9Ik0gMTgzLjU1MiA0NjIuOTU2IEMgMTg1LjI1MiA0NjIuOTU2IDI0MC42MDIgNDM1LjcwNiAyNDAuNjAyIDQzNS43MDYgTCAyODAuNjAyIDM5OS4zODYgTCAxOTYuOTAyIDQ0My44NTYgTCAxODUuMjQyIDQ2MS4xODYgQyAxODUuMjQyIDQ2MS4xODYgMTgxLjg1MiA0NjIuOTQ2IDE4My41NDIgNDYyLjk0NiBMIDE4My41NTIgNDYyLjk1NiBaIiBjbGFzcz0iY2xzLTU4Ii8+JiN4YTsgIDxwYXRoIHN0eWxlPSJmaWxsOiByZ2IoMTYsIDAsIDMwKTsgc3Ryb2tlLXdpZHRoOiAwcHg7IiBkPSJNIDM0Mi43NzIgMjI2LjI4NiBMIDM0MC44MzIgMzc4LjA0NiBDIDM0MC44MzIgMzc4LjA0NiAyNzguNDcyIDQ2My45NTYgMjc2Ljk1MiA0NjQuNzY2IEMgMjc1LjQzMiA0NjUuNTc2IDI2OS43OTIgNDY2LjU4NiAyNjguMDUyIDQ2NC43NjYgQyAyNjYuMzEyIDQ2Mi45NDYgMjgwLjYwMiAzOTkuMzg2IDI4MC42MDIgMzk5LjM4NiBMIDM0Mi43NzIgMjI2LjI4NiBaIiBjbGFzcz0iY2xzLTU4Ii8+JiN4YTsgIDxwYXRoIHN0eWxlPSJmaWxsOiByZ2IoMTYsIDAsIDMwKTsgc3Ryb2tlLXdpZHRoOiAwcHg7IiBkPSJNIDM5Ny4zNjIgMzI1LjY2NiBDIDM5Ny4zNjIgMzI1LjY2NiAzNjQuMDQyIDQzNC44MTYgMzYwLjk3MiA0NDAuMzg2IEMgMzU3LjkwMiA0NDUuOTU2IDM0OC45NzIgNDQ0LjA3NiAzNDUuODcyIDQ0MC4zODYgQyAzNDIuNzcyIDQzNi42OTYgMzQwLjg0MiAzNzguMDU2IDM0MC44NDIgMzc4LjA1NiBMIDM5Ny4zNjIgMzI1LjY3NiBMIDM5Ny4zNjIgMzI1LjY2NiBaIiBjbGFzcz0iY2xzLTU4Ii8+JiN4YTsgIDxwYXRoIHN0eWxlPSJmaWxsOiByZ2IoMTYsIDAsIDMwKTsgc3Ryb2tlLXdpZHRoOiAwcHg7IiBkPSJNIDQwNy40MzIgMjM5LjgxNiBMIDM5Ny4zNjIgMzIxLjkwNiBDIDM5Ny4zNjIgMzIxLjkwNiA0MTQuMzgyIDQwMS4xNzYgNDE3LjQ5MiA0MDcuMDc2IEMgNDIwLjYwMiA0MTIuOTc2IDQyNi43NTIgNDExLjY2NiA0MjkuMTAyIDQwNy4wNzYgQyA0MzEuNDYyIDQwMi40ODYgNDU1Ljk0MiAzMDIuMTU2IDQ1NS45NDIgMzAyLjE1NiBMIDQwNy40MjIgMjM5LjgwNiBMIDQwNy40MzIgMjM5LjgxNiBaIiBjbGFzcz0iY2xzLTU4Ii8+JiN4YTsgIDxwYXRoIHN0eWxlPSJmaWxsOiByZ2IoMTYsIDAsIDMwKTsgc3Ryb2tlLXdpZHRoOiAwcHg7IiBkPSJNIDQzMi45ODIgMTk5LjY4NiBMIDQ0OC44NTIgMzA2LjA0NiBDIDQ0OC44NTIgMzA2LjA0NiA0NzUuNzIyIDM1Mi45MjYgNDc5LjgyMiAzNTcuOTA2IEMgNDgzLjkyMiAzNjIuODg2IDQ5MC44MDIgMzYzLjM5NiA0OTEuNDMyIDM1Ni43MjYgQyA0OTIuMDYyIDM1MC4wNDYgNDg3LjU2MiAyNDEuMzk2IDQ4Ny41NjIgMjQxLjM5NiBMIDQzMi45NzIgMTk5LjY5NiBMIDQzMi45ODIgMTk5LjY4NiBaIiBjbGFzcz0iY2xzLTU4Ii8+JiN4YTsgIDxwYXRoIHN0eWxlPSJmaWxsOiByZ2IoMTYsIDAsIDMwKTsgc3Ryb2tlLXdpZHRoOiAwcHg7IiBkPSJNIDUyMi44MDIgMTQxLjExNiBMIDUxMi43MzIgMTk1LjcwNiBDIDUxMi43MzIgMTk1LjcwNiA1NjUuMzgyIDIzOC4wMjYgNTcwLjAzMiAyNDEuMzg2IEMgNTc0LjY4MiAyNDQuNzQ2IDU3NC42ODIgMjM5LjgxNiA1NzQuNjgyIDIzOS44MTYgTCA1NzEuNTgyIDIzMi4wODYgTCA1MjIuODAyIDE0MS4xMDYgTCA1MjIuODAyIDE0MS4xMTYgWiIgY2xhc3M9ImNscy01OCIvPiYjeGE7ICA8cG9seWdvbiBzdHlsZT0iZmlsbDogdXJsKCcjbGluZWFyLWdyYWRpZW50LTMnKTsgc3Ryb2tlLXdpZHRoOiAwcHg7IiBwb2ludHM9Ii02Ni42MjggMTIwLjAzNiAtMTAyLjg1OCAtMjQuMTY0IC04Mi4yNzggLTMyLjM1NCAtNjYuNjI4IDEyMC4wMzYiIGNsYXNzPSJjbHMtNDkiLz4mI3hhOyAgPHBvbHlnb24gc3R5bGU9ImZpbGw6IHJnYigyMzgsIDcsIDgyKTsgc3Ryb2tlLXdpZHRoOiAwcHg7IiBwb2ludHM9Ii01Ljg1OCAtMTc0LjUzNCAtNDIuODY4IC0xNTcuMjA0IC02Ni42MjggMTIwLjAzNiAtNDcuNjg4IC0zMS44NTQgLTUuODU4IC0xNzQuNTM0IiBjbGFzcz0iY2xzLTc5Ii8+JiN4YTsgIDxwb2x5Z29uIHN0eWxlPSJmaWxsOiB1cmwoJyNsaW5lYXItZ3JhZGllbnQtNCcpOyBzdHJva2Utd2lkdGg6IDBweDsiIHBvaW50cz0iMTAuNzMyIC0yNTUuNDA0IC02LjI2OCAtMTczLjExNCAtNDMuMjc4IC0xNTQuODM0IDEwLjczMiAtMjU1LjQwNCIgY2xhc3M9ImNscy00NyIvPiYjeGE7ICA8cG9seWdvbiBzdHlsZT0iZmlsbDogcmdiKDI1NSwgMTExLCA0MCk7IHN0cm9rZS13aWR0aDogMHB4OyIgcG9pbnRzPSIxMjYuNjEyIC0yMDcuNDk0IDI5LjI5MiAtMTE5LjgwNCA3OS40NjIgLTIyMS4yMTQgMTI2LjYxMiAtMjA3LjQ5NCIgY2xhc3M9ImNscy03MyIvPiYjeGE7ICA8cG9seWdvbiBzdHlsZT0iZmlsbDogcmdiKDI1NSwgMTY2LCAwKTsgc3Ryb2tlLXdpZHRoOiAwcHg7IiBwb2ludHM9Ii02Ni42MjggLTIwNy40OTQgLTEwMi44NTggLTI0LjE2NCAtNDIuODY4IC0xNTcuMjA0IC02Ni42MjggLTIwNy40OTQiIGNsYXNzPSJjbHMtODQiLz4mI3hhOyAgPHBvbHlnb24gc3R5bGU9ImZpbGw6IHVybCgnI2xpbmVhci1ncmFkaWVudC01Jyk7IHN0cm9rZS13aWR0aDogMHB4OyIgcG9pbnRzPSItNDcuNjg4IDgzLjcyNiAtNjYuNjI4IDEyMC4wMzYgLTQ3LjY4OCAtMzIuMzU0IC0yMC42NDggLTEyNC44NzQgLTQ3LjY4OCA4My43MjYiIGNsYXNzPSJjbHMtNTMiLz4mI3hhOyAgPHBvbHlnb24gc3R5bGU9ImZpbGw6IHJnYigyNTUsIDIxNywgMTUzKTsgc3Ryb2tlLXdpZHRoOiAwcHg7IiBwb2ludHM9Ii0yNi4xMTggLTEwMS43NTQgNzUuNjMyIC0yMTMuNDc0IDY0Ljg1MiAtMTkxLjY4NCAyOS4yOTIgLTExOS44MDQgLTQwLjA3OCAyNS4wMzYgLTI2LjExOCAtMTAxLjc1NCIgY2xhc3M9ImNscy04MSIvPiYjeGE7ICA8cG9seWdvbiBzdHlsZT0iZmlsbDogcmdiKDI1NSwgMTIzLCA5Nyk7IHN0cm9rZS13aWR0aDogMHB4OyIgcG9pbnRzPSItNS44NTggLTE3NS40OTQgMzYuNDQyIC0xOTguODg0IC0wLjQwOCAtMTI5Ljk3NCAtMjguMDE4IC05OS42NjQgLTUuODU4IC0xNzUuNDk0IiBjbGFzcz0iY2xzLTcyIi8+JiN4YTsgIDxwb2x5Z29uIHN0eWxlPSJmaWxsOiByZ2IoMTEyLCAyOCwgOTkpOyBzdHJva2Utd2lkdGg6IDBweDsiIHBvaW50cz0iLTQ3LjY4OCA4My43MjYgNDkuMTUyIC0xMzcuNjk0IDI5LjI5MiAtMTE5LjgwNCAtNDAuMDc4IDI1LjAzNiAtNDcuNjg4IDgzLjcyNiIgY2xhc3M9ImNscy01NyIvPiYjeGE7ICA8cG9seWdvbiBzdHlsZT0iZmlsbDogcmdiKDI1NSwgMjE3LCAxNTMpOyBzdHJva2Utd2lkdGg6IDBweDsiIHBvaW50cz0iOTcuNjMyIC0yODkuOTk0IDM2LjQ0MiAtMTk4Ljg4NCAtNS44NTggLTE3NS40OTQgNTcuNTQyIC0yNTMuNDQ0IDk3LjYzMiAtMjg5Ljk5NCIgY2xhc3M9ImNscy04MSIvPiYjeGE7ICA8cG9seWdvbiBzdHlsZT0iZmlsbDogcmdiKDI1NSwgMCwgODMpOyBzdHJva2Utd2lkdGg6IDBweDsiIHBvaW50cz0iNzkuNDYyIC0yMjEuMjE0IDk3LjYzMiAtMjg5Ljk5NCAzNi40NDIgLTE5OC44ODQgNzkuNDYyIC0yMjEuMjE0IiBjbGFzcz0iY2xzLTg1Ii8+JiN4YTsgIDxwb2x5Z29uIHN0eWxlPSJmaWxsOiByZ2IoMjUwLCAyNDAsIDIwMik7IHN0cm9rZS13aWR0aDogMHB4OyIgcG9pbnRzPSItMC40MDggLTEyOS45NzQgNzUuNjMyIC0yMTMuNDc0IDc5LjQ2MiAtMjIxLjIxNCAzNi40NDIgLTE5OC44ODQgLTAuNDA4IC0xMjkuOTc0IiBjbGFzcz0iY2xzLTgyIi8+JiN4YTsgIDxwb2x5Z29uIHN0eWxlPSJmaWxsOiByZ2IoMjU1LCAyMTcsIDE1Myk7IHN0cm9rZS13aWR0aDogMHB4OyIgcG9pbnRzPSIxNzEuNDkyIC0zMDkuNjY0IDE2Mi40MDIgLTI1MC4yMTQgNzkuNDYyIC0yMjEuMjE0IDE3MS40OTIgLTMwOS42NjQiIGNsYXNzPSJjbHMtODEiLz4mI3hhOyAgPHBvbHlnb24gc3R5bGU9ImZpbGw6IHVybCgnI2xpbmVhci1ncmFkaWVudC02Jyk7IHN0cm9rZS13aWR0aDogMHB4OyIgcG9pbnRzPSIyNzIuODkyIC0zMDkuNjY0IDEyNi42MTIgLTIwNy40OTQgNzkuNDYyIC0yMjEuMjE0IDI3Mi44OTIgLTMwOS42NjQiIGNsYXNzPSJjbHMtNTQiLz4mI3hhOyAgPHBvbHlnb24gc3R5bGU9ImZpbGw6IHVybCgnI2xpbmVhci1ncmFkaWVudC03Jyk7IHN0cm9rZS13aWR0aDogMHB4OyIgcG9pbnRzPSIxMjguOTEyIC0yMDkuNDg0IDEwOC41MjIgLTE3Ni45MjQgNDguNzg3IC0xMzcuNjU4IDEyOC45MTIgLTIwOS40ODQiIGNsYXNzPSJjbHMtNTIiLz4mI3hhOyAgPHBvbHlnb24gc3R5bGU9ImZpbGw6IHVybCgnI2xpbmVhci1ncmFkaWVudC04Jyk7IHN0cm9rZS13aWR0aDogMHB4OyIgcG9pbnRzPSItMjUuMTg4IDY2LjY4NiA1LjgwMiAtMTAuODM0IDAuNzMyIC0yNC4zODQgLTY2LjYyOCAxMjAuMDM2IC0yMi41NzggODAuNzE2IC0yNS4xODggNjYuNjg2IiBjbGFzcz0iY2xzLTUwIi8+JiN4YTsgIDxwb2x5bGluZSBzdHlsZT0iZmlsbDogcmdiKDI1MCwgMjQwLCAyMDIpOyBzdHJva2Utd2lkdGg6IDBweDsiIHBvaW50cz0iNDguOTcyIC0xMzcuOTk2IC0xNS4wODggOS41NDYgLTIyLjc3OCA1OC4yMjYgLTUuMjI4IC0xMS41OTQgMTEzLjQ5MiAtMTg2LjgxNCIgY2xhc3M9ImNscy04MiIvPiYjeGE7ICA8cG9seWdvbiBzdHlsZT0iZmlsbDogcmdiKDI1NSwgMTA2LCAzOCk7IHN0cm9rZS13aWR0aDogMHB4OyIgcG9pbnRzPSIxMzIuMTYyIC0yMDcuNDk0IDIxOS41NzIgLTI1MC4yMTQgMjcyLjg5MiAtMzA5LjY2NCAxMjYuNjEyIC0yMDcuNDk0IDEzMi4xNjIgLTIwNy40OTQiIGNsYXNzPSJjbHMtNzUiLz4mI3hhOyAgPHBvbHlnb24gc3R5bGU9ImZpbGw6IHVybCgnI2xpbmVhci1ncmFkaWVudC05Jyk7IHN0cm9rZS13aWR0aDogMHB4OyIgcG9pbnRzPSI1LjgwMiAtMTAuODM0IDg2LjA5MiAtMTIyLjEwNCAxMjMuMzkyIC0xNzQuNTM0IDIxOS41NzIgLTI1MC4yMTQgMTI2LjYxMiAtMjA3LjQ5NCAtMC4zNzggLTE4LjY3NCA1LjgwMiAtMTAuODM0IiBjbGFzcz0iY2xzLTUxIi8+JiN4YTsgIDxwb2x5Z29uIHN0eWxlPSJmaWxsOiB1cmwoJyNsaW5lYXItZ3JhZGllbnQtMTAnKTsgc3Ryb2tlLXdpZHRoOiAwcHg7IiBwb2ludHM9IjEzLjE2MiAtMi40MjQgLTI1LjE4OCA2Ni42ODYgNS44MDIgLTEwLjgzNCAxMy4xNjIgLTIuNDI0IiBjbGFzcz0iY2xzLTE4Ii8+JiN4YTsgIDxwb2x5Z29uIHN0eWxlPSJmaWxsOiB1cmwoJyNsaW5lYXItZ3JhZGllbnQtMTEnKTsgc3Ryb2tlLXdpZHRoOiAwcHg7IiBwb2ludHM9IjE1My43OTIgLTE1OS40NzQgMTEzLjQ5MiAtODMuODI0IDEzLjE2MiAtMi40MjQgNS44MDIgLTEwLjgzNCA4OC40NTggLTEyNy43MTcgMTUzLjc5MiAtMTU5LjQ3NCIgY2xhc3M9ImNscy0xNSIvPiYjeGE7ICA8cG9seWdvbiBzdHlsZT0iZmlsbDogdXJsKCcjbGluZWFyLWdyYWRpZW50LTEyJyk7IHN0cm9rZS13aWR0aDogMHB4OyIgcG9pbnRzPSIxODAuNjUyIC0xNTUuMDk0IDEzNS44NDIgLTEzNC4wNTQgMTUxLjc3MiAtMTU5LjQ3NCAyMDguMTQyIC0xOTEuNjg0IDE4MC42NTIgLTE1NS4wOTQiIGNsYXNzPSJjbHMtMTYiLz4mI3hhOyAgPHBvbHlnb24gc3R5bGU9ImZpbGw6IHVybCgnI2xpbmVhci1ncmFkaWVudC0xMycpOyBzdHJva2Utd2lkdGg6IDBweDsiIHBvaW50cz0iMTQ5LjI5MiAtMTEzLjEzNCAxMTEuMDMyIC05MS4yNDQgMTM1Ljg0MiAtMTM0LjA1NCAxODAuNjUyIC0xNTUuMDk0IDE0OS4yOTIgLTExMy4xMzQiIGNsYXNzPSJjbHMtMTciLz4mI3hhOyAgPHBvbHlnb24gc3R5bGU9ImZpbGw6IHJnYigyNTUsIDIyNCwgMTU5KTsgc3Ryb2tlLXdpZHRoOiAwcHg7IiBwb2ludHM9Ijg4LjMwMiAtMTI3LjU1NCAxMjMuMzkyIC0xNzQuNTM0IDIxOS41NzIgLTI1MC4yMTQgMzI3LjM5MiAtMjg3LjcwNCAzNTEuNTIyIC0yODkuOTk0IDIyOS4xODIgLTIxOC43MTQgODguMzAyIC0xMjcuNTU0IiBjbGFzcz0iY2xzLTg5Ii8+JiN4YTsgIDxwb2x5Z29uIHN0eWxlPSJmaWxsOiByZ2IoMjU1LCAwLCA4Myk7IHN0cm9rZS13aWR0aDogMHB4OyIgcG9pbnRzPSIyMDEuNDEyIC0xODIuMTg0IDIxMS45NjIgLTE5Ny4wODQgMjI1LjcxOCAtMjE2LjQ1NCA4OC40MjYgLTEyNy43NDMgMjAxLjQxMiAtMTgyLjE4NCIgY2xhc3M9ImNscy04NSIvPiYjeGE7ICA8cG9seWdvbiBzdHlsZT0iZmlsbDogcmdiKDI1NSwgMTA2LCAzOCk7IHN0cm9rZS13aWR0aDogMHB4OyIgcG9pbnRzPSIzMDYuMjIyIC0yNDYuNjU0IDIxMS45NjIgLTE5Ny4wODQgMjI1LjUyNCAtMjE2LjQ3IDM0NS41OTIgLTI4OS45OTQgMzUxLjUyMiAtMjg5Ljk5NCAzMDYuMjIyIC0yNDYuNjU0IiBjbGFzcz0iY2xzLTc1Ii8+JiN4YTsgIDxwb2x5Z29uIHN0eWxlPSJmaWxsOiB1cmwoJyNsaW5lYXItZ3JhZGllbnQtMTQnKTsgc3Ryb2tlLXdpZHRoOiAwcHg7IiBwb2ludHM9IjguOTMyIDMyLjcyNiA3NS42MzIgLTU3LjIyNCA5OC4zMzIgLTc5LjcxNCA3NS42MzIgLTM4LjQ4NCA4LjkzMiAzMi43MjYiIGNsYXNzPSJjbHMtMjYiLz4mI3hhOyAgPHBvbHlnb24gc3R5bGU9ImZpbGw6IHVybCgnI2xpbmVhci1ncmFkaWVudC0xNScpOyBzdHJva2Utd2lkdGg6IDBweDsiIHBvaW50cz0iMTE1LjY3MiAtNzEuNzQ0IDI1NS4wNzIgLTE3NC41MzQgMTgwLjY1MiAtMTU1LjA5NCAxMTQuMjExIC03MC4yODYiIGNsYXNzPSJjbHMtMjIiLz4mI3hhOyAgPHBvbHlnb24gc3R5bGU9ImZpbGw6IHJnYigyNTUsIDIxNywgMTUzKTsgc3Ryb2tlLXdpZHRoOiAwcHg7IiBwb2ludHM9IjIxMS45NjIgLTE5Ny4wODQgMTgwLjY1MiAtMTU1LjA5NCAzNDYuOTkyIC0yMjcuNDc0IDQxNS45MzIgLTI0NC40NDQgNDE5LjU2MiAtMjQ3LjczNCAzNzQuMjEyIC0yNDcuNzM0IDIxMS45NjIgLTE5Ny4wODQiIGNsYXNzPSJjbHMtODEiLz4mI3hhOyAgPHBvbHlnb24gc3R5bGU9ImZpbGw6IHJnYigyNTUsIDAsIDEwNSk7IHN0cm9rZS13aWR0aDogMHB4OyIgcG9pbnRzPSIyNTUuMDcyIC0xNzQuNTM0IDMxNy45NjIgLTE5MC4yNzQgNDE1LjkzMiAtMjQ0LjQ0NCAzNDYuOTkyIC0yMjcuNDc0IDE3OS4wMDIgLTE1NC4zMjQgMjU1LjA3MiAtMTc0LjUzNCIgY2xhc3M9ImNscy04NiIvPiYjeGE7ICA8cG9seWdvbiBzdHlsZT0iZmlsbDogcmdiKDI1MCwgMjQwLCAyMDIpOyBzdHJva2Utd2lkdGg6IDBweDsiIHBvaW50cz0iMjQ1LjI5MiAtMTY3LjMzNCAyOTMuNzcyIC0xNDMuMDk0IDI2My4zNzIgLTEyOS40NDQgMTQwLjIwMiAtODkuODM0IDI0NS4yOTIgLTE2Ny4zMzQiIGNsYXNzPSJjbHMtODIiLz4mI3hhOyAgPHBvbHlnb24gc3R5bGU9ImZpbGw6IHJnYigyNTUsIDIxNywgMTUzKTsgc3Ryb2tlLXdpZHRoOiAwcHg7IiBwb2ludHM9IjI1NS4wNzIgLTE3NC41MzQgMjQ1LjI5MiAtMTY3LjMzNCAyOTMuNzcyIC0xNDMuMDk0IDM1Ni40MDIgLTE2NS41OTQgMjk1LjgyMiAtMTg0LjczNCAyNTUuMDcyIC0xNzQuNTM0IiBjbGFzcz0iY2xzLTgxIi8+JiN4YTsgIDxwb2x5Z29uIHN0eWxlPSJmaWxsOiB1cmwoJyNsaW5lYXItZ3JhZGllbnQtMTYnKTsgc3Ryb2tlLXdpZHRoOiAwcHg7IiBwb2ludHM9IjMzMS44ODIgLTE5NC4zNzQgNDMxLjQwMiAtMjA1LjExNCA0OTEuNDAyIC0xOTguMjI0IDQ4My40OTIgLTE5NC4zNzQgNDM4LjQ5MiAtMTg4LjI5NCAzNTYuNDAyIC0xNjUuNTk0IDI5NS44MjIgLTE4NC43MzQgMzMxLjg4MiAtMTk0LjM3NCIgY2xhc3M9ImNscy0yMCIvPiYjeGE7ICA8cG9seWdvbiBzdHlsZT0iZmlsbDogdXJsKCcjbGluZWFyLWdyYWRpZW50LTE3Jyk7IHN0cm9rZS13aWR0aDogMHB4OyIgcG9pbnRzPSI0MzIuNzUyIC0xNjcuMzM0IDM1Ni40MDIgLTE2NS41OTQgNDM4LjQ5MiAtMTg4LjI5NCA0OTEuNDAyIC0xOTguMjI0IDQzMi43NTIgLTE2Ny4zMzQiIGNsYXNzPSJjbHMtMTkiLz4mI3hhOyAgPHBvbHlnb24gc3R5bGU9ImZpbGw6IHJnYigyNTUsIDExMSwgNDApOyBzdHJva2Utd2lkdGg6IDBweDsiIHBvaW50cz0iMjkzLjc3MiAtMTQzLjA5NCAzMDUuMzIxIC0xMzYuOCA0MzIuNzUyIC0xNjcuMzM0IDM1Ni40MDIgLTE2NS41OTQgMjkzLjc3MiAtMTQzLjA5NCIgY2xhc3M9ImNscy03MyIvPiYjeGE7ICA8cG9seWdvbiBzdHlsZT0iZmlsbDogdXJsKCcjbGluZWFyLWdyYWRpZW50LTE4Jyk7IHN0cm9rZS13aWR0aDogMHB4OyIgcG9pbnRzPSIxMy4xNjIgLTIuNDI0IC0yNS4xODggNjYuNjg2IC0yMi41NzggODAuNzE2IDguOTMyIDMyLjcyNiA3Ny45NTIgLTU5LjUyNCAxMy4xNjIgLTIuNDI0IiBjbGFzcz0iY2xzLTI1Ii8+JiN4YTsgIDxwb2x5Z29uIHN0eWxlPSJmaWxsOiByZ2IoNywgMjQsIDUzKTsgc3Ryb2tlLXdpZHRoOiAwcHg7IiBwb2ludHM9IjMzLjg4MiAzMi43MjYgLTIyLjU3OCA4MC43MTYgOC45MzIgMzIuNzI2IDc1LjYzMiAtMzguNDg0IDc5LjQ2MiAtMzQuMDg0IDUxLjg2MiAxNy4xNzYgMzMuODgyIDMyLjcyNiIgY2xhc3M9ImNscy01OSIvPiYjeGE7ICA8cG9seWdvbiBzdHlsZT0iZmlsbDogdXJsKCcjbGluZWFyLWdyYWRpZW50LTE5Jyk7IHN0cm9rZS13aWR0aDogMHB4OyIgcG9pbnRzPSIxNDkuMjkyIC0xMTMuMTM0IDExMC40NjIgLTY1LjcxNCA3OS40NjIgLTM0LjA4NCA3NS42MzIgLTM4LjQ4NCA5OC4zMzIgLTc5LjcxNCAxMTEuMDMyIC05MS4yNDQgMTQ5LjI5MiAtMTEzLjEzNCIgY2xhc3M9ImNscy0yMSIvPiYjeGE7ICA8cG9seWdvbiBzdHlsZT0iZmlsbDogcmdiKDIzOCwgNywgODIpOyBzdHJva2Utd2lkdGg6IDBweDsiIHBvaW50cz0iNTQuMDgyIDEzLjA0NiAxMjQuODgyIC02MS40MjQgMTQwLjIwMiAtODkuODM0IDExNS42NzIgLTcxLjc0NCA3OS40NjIgLTM0LjA4NCA1NC4wODIgMTMuMDQ2IiBjbGFzcz0iY2xzLTc5Ii8+JiN4YTsgIDxwb2x5Z29uIHN0eWxlPSJmaWxsOiB1cmwoJyNsaW5lYXItZ3JhZGllbnQtMjAnKTsgc3Ryb2tlLXdpZHRoOiAwcHg7IiBwb2ludHM9IjI2My4zNzIgLTEyOS40NDQgNTQuMDgyIDEzLjA0NiAxMjYuNDE1IC02NC4yODUgMTQwLjIwMiAtODkuODM0IDI2My4zNzIgLTEyOS40NDQiIGNsYXNzPSJjbHMtMjgiLz4mI3hhOyAgPHBvbHlnb24gc3R5bGU9ImZpbGw6IHVybCgnI2xpbmVhci1ncmFkaWVudC0yMScpOyBzdHJva2Utd2lkdGg6IDBweDsiIHBvaW50cz0iMjkzLjc3MiAtMTQzLjA5NCAzMDUuNDY4IC0xMzYuODQ3IDI2MS45NTIgLTEwMi44MjQgMTk1LjA4MiAtNzkuNzE0IDE5NS4wODIgLTgyLjk1NCAyNjMuMzcyIC0xMjkuNDQ0IDI5My43NzIgLTE0My4wOTQiIGNsYXNzPSJjbHMtMjQiLz4mI3hhOyAgPHBvbHlnb24gc3R5bGU9ImZpbGw6IHJnYig3LCAyNCwgNTMpOyBzdHJva2Utd2lkdGg6IDBweDsiIHBvaW50cz0iMzMuODgyIDMyLjcyNiA1NC4wODIgMTMuMDQ2IDE5NS4wODIgLTgyLjk1NCAxOTUuMDgyIC03Ni42ODQgNzAuNTAyIDEwLjU5NiAzMy44ODIgMzIuNzI2IiBjbGFzcz0iY2xzLTU5Ii8+JiN4YTsgIDxwb2x5Z29uIHN0eWxlPSJmaWxsOiB1cmwoJyNsaW5lYXItZ3JhZGllbnQtMjInKTsgc3Ryb2tlLXdpZHRoOiAwcHg7IiBwb2ludHM9IjI3MC40MzIgLTg1Ljg1NCAzMTAuMTUyIC0xMDUuNTM0IDI2MS45NTIgLTEwMi44MjQgMTk1LjA4MiAtNzkuNzE0IDcwLjUwMiAxMC41OTYgMjcwLjQzMiAtODUuODU0IiBjbGFzcz0iY2xzLTI3Ii8+JiN4YTsgIDxwb2x5Z29uIHN0eWxlPSJmaWxsOiByZ2IoMjU1LCAyMTcsIDE1Myk7IHN0cm9rZS13aWR0aDogMHB4OyIgcG9pbnRzPSI2OS40ODIgMTcuNTA2IDMzLjg4MiAzMi43MjYgNzAuNTAyIDEwLjU5NiAyNzAuNDMyIC04NS44NTQgMzEwLjE1MiAtODcuNjQ0IDQxMS40MjIgLTYzLjk2NCAzMzQuNTkyIC02MC4xMDQgMjQ0LjI3MiAtMzkuNzM0IDY5LjQ4MiAxNy41MDYiIGNsYXNzPSJjbHMtODEiLz4mI3hhOyAgPHBvbHlnb24gc3R5bGU9ImZpbGw6IHVybCgnI2xpbmVhci1ncmFkaWVudC0yMycpOyBzdHJva2Utd2lkdGg6IDBweDsiIHBvaW50cz0iMjY1LjIzMiAtMjIuMTg0IDI5OC41ODIgLTUxLjk4NCAyNDQuODEyIC00MS44MDQgNjkuNDgyIDE3LjUwNiAxNDkuMjkyIDAuNzA2IDI2NS4yMzIgLTIyLjE4NCIgY2xhc3M9ImNscy0yMyIvPiYjeGE7ICA8cG9seWdvbiBzdHlsZT0iZmlsbDogcmdiKDcsIDI0LCA1Myk7IHN0cm9rZS13aWR0aDogMHB4OyIgcG9pbnRzPSIyNjYuMzQyIC0yMy40OTQgMjQ4LjQ0MiAtMi40MjQgMTQ1LjMzMiA0LjMxNiAxNDYuMTMyIDEuMzU2IDI2Ni4zNDIgLTIzLjQ5NCIgY2xhc3M9ImNscy01OSIvPiYjeGE7ICA8cG9seWdvbiBzdHlsZT0iZmlsbDogdXJsKCcjbGluZWFyLWdyYWRpZW50LTI0Jyk7IHN0cm9rZS13aWR0aDogMHB4OyIgcG9pbnRzPSIxNDkuMjkyIDAuNzA2IDExMi40NjIgMzQuMjk2IDI0Ny44MDIgNjkuMDU2IDI5My43NzIgNzMuMjQ2IDE0OS4yOTIgMC43MDYiIGNsYXNzPSJjbHMtMzAiLz4mI3hhOyAgPHBvbHlnb24gc3R5bGU9ImZpbGw6IHVybCgnI2xpbmVhci1ncmFkaWVudC0yNScpOyBzdHJva2Utd2lkdGg6IDBweDsiIHBvaW50cz0iMzEwLjE1MiAxOC4xNjYgMjQ4LjQ0MiAtMi40MjQgMTQ5LjI5MiAwLjcwNiAxNzYuNTYyIDE4LjE2NiAzMTAuMTUyIDE4LjE2NiIgY2xhc3M9ImNscy0xNCIvPiYjeGE7ICA8cG9seWdvbiBzdHlsZT0iZmlsbDogdXJsKCcjbGluZWFyLWdyYWRpZW50LTI2Jyk7IHN0cm9rZS13aWR0aDogMHB4OyIgcG9pbnRzPSIzMTguNDUyIDMuNTg2IDI0OC40NDIgLTIuNDI0IDI2Ni4zNDIgLTIzLjQ5NCAzMTguNDUyIDMuNTg2IiBjbGFzcz0iY2xzLTMxIi8+JiN4YTsgIDxwb2x5Z29uIHN0eWxlPSJmaWxsOiByZ2IoMTEzLCA4MiwgMTUyKTsgc3Ryb2tlLXdpZHRoOiAwcHg7IiBwb2ludHM9IjMzMy40ODIgMjkuMTU2IDM5NS41MTIgODMuNzI2IDQ3MS42MDIgMTMxLjE1NiA0MTQuMDUyIDUwLjI2NiAzMTguNDUyIDMuNTg2IDI0OC40NDIgLTIuNDI0IDMzMy40ODIgMjkuMTU2IiBjbGFzcz0iY2xzLTU2Ii8+JiN4YTsgIDxwb2x5Z29uIHN0eWxlPSJmaWxsOiB1cmwoJyNsaW5lYXItZ3JhZGllbnQtMjcnKTsgc3Ryb2tlLXdpZHRoOiAwcHg7IiBwb2ludHM9IjIzNy41MTIgMTA5LjA0NiAyOTYuODYyIDEzMC4yMDYgMjQ3LjgwMiA2OS4wNTYgMTcwLjIzNCA0OS4xNjMgMjM3LjUxMiAxMDkuMDQ2IiBjbGFzcz0iY2xzLTI5Ii8+JiN4YTsgIDxwb2x5Z29uIHN0eWxlPSJmaWxsOiByZ2IoMTg4LCAwLCA5Myk7IHN0cm9rZS13aWR0aDogMHB4OyIgcG9pbnRzPSIyNjYuMzQyIC0yMy40OTQgMzMxLjkzMiAtNTEuOTg0IDMzNC41OTIgLTYwLjEwNCAyOTguNTgyIC01MS45ODQgMjY2LjM0MiAtMjMuNDk0IiBjbGFzcz0iY2xzLTY5Ii8+JiN4YTsgIDxwb2x5Z29uIHN0eWxlPSJmaWxsOiByZ2IoMTg4LCAwLCA5Myk7IHN0cm9rZS13aWR0aDogMHB4OyIgcG9pbnRzPSI0NTkuMTcyIC01NS4xOTQgNDM4Ljc3NCAtNjUuNDM1IDMzNC41OTIgLTYwLjEwNCAzMzAuMzMyIC00OS4zMDQgNDU5LjE3MiAtNTUuMTk0IiBjbGFzcz0iY2xzLTY5Ii8+JiN4YTsgIDxwb2x5Z29uIHN0eWxlPSJmaWxsOiByZ2IoMjU1LCAyMDEsIDE0MSk7IHN0cm9rZS13aWR0aDogMHB4OyIgcG9pbnRzPSIzMDAuODUyIC0xMzQuMTk0IDI2MS45NTIgLTEwMi44MjQgMzQxLjM1MiAtMTAwLjEzNCA0MzguMjkyIC0xMDUuNTM0IDMwMC44NTIgLTEzNC4xOTQiIGNsYXNzPSJjbHMtNzgiLz4mI3hhOyAgPHBvbHlnb24gc3R5bGU9ImZpbGw6IHJnYigyNTAsIDI0MCwgMjAyKTsgc3Ryb2tlLXdpZHRoOiAwcHg7IiBwb2ludHM9IjUzOC45NzIgLTEzNC4wNTQgNDkxLjQwMiAtMTQ4LjE5NCA0MTUuOTMyIC0xNTcuMjA0IDMwOS4xNTIgLTEzOC45NTQgMzAwLjg1MiAtMTM0LjE5NCAzNTEuNTIyIC0xMjMuMTQ0IDUzOC45NzIgLTEzNC4wNTQiIGNsYXNzPSJjbHMtODIiLz4mI3hhOyAgPHBvbHlnb24gc3R5bGU9ImZpbGw6IHVybCgnI2xpbmVhci1ncmFkaWVudC0yOCcpOyBzdHJva2Utd2lkdGg6IDBweDsiIHBvaW50cz0iNDM4LjI5MiAtMTA1LjUzNCA1MzguOTcyIC0xMzQuMDU0IDM1MS41MjIgLTEyMy4xNDQgNDM4LjI5MiAtMTA1LjUzNCIgY2xhc3M9ImNscy0xMyIvPiYjeGE7ICA8cG9seWdvbiBzdHlsZT0iZmlsbDogcmdiKDI1MCwgMjQwLCAyMDIpOyBzdHJva2Utd2lkdGg6IDBweDsiIHBvaW50cz0iMzAxLjk0MiAtMTAxLjQ3NCAyNzAuNDMyIC04NS44NTQgMzEwLjE1MiAtODcuNjQ0IDQxMS40MjIgLTYzLjk2NCA0MjYuNzgyIC02NC40MjQgMzQ2LjM0MiAtMTAxLjQ3NCAzMDEuOTQyIC0xMDEuNDc0IiBjbGFzcz0iY2xzLTgyIi8+JiN4YTsgIDxwb2x5Z29uIHN0eWxlPSJmaWxsOiByZ2IoMjU1LCAwLCA4Myk7IHN0cm9rZS13aWR0aDogMHB4OyIgcG9pbnRzPSI0MzguMjkyIC0xMDUuNTM0IDUxOC40OTIgLTYyLjEwNCA0MjYuNzgyIC02NC40MjQgMzQ2LjM0MiAtMTAxLjQ3NCA0MzguMjkyIC0xMDUuNTM0IiBjbGFzcz0iY2xzLTg1Ii8+JiN4YTsgIDxwYXRoIHN0eWxlPSJmaWxsOiB1cmwoJyNsaW5lYXItZ3JhZGllbnQtMjknKTsgc3Ryb2tlLXdpZHRoOiAwcHg7IiBkPSJNIDU3OS4yMzIgLTYyLjEwNCBMIDUxOC40OTIgLTYyLjEwNCBMIDQzOC4yOTIgLTEwNS41MzQgTCA0NTQuNTMyIC0xMDUuNTM0IEMgNDU0LjUzMiAtMTA1LjUzNCA1MzUuMjgyIC04Ny4wNTQgNTQxLjgxMiAtODUuNDM0IEMgNTQ4LjM0MiAtODMuODE0IDU3OS4yMjIgLTYyLjEwNCA1NzkuMjIyIC02Mi4xMDQgTCA1NzkuMjMyIC02Mi4xMDQgWiIgY2xhc3M9ImNscy00Ii8+JiN4YTsgIDxwb2x5Z29uIHN0eWxlPSJmaWxsOiByZ2IoMjU1LCAxNzYsIDI5KTsgc3Ryb2tlLXdpZHRoOiAwcHg7IiBwb2ludHM9IjU0Ni40NzIgLTQxLjgwNCA1NDEuNDUyIC0yNy40NjQgNDU5LjE3MiAtNTUuMTk0IDQzOS41MzIgLTY0LjQyNCA1MTguNDkyIC02Mi4xMDQgNTQ2LjQ3MiAtNDEuODA0IiBjbGFzcz0iY2xzLTgwIi8+JiN4YTsgIDxwYXRoIHN0eWxlPSJmaWxsOiB1cmwoJyNsaW5lYXItZ3JhZGllbnQtMzAnKTsgc3Ryb2tlLXdpZHRoOiAwcHg7IiBkPSJNIDM4Ny40NDIgLTQ1Ljk0NCBMIDYwNy41NzIgMTEzLjQyNiBDIDYwNy41NzIgMTEzLjQyNiA2MTAuMjUyIDEwOS40NzYgNjA3LjU3MiAxMDIuMTI2IEMgNjA0Ljg5MiA5NC43NzYgNTIxLjM2MiAtNS40MjQgNTIxLjM2MiAtNS40MjQgTCAzODcuNDQyIC00NS45NDQgWiIgY2xhc3M9ImNscy02Ii8+JiN4YTsgIDxwb2x5Z29uIHN0eWxlPSJmaWxsOiB1cmwoJyNsaW5lYXItZ3JhZGllbnQtMzEnKTsgc3Ryb2tlLXdpZHRoOiAwcHg7IiBwb2ludHM9IjU0MS40NTIgLTI3LjQ2NCA1MjEuMzYyIC01LjQyNCA2MDQuMjIyIDE4LjE2NiA1NDEuNDUyIC0yNy40NjQiIGNsYXNzPSJjbHMtNyIvPiYjeGE7ICA8cG9seWdvbiBzdHlsZT0iZmlsbDogcmdiKDI1NSwgMjAxLCAxNDEpOyBzdHJva2Utd2lkdGg6IDBweDsiIHBvaW50cz0iMzMxLjkzMiAtNTEuOTg0IDI2Ni4zNDIgLTIzLjQ5NCAyOTIuNTEyIC0xNy4yNDQgNDE2Ljc1MiAtNTMuMjU0IDMzMS45MzIgLTUxLjk4NCIgY2xhc3M9ImNscy03OCIvPiYjeGE7ICA8cG9seWdvbiBzdHlsZT0iZmlsbDogcmdiKDI1NSwgMjAxLCAxNDEpOyBzdHJva2Utd2lkdGg6IDBweDsiIHBvaW50cz0iNTQxLjQ1MiAtMjcuNDY0IDUyMS4zNjIgLTUuNDI0IDUyMS4zNjIgLTUuNDI0IDM4Ny40NDIgLTQ1Ljk0NCA0MTYuNzUyIC01My4yNTQgNDU1LjYyMiAtNTYuODY0IDU0MS40NTIgLTI3LjQ2NCIgY2xhc3M9ImNscy03OCIvPiYjeGE7ICA8cG9seWdvbiBzdHlsZT0iZmlsbDogdXJsKCcjbGluZWFyLWdyYWRpZW50LTMyJyk7IHN0cm9rZS13aWR0aDogMHB4OyIgcG9pbnRzPSI0MDYuNjkyIDAuNzA2IDM4Ny40NDIgLTQ1Ljk0NCAyOTIuNTEyIC0xNy4yNDQgNDA2LjY5MiAwLjcwNiIgY2xhc3M9ImNscy01Ii8+JiN4YTsgIDxwb2x5Z29uIHN0eWxlPSJmaWxsOiB1cmwoJyNsaW5lYXItZ3JhZGllbnQtMzMnKTsgc3Ryb2tlLXdpZHRoOiAwcHg7IiBwb2ludHM9IjUxMC42NzIgNDMuMjY2IDUzMy4wODIgODIuNDU2IDQwNi42OTIgMC43MDYgMzg3LjQ0MiAtNDUuOTQ0IDUxMC42NzIgNDMuMjY2IiBjbGFzcz0iY2xzLTMiLz4mI3hhOyAgPHBvbHlnb24gc3R5bGU9ImZpbGw6IHVybCgnI2xpbmVhci1ncmFkaWVudC0zNCcpOyBzdHJva2Utd2lkdGg6IDBweDsiIHBvaW50cz0iMTc2LjU2MiAxOC4xNjYgMjEwLjg0MiAxOC4yNTYgMjkzLjc3MiA3My4yNDYgMTc2LjU2MiAxOC4xNjYiIGNsYXNzPSJjbHMtMTAiLz4mI3hhOyAgPHBvbHlnb24gc3R5bGU9ImZpbGw6IHVybCgnI2xpbmVhci1ncmFkaWVudC0zNScpOyBzdHJva2Utd2lkdGg6IDBweDsiIHBvaW50cz0iMzIzLjQyMiA0Ny4zNTYgMjEwLjg0MiAxOC4yNTYgMjkzLjc3MiA3My4yNDYgMzMwLjMzMiAxMDQuNjM2IDQzMi45ODIgMTk5LjY4NiAzMjMuNDIyIDQ3LjM1NiIgY2xhc3M9ImNscy0xMiIvPiYjeGE7ICA8cG9seWdvbiBzdHlsZT0iZmlsbDogdXJsKCcjbGluZWFyLWdyYWRpZW50LTM2Jyk7IHN0cm9rZS13aWR0aDogMHB4OyIgcG9pbnRzPSIzMDMuODkyIDE4LjE2NiAzOTQuNjMyIDgzLjI3NiAzMjMuNDIyIDQ3LjM1NiAyMTAuODQyIDE4LjI1NiAzMDMuODkyIDE4LjE2NiIgY2xhc3M9ImNscy04Ii8+JiN4YTsgIDxwb2x5Z29uIHN0eWxlPSJmaWxsOiB1cmwoJyNsaW5lYXItZ3JhZGllbnQtMzcnKTsgc3Ryb2tlLXdpZHRoOiAwcHg7IiBwb2ludHM9IjMzMy40ODIgMjkuMTU2IDMzMi41MTIgNDAuNDA2IDMwMy44OTIgMTguMTY2IDMzMy40ODIgMjkuMTU2IiBjbGFzcz0iY2xzLTExIi8+JiN4YTsgIDxwb2x5Z29uIHN0eWxlPSJmaWxsOiByZ2IoNywgMjQsIDUzKTsgc3Ryb2tlLXdpZHRoOiAwcHg7IiBwb2ludHM9IjM5NS41MTIgODMuNzI2IDM3MS41NDIgNzAuNzI2IDMzMi41MTIgNDAuNDA2IDMzMy40ODIgMjkuMTU2IDM5NS41MTIgODMuNzI2IiBjbGFzcz0iY2xzLTU5Ii8+JiN4YTsgIDxwb2x5Z29uIHN0eWxlPSJmaWxsOiB1cmwoJyNsaW5lYXItZ3JhZGllbnQtMzgnKTsgc3Ryb2tlLXdpZHRoOiAwcHg7IiBwb2ludHM9IjI2Ni4zNDIgLTIzLjQ5NCA0MDYuNjkyIDAuNzA2IDQ1Mi44MTIgNzUuODI2IDI2Ni4zNDIgLTIzLjQ5NCIgY2xhc3M9ImNscy0yIi8+JiN4YTsgIDxwb2x5Z29uIHN0eWxlPSJmaWxsOiByZ2IoMjU1LCA5NiwgNDEpOyBzdHJva2Utd2lkdGg6IDBweDsiIHBvaW50cz0iMzIzLjQyMiA0Ny4zNTYgNDMyLjk4MiAxOTkuNjg2IDM5NS41MTIgODMuNzI2IDMyMy40MjIgNDcuMzU2IiBjbGFzcz0iY2xzLTc0Ii8+JiN4YTsgIDxwb2x5Z29uIHN0eWxlPSJmaWxsOiB1cmwoJyNsaW5lYXItZ3JhZGllbnQtMzknKTsgc3Ryb2tlLXdpZHRoOiAwcHg7IiBwb2ludHM9IjQ4Ny41NzIgMjQxLjM4NiAzOTUuNTEyIDgzLjcyNiA0ODEuNTgyIDEzNS43MDYgNDg3LjU3MiAyNDEuMzg2IiBjbGFzcz0iY2xzLTkiLz4mI3hhOyAgPHBvbHlnb24gc3R5bGU9ImZpbGw6IHVybCgnI2xpbmVhci1ncmFkaWVudC00MCcpOyBzdHJva2Utd2lkdGg6IDBweDsiIHBvaW50cz0iMzY0LjAxMiAxNDEuMTE2IDQwNy40MzIgMjM5LjgxNiA0MzIuOTgyIDE5OS42ODYgMzcyLjk4MiAxMTYuMjY2IDM2NC4wMTIgMTQxLjExNiIgY2xhc3M9ImNscy00MCIvPiYjeGE7ICA8cG9seWdvbiBzdHlsZT0iZmlsbDogdXJsKCcjbGluZWFyLWdyYWRpZW50LTQxJyk7IHN0cm9rZS13aWR0aDogMHB4OyIgcG9pbnRzPSIzNDIuNzcyIDIyNi4yODYgMzc4LjIwMiAyNzguMjg2IDM0OC42MTIgMzcwLjg0NiAzNDAuODQyIDM3OC4wNDYgMzQyLjc3MiAyMjYuMjg2IiBjbGFzcz0iY2xzLTQxIi8+JiN4YTsgIDxwb2x5Z29uIHN0eWxlPSJmaWxsOiByZ2IoNTEsIDQwLCAxMTYpOyBzdHJva2Utd2lkdGg6IDBweDsiIHBvaW50cz0iMjk2LjIzMiAxMTQuNjc2IDMyMS40MTIgMjg4LjEyNiAyODUuNjEyIDI3NC4xMTYgMjk2LjIzMiAxMTQuNjc2IiBjbGFzcz0iY2xzLTY4Ii8+JiN4YTsgIDxwb2x5Z29uIHN0eWxlPSJmaWxsOiByZ2IoMCwgNjksIDE3OCk7IHN0cm9rZS13aWR0aDogMHB4OyIgcG9pbnRzPSIyMzcuNTEyIDEwOS4wNDYgMjY2LjM0MiAxNDcuMDg2IDI1Ni42ODIgMTczLjMyNiAyMzcuNTEyIDEwOS4wNDYiIGNsYXNzPSJjbHMtOTMiLz4mI3hhOyAgPHBvbHlnb24gc3R5bGU9ImZpbGw6IHJnYigyNTAsIDAsIDk3KTsgc3Ryb2tlLXdpZHRoOiAwcHg7IiBwb2ludHM9IjUzMy4wODIgODIuNDU2IDUyMi44MDIgMTQxLjExNiA1NTkuODkyIDExNi44NTYgNTMzLjA4MiA4Mi40NTYiIGNsYXNzPSJjbHMtNTUiLz4mI3hhOyAgPHBvbHlnb24gc3R5bGU9ImZpbGw6IHJnYigyNTUsIDI3LCA3OCk7IHN0cm9rZS13aWR0aDogMHB4OyIgcG9pbnRzPSI0MDYuNjkyIDAuNzA2IDQ1Mi44MTIgNzUuODI2IDUyMi44MDIgMTQxLjExNiA1MzMuMDgyIDgyLjQ1NiA0MDYuNjkyIDAuNzA2IiBjbGFzcz0iY2xzLTgzIi8+JiN4YTsgIDxwb2x5Z29uIHN0eWxlPSJmaWxsOiByZ2IoNywgMjQsIDUzKTsgc3Ryb2tlLXdpZHRoOiAwcHg7IiBwb2ludHM9IjQxOS42ODIgNTguMTc2IDQ1Mi44MTIgNzUuODI2IDQ4MC4xOTIgMTM3LjE3NiA0NzEuNjAyIDEzMS4xNTYgNDE5LjY4MiA1OC4xNzYiIGNsYXNzPSJjbHMtNTkiLz4mI3hhOyAgPHBvbHlnb24gc3R5bGU9ImZpbGw6IHJnYigyNTUsIDIxNywgMTUzKTsgc3Ryb2tlLXdpZHRoOiAwcHg7IiBwb2ludHM9IjU0Ni40NzIgLTQxLjgwNCA2MDQuMjIyIDE4LjE2NiA1NDEuNDUyIC0yNy40NjQgNTQ2LjQ3MiAtNDEuODA0IiBjbGFzcz0iY2xzLTgxIi8+JiN4YTsgIDxwb2x5Z29uIHN0eWxlPSJmaWxsOiByZ2IoMjI3LCAwLCAxMDMpOyBzdHJva2Utd2lkdGg6IDBweDsiIHBvaW50cz0iNTEwLjY3MiA0My4yNjYgNTMzLjA4MiA4Mi40NTYgNjA3LjU3MiAxMTMuNDI2IDUxMC42NzIgNDMuMjY2IiBjbGFzcz0iY2xzLTY0Ii8+JiN4YTsgIDxwYXRoIHN0eWxlPSJmaWxsOiB1cmwoJyNsaW5lYXItZ3JhZGllbnQtNDInKTsgc3Ryb2tlLXdpZHRoOiAwcHg7IiBkPSJNIDU1OS44OTIgMTE2Ljg1NiBMIDU3MC4zNzIgMTM3LjE3NiBDIDU3MC4zNzIgMTM3LjE3NiA1OTYuNDEyIDE3MS45MDYgNTk1LjQwMiAxNzYuNTM2IEMgNTk0LjM5MiAxODEuMTY2IDUyMi43OTIgMTQxLjEwNiA1MjIuNzkyIDE0MS4xMDYgTCA1NTkuODgyIDExNi44NDYgTCA1NTkuODkyIDExNi44NTYgWiIgY2xhc3M9ImNscy0zOCIvPiYjeGE7ICA8cG9seWdvbiBzdHlsZT0iZmlsbDogcmdiKDI1NSwgMjAxLCAxNDEpOyBzdHJva2Utd2lkdGg6IDBweDsiIHBvaW50cz0iNDUyLjgxMiA3NS44MjYgNDgwLjE5MiAxMzcuMTc2IDUyMi44MDIgMTQxLjExNiA0NTIuODEyIDc1LjgyNiIgY2xhc3M9ImNscy03OCIvPiYjeGE7ICA8cG9seWdvbiBzdHlsZT0iZmlsbDogcmdiKDIyNywgMCwgMTAzKTsgc3Ryb2tlLXdpZHRoOiAwcHg7IiBwb2ludHM9IjUxMi43MzIgMTk1LjY5NiA0NzEuNjAyIDEzMS4xNTYgNTIyLjgwMiAxNDEuMTE2IDUxMi43MzIgMTk1LjY5NiIgY2xhc3M9ImNscy02NCIvPiYjeGE7ICA8cG9seWdvbiBzdHlsZT0iZmlsbDogcmdiKDcsIDI0LCA1Myk7IHN0cm9rZS13aWR0aDogMHB4OyIgcG9pbnRzPSIyNTYuNjgyIDE3My4zMjYgMjg1LjY2MiAyNzMuMDA2IDI5My43NzIgMTk1LjY5NiAyNjYuMzQyIDE0Ny4wODYgMjU2LjY4MiAxNzMuMzI2IiBjbGFzcz0iY2xzLTU5Ii8+JiN4YTsgIDxwb2x5Z29uIHN0eWxlPSJmaWxsOiB1cmwoJyNsaW5lYXItZ3JhZGllbnQtNDMnKTsgc3Ryb2tlLXdpZHRoOiAwcHg7IiBwb2ludHM9IjI5Ni44NjIgMTI3LjQ2NiAzNDIuNzcyIDIyNi4yODYgMzIxLjQxMiAyODguMTI2IDI5Ni44NjIgMTI3LjQ2NiIgY2xhc3M9ImNscy0zOSIvPiYjeGE7ICA8cG9seWdvbiBzdHlsZT0iZmlsbDogdXJsKCcjbGluZWFyLWdyYWRpZW50LTQ0Jyk7IHN0cm9rZS13aWR0aDogMHB4OyIgcG9pbnRzPSIzNjAuMDIyIDE3MC44NzYgMzc4LjIwMiAyNzguMjg2IDM5Ny45MjIgMzI0LjY1OCA0MDcuNDMyIDIzOS44MTYgMzU3LjkxNyAxNjAuMjI4IiBjbGFzcz0iY2xzLTM0Ii8+JiN4YTsgIDxwb2x5Z29uIHN0eWxlPSJmaWxsOiB1cmwoJyNsaW5lYXItZ3JhZGllbnQtNDUnKTsgc3Ryb2tlLXdpZHRoOiAwcHg7IiBwb2ludHM9IjMxOS44MjIgMTAwLjY0NiAyOTYuODYyIDEzMC4yMDYgMzk0LjYzMiAyMjEuMjA2IDMxOS44MjIgMTAwLjY0NiIgY2xhc3M9ImNscy0zMiIvPiYjeGE7ICA8cG9seWdvbiBzdHlsZT0iZmlsbDogdXJsKCcjbGluZWFyLWdyYWRpZW50LTQ2Jyk7IHN0cm9rZS13aWR0aDogMHB4OyIgcG9pbnRzPSIyNDcuODAyIDY5LjA1NiAyOTYuODYyIDEzMC4yMDYgMzE5LjgyMiAxMDAuNjQ2IDI0Ny44MDIgNjkuMDU2IiBjbGFzcz0iY2xzLTMzIi8+JiN4YTsgIDxwb2x5Z29uIHN0eWxlPSJmaWxsOiByZ2IoNywgMjQsIDUzKTsgc3Ryb2tlLXdpZHRoOiAwcHg7IiBwb2ludHM9IjQwNy42NzUgMjQxLjMwOSAzMjAuMDA5IDEwMS40NTYgMzY1Ljg4NSAxMjIuMDk3IDQwNy42MzggMjQwLjk5MSIgY2xhc3M9ImNscy01OSIvPiYjeGE7ICA8cG9seWdvbiBzdHlsZT0iZmlsbDogcmdiKDI1MCwgMCwgOTcpOyBzdHJva2Utd2lkdGg6IDBweDsiIHBvaW50cz0iNDMyLjk4MiAxOTkuNjg2IDQwNy40MzIgMjM5LjgxNiA0NDguODUyIDMwNi4wMzYgNDMyLjk4MiAxOTkuNjg2IiBjbGFzcz0iY2xzLTU1Ii8+JiN4YTsgIDxwYXRoIGQ9Ik0gMzc4LjIwMiAyNzguMjg2IEMgMzc4LjIwMiAyNzguMjg2IDM5OC4yMjUgMzI1LjQ2NCAzOTguMTU1IDMyNS4wNDMgTCAzNDguNjEyIDM3MC44NDYgTCAzNzguMjAyIDI3OC4yODYgWiIgc3R5bGU9ImZpbGw6IHVybCgnI2xpbmVhci1ncmFkaWVudC00NycpOyBzdHJva2Utd2lkdGg6IDBweDsiIGNsYXNzPSJjbHMtMzciLz4mI3hhOyAgPHBvbHlnb24gc3R5bGU9ImZpbGw6IHVybCgnI2xpbmVhci1ncmFkaWVudC00OCcpOyBzdHJva2Utd2lkdGg6IDBweDsiIHBvaW50cz0iMzYwLjAyMiAxNzAuODc2IDM0Mi43NzIgMjI2LjI4NiAyOTUuMjY5IDEyOS4wNTkgMzYwLjAyMiAxNzAuODc2IiBjbGFzcz0iY2xzLTM1Ii8+JiN4YTsgIDxwb2x5Z29uIHN0eWxlPSJmaWxsOiByZ2IoMjU1LCAxMjMsIDk3KTsgc3Ryb2tlLXdpZHRoOiAwcHg7IiBwb2ludHM9IjM3OC4yMDIgMjc4LjI4NiAzNjAuMDIyIDE3MC44NzYgMzQyLjc3MiAyMjYuMjg2IDM3OC4yMDIgMjc4LjI4NiIgY2xhc3M9ImNscy03MiIvPiYjeGE7ICA8cG9seWdvbiBzdHlsZT0iZmlsbDogcmdiKDI1NSwgMjcsIDc4KTsgc3Ryb2tlLXdpZHRoOiAwcHg7IiBwb2ludHM9IjM5NS41MTIgODMuNzI2IDQ4Ny41NzIgMjQxLjM4NiA0MzIuOTgyIDE5OS42ODYgMzk1LjUxMiA4My43MjYiIGNsYXNzPSJjbHMtODMiLz4mI3hhOyAgPHBvbHlnb24gc3R5bGU9ImZpbGw6IHVybCgnI2xpbmVhci1ncmFkaWVudC00OScpOyBzdHJva2Utd2lkdGg6IDBweDsiIHBvaW50cz0iNDcxLjYwMiAxMzEuMTU2IDQ4Ny42MDkgMjQxLjM4NiA1MTIuNzExIDE5NS42MyA0NzEuNjAyIDEzMS4xNTYiIGNsYXNzPSJjbHMtMzYiLz4mI3hhOyAgPHBhdGggc3R5bGU9ImZpbGw6IHVybCgnI2xpbmVhci1ncmFkaWVudC01MCcpOyBzdHJva2Utd2lkdGg6IDBweDsiIGQ9Ik0gNTM2LjU0MiAzMDIuMTY2IEMgNTQwLjU4MiAzMDYuNTg2IDU0MS4zNDIgMzAyLjE2NiA1NDEuMzQyIDMwMi4xNjYgTCA1MTIuODExIDE5NS4zODMgTCA0ODcuNTYyIDI0MS4zNzYgQyA0ODcuNTYyIDI0MS4zNzYgNTMyLjQ5MiAyOTcuNzM2IDUzNi41MzIgMzAyLjE1NiBMIDUzNi41NDIgMzAyLjE2NiBaIiBjbGFzcz0iY2xzLTQ1Ii8+JiN4YTsgIDxwb2x5Z29uIHN0eWxlPSJmaWxsOiByZ2IoMTEzLCA4MiwgMTUyKTsgc3Ryb2tlLXdpZHRoOiAwcHg7IiBwb2ludHM9IjIzNy41MTIgMTA5LjA0NiAyOTMuNzcyIDE5NS42OTYgMjk2Ljg2MiAxMzAuMjA2IDIzNy41MTIgMTA5LjA0NiIgY2xhc3M9ImNscy01NiIvPiYjeGE7ICA8cG9seWdvbiBzdHlsZT0iZmlsbDogdXJsKCcjbGluZWFyLWdyYWRpZW50LTUxJyk7IHN0cm9rZS13aWR0aDogMHB4OyIgcG9pbnRzPSIyOTYuODYyIDcxLjE4NiAzNjkuMTAyIDEyMy41MTYgMjQ3LjgwMiA2OS4wNTYgMjk2Ljg2MiA3MS4xODYiIGNsYXNzPSJjbHMtNDMiLz4mI3hhOyAgPHBvbHlnb24gc3R5bGU9ImZpbGw6IHJnYigxMCwgMjQsIDM3KTsgc3Ryb2tlLXdpZHRoOiAwcHg7IiBwb2ludHM9IjIzNy41MTIgMTA5LjA0NiAyMjEuOTAyIDIxNC4wNzYgMTM4LjY2MiAxMTcuNjI2IDIzNy41MTIgMTA5LjA0NiIgY2xhc3M9ImNscy02MCIvPiYjeGE7ICA8cG9seWdvbiBzdHlsZT0iZmlsbDogdXJsKCcjbGluZWFyLWdyYWRpZW50LTUyJyk7IHN0cm9rZS13aWR0aDogMHB4OyIgcG9pbnRzPSItNjYuNjI4IDEyMC4wMzYgLTgyLjI3OCAtMzIuMzU0IC02MS42MzggLTk2LjE1NCAtNTAuNjI4IC04LjY4NCAtNjYuNjI4IDEyMC4wMzYiIGNsYXNzPSJjbHMtNDQiLz4mI3hhOyAgPHBvbHlnb24gc3R5bGU9ImZpbGw6IHJnYigyNTUsIDExOSwgMCk7IHN0cm9rZS13aWR0aDogMHB4OyIgcG9pbnRzPSItMTAyLjg1OCAtMjQuMTY0IC04Mi4wMTggLTI5Ljg0NCAtNDIuODY4IC0xNTcuMjA0IC0xMDIuODU4IC0yNC4xNjQiIGNsYXNzPSJjbHMtNzYiLz4mI3hhOyAgPHBvbHlnb24gc3R5bGU9ImZpbGw6IHVybCgnI2xpbmVhci1ncmFkaWVudC01MycpOyBzdHJva2Utd2lkdGg6IDBweDsiIHBvaW50cz0iMzMuODgyIDMyLjcyNiAxMTIuNDYyIDM0LjI5NiAxNDkuMjkyIDAuNzA2IDY5LjQ4MiAxNy41MDYgMzMuODgyIDMyLjcyNiIgY2xhc3M9ImNscy00MiIvPiYjeGE7ICA8cG9seWdvbiBzdHlsZT0iZmlsbDogcmdiKDI1NSwgMTM1LCAxMjQpOyBzdHJva2Utd2lkdGg6IDBweDsiIHBvaW50cz0iLTYuMjY4IC0xNzMuMTE0IDI3LjI4MSAtMjE2LjE2NiAxMC43MzIgLTI1NS40MDQgLTYuMjY4IC0xNzMuMTE0IiBjbGFzcz0iY2xzLTc3Ii8+JiN4YTsgIDxwb2x5Z29uIHN0eWxlPSJmaWxsOiByZ2IoMjU1LCAxNjYsIDApOyBzdHJva2Utd2lkdGg6IDBweDsiIHBvaW50cz0iMTcuNzcyIC0xNDAuMTc0IDguOTMyIC03Ny4yODQgNjkuNjcyIC0yMDEuNDE0IDE3Ljc3MiAtMTQwLjE3NCIgY2xhc3M9ImNscy04NCIvPiYjeGE7ICA8cG9seWdvbiBzdHlsZT0iZmlsbDogcmdiKDEzMiwgMTgzLCAyNTUpOyBzdHJva2Utd2lkdGg6IDBweDsiIHBvaW50cz0iMzYuNDQyIDg2LjExNiA0NC44NjIgMTI1Ljc1NiAtMjIuNTc4IDEyNS43NTYgMzYuNDQyIDg2LjExNiIgY2xhc3M9ImNscy02NiIvPiYjeGE7ICA8Y2lyY2xlIHN0eWxlPSJmaWxsOiByZ2IoMCwgMjgsIDc0KTsgc3Ryb2tlLXdpZHRoOiAwcHg7IiByPSIxOC40MyIgY3k9IjkzLjE0NiIgY3g9IjE4LjAxMiIgY2xhc3M9ImNscy05NiIvPiYjeGE7ICA8cG9seWdvbiBzdHlsZT0iZmlsbDogcmdiKDAsIDQ5LCAxMTYpOyBzdHJva2Utd2lkdGg6IDBweDsiIHBvaW50cz0iMjg1LjYxMiAyNzIuNDA2IDE5NC44ODIgMzYxLjAwNiAxMTYuOTIyIDQ0My44NTYgMjUzLjA3MiAzNTYuOTM2IDI4NS4xMDIgMjc0LjQyNiAyODUuNjEyIDI3Mi40MDYiIGNsYXNzPSJjbHMtOTAiLz4mI3hhOyAgPHBvbHlnb24gc3R5bGU9ImZpbGw6IHJnYig1MSwgNDAsIDExNik7IHN0cm9rZS13aWR0aDogMHB4OyIgcG9pbnRzPSIyMTcuNjkyIDQxNi45ODYgMjkzLjc3MiAzNjQuMjc2IDI4NS42MTIgMjcyLjQwNiAyODUuMTYyIDI3NC4wNzYgMjE3LjY5MiA0MTYuOTg2IiBjbGFzcz0iY2xzLTY4Ii8+JiN4YTsgIDxwb2x5Z29uIHN0eWxlPSJmaWxsOiByZ2IoMjU1LCAxMjMsIDk3KTsgc3Ryb2tlLXdpZHRoOiAwcHg7IiBwb2ludHM9IjMzNC41OTIgLTYwLjEwNCAyNzAuNDMyIC04NS44NTQgMzEwLjE1MiAtODcuNjQ0IDQxMS40MjIgLTYzLjk2NCAzMzQuNTkyIC02MC4xMDQiIGNsYXNzPSJjbHMtNzIiLz4mI3hhOyAgPHBvbHlnb24gc3R5bGU9ImZpbGw6IHJnYigyNTUsIDE2NiwgMCk7IHN0cm9rZS13aWR0aDogMHB4OyIgcG9pbnRzPSIyNDQuODEyIC00MS44MDQgMjcwLjQzMiAtODUuODU0IDMzNC41OTIgLTYwLjEwNCAyNDQuODEyIC00MS44MDQiIGNsYXNzPSJjbHMtODQiLz4mI3hhOyAgPHBvbHlnb24gc3R5bGU9ImZpbGw6IHVybCgnI2xpbmVhci1ncmFkaWVudC01NCcpOyBzdHJva2Utd2lkdGg6IDBweDsiIHBvaW50cz0iMTQ4LjIwMiAtMTAuODM0IDE3MS40OTIgLTM4LjExNCAyNzAuNDMyIC04NS44NTQgMjQ0LjgxMiAtNDEuODA0IDE0OC4yMDIgLTEwLjgzNCIgY2xhc3M9ImNscy00NiIvPiYjeGE7ICA8Y2lyY2xlIHN0eWxlPSJmaWxsOiByZ2IoMjUyLCAyNTIsIDI1Mik7IHN0cm9rZS13aWR0aDogMHB4OyIgcj0iMy43MiIgY3k9IjgzLjcyNiIgY3g9IjE2LjA1MiIgY2xhc3M9ImNscy04OCIvPiYjeGE7PC9zdmc+;" parent="1FbAa0HUl8JFI7gKUBUg-12" vertex="1">
          <mxGeometry x="4.746666666666668" y="4.88" width="30.506666666666664" height="30.24" as="geometry" />
        </mxCell>
        <mxCell id="1FbAa0HUl8JFI7gKUBUg-15" value="" style="endArrow=oval;dashed=1;html=1;rounded=0;entryX=0.5;entryY=1;entryDx=0;entryDy=0;exitX=0.5;exitY=0;exitDx=0;exitDy=0;strokeColor=#97D077;startArrow=oval;startFill=1;endFill=1;endSize=2;startSize=2;" parent="qbExKh2GQzYHgT6TWYTY-1" source="hM18RylwCYSOnlRyK38Z-21" target="1FbAa0HUl8JFI7gKUBUg-13" edge="1">
          <mxGeometry width="50" height="50" relative="1" as="geometry">
            <mxPoint x="486" y="368" as="sourcePoint" />
            <mxPoint x="410" y="319" as="targetPoint" />
          </mxGeometry>
        </mxCell>
        <mxCell id="1FbAa0HUl8JFI7gKUBUg-16" value="" style="endArrow=oval;dashed=1;html=1;rounded=0;entryX=0.5;entryY=1;entryDx=0;entryDy=0;exitX=0.5;exitY=0;exitDx=0;exitDy=0;strokeColor=#97D077;startArrow=oval;startFill=1;endFill=1;endSize=2;startSize=2;" parent="qbExKh2GQzYHgT6TWYTY-1" source="hM18RylwCYSOnlRyK38Z-12" target="1FbAa0HUl8JFI7gKUBUg-13" edge="1">
          <mxGeometry width="50" height="50" relative="1" as="geometry">
            <mxPoint x="482" y="371" as="sourcePoint" />
            <mxPoint x="456" y="324" as="targetPoint" />
          </mxGeometry>
        </mxCell>
        <mxCell id="1FbAa0HUl8JFI7gKUBUg-17" value="&lt;font&gt;&lt;span&gt;srl1&lt;/span&gt;&lt;/font&gt;" style="text;html=1;align=center;verticalAlign=middle;resizable=0;points=[];autosize=1;fontSize=8;fontFamily=Google Sans;fontColor=#001135;fontSource=https%3A%2F%2Ffonts.googleapis.com%2Fcss%3Ffamily%3DGoogle%2BSans;" parent="qbExKh2GQzYHgT6TWYTY-1" vertex="1">
          <mxGeometry x="405.5" y="392" width="30" height="22" as="geometry" />
        </mxCell>
        <mxCell id="1FbAa0HUl8JFI7gKUBUg-18" value="&lt;font&gt;&lt;span&gt;srl2&lt;/span&gt;&lt;/font&gt;" style="text;html=1;align=center;verticalAlign=middle;resizable=0;points=[];autosize=1;fontSize=8;fontFamily=Google Sans;fontColor=#001135;fontSource=https%3A%2F%2Ffonts.googleapis.com%2Fcss%3Ffamily%3DGoogle%2BSans;" parent="qbExKh2GQzYHgT6TWYTY-1" vertex="1">
          <mxGeometry x="461" y="391" width="31" height="22" as="geometry" />
        </mxCell>
        <mxCell id="I0rBNGoPx-aaEWD5s1-Z-1" value="" style="rounded=1;whiteSpace=wrap;html=1;strokeColor=none;arcSize=2;" vertex="1" parent="qbExKh2GQzYHgT6TWYTY-1">
          <mxGeometry x="431.58000000000004" y="213" width="38" height="22" as="geometry" />
        </mxCell>
        <mxCell id="I0rBNGoPx-aaEWD5s1-Z-2" value="" style="shape=image;editableCssRules=\.color;verticalLabelPosition=bottom;labelBackgroundColor=#ffffff;verticalAlign=top;aspect=fixed;imageAspect=0;image=data:image/svg+xml,PHN2ZyB4bWxucz0iaHR0cDovL3d3dy53My5vcmcvMjAwMC9zdmciIHhtbG5zOnhsaW5rPSJodHRwOi8vd3d3LnczLm9yZy8xOTk5L3hsaW5rIiB2aWV3Qm94PSIwIDAgMTMxIDgxIiBmaWxsPSIjZmZmIiBmaWxsLXJ1bGU9ImV2ZW5vZGQiIHN0cm9rZT0iIzAwMCIgc3Ryb2tlLWxpbmVjYXA9InJvdW5kIiBzdHJva2UtbGluZWpvaW49InJvdW5kIj48dXNlIHhsaW5rOmhyZWY9IiNBIiB4PSIuNSIgeT0iLjUiLz48c3ltYm9sIGlkPSJBIiBvdmVyZmxvdz0idmlzaWJsZSI+PHBhdGggY2xhc3M9ImNvbG9yIiBkPSJNMTE5LjA3OCA2Mi43MDNWNy4yNzVjMC0yLjc0Ni0yLjU0LTcuMjc1LTUuNTgtNy4yNzVIMTYuNDc1Yy0zLjA0IDAtNi4wOCA0LjUzLTYuMDggNy4yNzV2NTUuNDI3Qy0uNDk4IDc0LjI0NC4wMDQgNzQuMjQ0LjAwNCA3NC4yNDQuMDA0IDc3LjUxNiAzLjA0NCA4MCA2Ljg1MiA4MGgxMTYuM2MzLjgwOCAwIDYuODQ4LTIuNzQ3IDYuODQ4LTUuNzU2bC0xMC45MjItMTEuNTR6TTczLjk3NSA3NS4yMzdoLTIwLjI4Yy0xLjAwNCAwLTIuMDM3LS40OTctMi4wMzctLjk5M2wyLjI3My0zLjc3YzAtLjQ5Ny43NjctLjc2IDEuNzctLjc2SDcxLjkxYy43NjcgMCAxLjUzNS4yNjMgMS41MzUuNzZsMi41NCAzLjc3Yy4wMy43My0xLjAwNC45OTMtMi4wMDcuOTkzaDB6bTQwLjI5Mi0xMi43OThIMTUuMjA1VjcuNzcyYzAtMS4yNTYgMS4yNy0zLjAxIDIuNzc1LTMuMDFoOTMuNzVjMS41MzUgMCAyLjU0IDEuNzUzIDIuNTQgM1Y2Mi40NHoiIGZpbGw9IiMyYTMyODIiIHN0cm9rZT0ibm9uZSIvPjwvc3ltYm9sPjxzdHlsZSB0eXBlPSJ0ZXh0L2NzcyI+LmNvbG9yIHsgZmlsbDogcmdiKDAsIDE3LCA1Myk7IH0gPC9zdHlsZT48L3N2Zz4=;" vertex="1" parent="qbExKh2GQzYHgT6TWYTY-1">
          <mxGeometry x="425.58000000000004" y="211" width="49.89" height="30.85" as="geometry" />
        </mxCell>
        <mxCell id="I0rBNGoPx-aaEWD5s1-Z-3" value="&lt;font style=&quot;font-size: 12px;&quot;&gt;API client&lt;/font&gt;" style="text;html=1;align=center;verticalAlign=middle;resizable=0;points=[];autosize=1;fontSize=12;fontFamily=Google Sans;fontStyle=0;fontColor=#001135;fontSource=https%3A%2F%2Ffonts.googleapis.com%2Fcss%3Ffamily%3DGoogle%2BSans;" vertex="1" parent="qbExKh2GQzYHgT6TWYTY-1">
          <mxGeometry x="416.52" y="185.00000000000003" width="68" height="26" as="geometry" />
        </mxCell>
        <mxCell id="I0rBNGoPx-aaEWD5s1-Z-4" value="" style="shape=image;verticalLabelPosition=bottom;labelBackgroundColor=default;verticalAlign=top;aspect=fixed;imageAspect=0;image=data:image/png,iVBORw0KGgoAAAANSUhEUgAAACAAAAAgCAMAAABEpIrGAAAA6lBMVEUAWv8IX/9NjP8LYf/8/f9zpP////+bvv8FXf++1f8SZv/Z5/8mcv/t8/9BhP/6/P9lm/+Ntf8CXP+yzf8MYv+30P/Q4P8ebf8veP9rn//7/P/n7/83ff9HiP/w9f/2+f9Xkv8qdf/e6f/+/v9+q/8BWv8VZ//E2f+lxf8HXv+jw//G2v8WaP98qv/f6v8td/9Vkf/x9v9Kiv81ff/m7/9vov8dbf+XvP8EXf+70/8QZP/X5f8kcf9lnP/r8v8+gv9Chf/u9P/5+/8nc//a5/8TZv/A1v8GXv+ewP/4+v8ueP92pv/9/v9Rjv8gB2lPAAAAAW9yTlQBz6J3mgAAAAFzUkdCAK7OHOkAAADKSURBVDjLrdNJX0EBGIXxc7s8kspMk2RqooEGEUWpXOX7fx27Vt7fu3HW/+V5pA0s2HJAGIs7ABLbDiC54wBSuw5gb98BpDMOgGzOAeQLNigCUCqb4ODwCOD4xASqnAJUz0ygWh2g0WxZQOcXAFwGFtDVNQDtjgWkmwbA7Z0JdF8F6PZMoIdHgNiTCfRcAqD/YgEV8gAMhhZQLgvA68gC0jgN8PZuAk2mAB+BCfQ5AwhtoK9vB+hn/g+iKIoWa37w+xc6zS2DTaS9AgWAEyiBKbEgAAAAAElFTkSuQmCC;" vertex="1" parent="qbExKh2GQzYHgT6TWYTY-1">
          <mxGeometry x="444.03" y="217.5" width="13" height="13" as="geometry" />
        </mxCell>
        <mxCell id="y6VDCp-vgQQKF4TOGvhm-0" value="" style="endArrow=oval;dashed=1;html=1;rounded=0;exitX=0.5;exitY=0;exitDx=0;exitDy=0;strokeColor=#00C9FF;startArrow=oval;startFill=1;endFill=1;endSize=2;startSize=2;entryX=0.5;entryY=1;entryDx=0;entryDy=0;" edge="1" parent="qbExKh2GQzYHgT6TWYTY-1" source="1FbAa0HUl8JFI7gKUBUg-13" target="I0rBNGoPx-aaEWD5s1-Z-2">
          <mxGeometry width="50" height="50" relative="1" as="geometry">
            <mxPoint x="452.89" y="279" as="sourcePoint" />
            <mxPoint x="482.89" y="232" as="targetPoint" />
          </mxGeometry>
        </mxCell>
        <mxCell id="I0rBNGoPx-aaEWD5s1-Z-5" value="&lt;font style=&quot;font-size: 12px;&quot;&gt;OpenAPI&lt;/font&gt;" style="text;html=1;align=center;verticalAlign=middle;resizable=0;points=[];autosize=1;fontSize=12;fontFamily=Google Sans;fontStyle=0;fontColor=#001135;fontSource=https%3A%2F%2Ffonts.googleapis.com%2Fcss%3Ffamily%3DGoogle%2BSans;" vertex="1" parent="qbExKh2GQzYHgT6TWYTY-1">
          <mxGeometry x="387.5" y="247.00000000000003" width="66" height="26" as="geometry" />
        </mxCell>
        <mxCell id="I0rBNGoPx-aaEWD5s1-Z-6" value="&lt;font style=&quot;font-size: 12px;&quot;&gt;REST&lt;/font&gt;" style="text;html=1;align=center;verticalAlign=middle;resizable=0;points=[];autosize=1;fontSize=12;fontFamily=Google Sans;fontStyle=0;fontColor=#001135;fontSource=https%3A%2F%2Ffonts.googleapis.com%2Fcss%3Ffamily%3DGoogle%2BSans;" vertex="1" parent="qbExKh2GQzYHgT6TWYTY-1">
          <mxGeometry x="448" y="247.00000000000003" width="44" height="26" as="geometry" />
        </mxCell>
        <mxCell id="I0rBNGoPx-aaEWD5s1-Z-7" value="&lt;font style=&quot;font-size: 12px;&quot;&gt;gNMI&lt;/font&gt;" style="text;html=1;align=center;verticalAlign=middle;resizable=0;points=[];autosize=1;fontSize=12;fontFamily=Google Sans;fontStyle=0;fontColor=#98A2AE;fontSource=https%3A%2F%2Ffonts.googleapis.com%2Fcss%3Ffamily%3DGoogle%2BSans;" vertex="1" parent="qbExKh2GQzYHgT6TWYTY-1">
          <mxGeometry x="393" y="326" width="47" height="26" as="geometry" />
        </mxCell>
        <mxCell id="I0rBNGoPx-aaEWD5s1-Z-8" value="&lt;font style=&quot;font-size: 12px;&quot;&gt;YANG&lt;/font&gt;" style="text;html=1;align=center;verticalAlign=middle;resizable=0;points=[];autosize=1;fontSize=12;fontFamily=Google Sans;fontStyle=0;fontColor=#98A2AE;fontSource=https%3A%2F%2Ffonts.googleapis.com%2Fcss%3Ffamily%3DGoogle%2BSans;" vertex="1" parent="qbExKh2GQzYHgT6TWYTY-1">
          <mxGeometry x="460" y="326" width="50" height="26" as="geometry" />
        </mxCell>
      </root>
    </mxGraphModel>
  </diagram>
  <diagram name="[1] node automation" id="AKsPSkjurtie4dADNEbw">
    <mxGraphModel dx="471" dy="263" grid="0" gridSize="5" guides="1" tooltips="1" connect="1" arrows="1" fold="1" page="1" pageScale="1" pageWidth="827" pageHeight="1169" background="#4d5766" math="0" shadow="0">
      <root>
        <mxCell id="IFF2ozyvGrdAL48BXRAE-0" />
        <mxCell id="IFF2ozyvGrdAL48BXRAE-1" parent="IFF2ozyvGrdAL48BXRAE-0" />
        <mxCell id="IFF2ozyvGrdAL48BXRAE-4" value="" style="rounded=1;whiteSpace=wrap;html=1;" vertex="1" parent="IFF2ozyvGrdAL48BXRAE-1">
          <mxGeometry x="401" y="170" width="39" height="43" as="geometry" />
        </mxCell>
        <mxCell id="IFF2ozyvGrdAL48BXRAE-5" value="" style="group;aspect=fixed;" vertex="1" connectable="0" parent="IFF2ozyvGrdAL48BXRAE-1">
          <mxGeometry x="406" y="174" width="29" height="29" as="geometry" />
        </mxCell>
        <mxCell id="IFF2ozyvGrdAL48BXRAE-6" value="" style="group" vertex="1" connectable="0" parent="IFF2ozyvGrdAL48BXRAE-5">
          <mxGeometry width="29" height="29" as="geometry" />
        </mxCell>
        <mxCell id="IFF2ozyvGrdAL48BXRAE-7" value="" style="whiteSpace=wrap;html=1;aspect=fixed;fillColor=#001135;strokeColor=none;connectable=1;allowArrows=1;fontFamily=Manrope;fontSource=https%3A%2F%2Ffonts.googleapis.com%2Fcss%3Ffamily%3DManrope;" vertex="1" parent="IFF2ozyvGrdAL48BXRAE-6">
          <mxGeometry width="29" height="29" as="geometry" />
        </mxCell>
        <mxCell id="IFF2ozyvGrdAL48BXRAE-8" value="" style="endArrow=open;html=1;edgeStyle=orthogonalEdgeStyle;rounded=0;endFill=0;startSize=6;endSize=2;strokeColor=#FFFFFF;fontFamily=Manrope;fontSource=https%3A%2F%2Ffonts.googleapis.com%2Fcss%3Ffamily%3DManrope;" edge="1" parent="IFF2ozyvGrdAL48BXRAE-6">
          <mxGeometry width="48.33333333333334" height="48.33333333333334" as="geometry">
            <mxPoint x="2.9" y="11.6" as="sourcePoint" />
            <mxPoint x="10.633333333333335" y="2.9" as="targetPoint" />
            <Array as="points">
              <mxPoint x="10.633333333333335" y="11.6" />
            </Array>
          </mxGeometry>
        </mxCell>
        <mxCell id="IFF2ozyvGrdAL48BXRAE-9" value="" style="endArrow=open;html=1;edgeStyle=orthogonalEdgeStyle;rounded=0;endFill=0;startSize=6;endSize=2;strokeColor=#FFFFFF;fontFamily=Manrope;fontSource=https%3A%2F%2Ffonts.googleapis.com%2Fcss%3Ffamily%3DManrope;" edge="1" parent="IFF2ozyvGrdAL48BXRAE-6">
          <mxGeometry width="48.33333333333334" height="48.33333333333334" as="geometry">
            <mxPoint x="10.633333333333335" y="26.1" as="sourcePoint" />
            <mxPoint x="2.9" y="18.366666666666667" as="targetPoint" />
            <Array as="points">
              <mxPoint x="10.633333333333335" y="18.366666666666667" />
            </Array>
          </mxGeometry>
        </mxCell>
        <mxCell id="IFF2ozyvGrdAL48BXRAE-10" value="" style="endArrow=open;html=1;edgeStyle=orthogonalEdgeStyle;rounded=0;endFill=0;startSize=6;endSize=2;strokeColor=#FFFFFF;fontFamily=Manrope;fontSource=https%3A%2F%2Ffonts.googleapis.com%2Fcss%3Ffamily%3DManrope;" edge="1" parent="IFF2ozyvGrdAL48BXRAE-6">
          <mxGeometry width="48.33333333333334" height="48.33333333333334" as="geometry">
            <mxPoint x="17.4" y="2.9" as="sourcePoint" />
            <mxPoint x="26.1" y="11.6" as="targetPoint" />
            <Array as="points">
              <mxPoint x="17.4" y="11.6" />
            </Array>
          </mxGeometry>
        </mxCell>
        <mxCell id="IFF2ozyvGrdAL48BXRAE-11" value="" style="endArrow=open;html=1;edgeStyle=orthogonalEdgeStyle;rounded=0;endFill=0;startSize=6;endSize=2;strokeColor=#FFFFFF;fontFamily=Manrope;fontSource=https%3A%2F%2Ffonts.googleapis.com%2Fcss%3Ffamily%3DManrope;" edge="1" parent="IFF2ozyvGrdAL48BXRAE-6">
          <mxGeometry width="48.33333333333334" height="48.33333333333334" as="geometry">
            <mxPoint x="26.1" y="18.366666666666667" as="sourcePoint" />
            <mxPoint x="17.4" y="26.1" as="targetPoint" />
            <Array as="points">
              <mxPoint x="17.4" y="18.366666666666667" />
            </Array>
          </mxGeometry>
        </mxCell>
        <mxCell id="IFF2ozyvGrdAL48BXRAE-12" value="" style="rounded=1;whiteSpace=wrap;html=1;" vertex="1" parent="IFF2ozyvGrdAL48BXRAE-1">
          <mxGeometry x="401" y="247" width="39" height="44" as="geometry" />
        </mxCell>
        <mxCell id="IFF2ozyvGrdAL48BXRAE-13" value="" style="group;aspect=fixed;" vertex="1" connectable="0" parent="IFF2ozyvGrdAL48BXRAE-1">
          <mxGeometry x="406" y="251" width="29" height="29" as="geometry" />
        </mxCell>
        <mxCell id="IFF2ozyvGrdAL48BXRAE-14" value="" style="group" vertex="1" connectable="0" parent="IFF2ozyvGrdAL48BXRAE-13">
          <mxGeometry width="29" height="29" as="geometry" />
        </mxCell>
        <mxCell id="IFF2ozyvGrdAL48BXRAE-15" value="" style="whiteSpace=wrap;html=1;aspect=fixed;fillColor=#001135;strokeColor=none;connectable=1;allowArrows=1;fontFamily=Manrope;fontSource=https%3A%2F%2Ffonts.googleapis.com%2Fcss%3Ffamily%3DManrope;" vertex="1" parent="IFF2ozyvGrdAL48BXRAE-14">
          <mxGeometry width="29" height="29" as="geometry" />
        </mxCell>
        <mxCell id="IFF2ozyvGrdAL48BXRAE-16" value="" style="endArrow=open;html=1;edgeStyle=orthogonalEdgeStyle;rounded=0;endFill=0;startSize=6;endSize=2;strokeColor=#FFFFFF;fontFamily=Manrope;fontSource=https%3A%2F%2Ffonts.googleapis.com%2Fcss%3Ffamily%3DManrope;" edge="1" parent="IFF2ozyvGrdAL48BXRAE-14">
          <mxGeometry width="48.33333333333334" height="48.33333333333334" as="geometry">
            <mxPoint x="2.9" y="11.6" as="sourcePoint" />
            <mxPoint x="10.633333333333335" y="2.9" as="targetPoint" />
            <Array as="points">
              <mxPoint x="10.633333333333335" y="11.6" />
            </Array>
          </mxGeometry>
        </mxCell>
        <mxCell id="IFF2ozyvGrdAL48BXRAE-17" value="" style="endArrow=open;html=1;edgeStyle=orthogonalEdgeStyle;rounded=0;endFill=0;startSize=6;endSize=2;strokeColor=#FFFFFF;fontFamily=Manrope;fontSource=https%3A%2F%2Ffonts.googleapis.com%2Fcss%3Ffamily%3DManrope;" edge="1" parent="IFF2ozyvGrdAL48BXRAE-14">
          <mxGeometry width="48.33333333333334" height="48.33333333333334" as="geometry">
            <mxPoint x="10.633333333333335" y="26.1" as="sourcePoint" />
            <mxPoint x="2.9" y="18.366666666666667" as="targetPoint" />
            <Array as="points">
              <mxPoint x="10.633333333333335" y="18.366666666666667" />
            </Array>
          </mxGeometry>
        </mxCell>
        <mxCell id="IFF2ozyvGrdAL48BXRAE-18" value="" style="endArrow=open;html=1;edgeStyle=orthogonalEdgeStyle;rounded=0;endFill=0;startSize=6;endSize=2;strokeColor=#FFFFFF;fontFamily=Manrope;fontSource=https%3A%2F%2Ffonts.googleapis.com%2Fcss%3Ffamily%3DManrope;" edge="1" parent="IFF2ozyvGrdAL48BXRAE-14">
          <mxGeometry width="48.33333333333334" height="48.33333333333334" as="geometry">
            <mxPoint x="17.4" y="2.9" as="sourcePoint" />
            <mxPoint x="26.1" y="11.6" as="targetPoint" />
            <Array as="points">
              <mxPoint x="17.4" y="11.6" />
            </Array>
          </mxGeometry>
        </mxCell>
        <mxCell id="IFF2ozyvGrdAL48BXRAE-19" value="" style="endArrow=open;html=1;edgeStyle=orthogonalEdgeStyle;rounded=0;endFill=0;startSize=6;endSize=2;strokeColor=#FFFFFF;fontFamily=Manrope;fontSource=https%3A%2F%2Ffonts.googleapis.com%2Fcss%3Ffamily%3DManrope;" edge="1" parent="IFF2ozyvGrdAL48BXRAE-14">
          <mxGeometry width="48.33333333333334" height="48.33333333333334" as="geometry">
            <mxPoint x="26.1" y="18.366666666666667" as="sourcePoint" />
            <mxPoint x="17.4" y="26.1" as="targetPoint" />
            <Array as="points">
              <mxPoint x="17.4" y="18.366666666666667" />
            </Array>
          </mxGeometry>
        </mxCell>
        <mxCell id="IFF2ozyvGrdAL48BXRAE-20" value="" style="rounded=0;orthogonalLoop=1;jettySize=auto;html=1;fontFamily=Manrope;fontSize=12;fontColor=#FFFFFF;endArrow=oval;endFill=1;startArrow=oval;startFill=1;strokeColor=#98A2AE;entryX=0.5;entryY=1;entryDx=0;entryDy=0;exitX=0.5;exitY=0;exitDx=0;exitDy=0;endSize=3;startSize=3;" edge="1" parent="IFF2ozyvGrdAL48BXRAE-1" source="IFF2ozyvGrdAL48BXRAE-12" target="IFF2ozyvGrdAL48BXRAE-4">
          <mxGeometry relative="1" as="geometry">
            <mxPoint x="444.21000000000004" y="218.37" as="sourcePoint" />
            <mxPoint x="425.63" y="215.1099999999999" as="targetPoint" />
          </mxGeometry>
        </mxCell>
        <mxCell id="IFF2ozyvGrdAL48BXRAE-26" value="&lt;font&gt;&lt;span&gt;srl1&lt;/span&gt;&lt;/font&gt;" style="text;html=1;align=center;verticalAlign=middle;resizable=0;points=[];autosize=1;fontSize=8;fontFamily=Google Sans;fontColor=#001135;fontSource=https%3A%2F%2Ffonts.googleapis.com%2Fcss%3Ffamily%3DGoogle%2BSans;" vertex="1" parent="IFF2ozyvGrdAL48BXRAE-1">
          <mxGeometry x="405.5" y="196" width="30" height="22" as="geometry" />
        </mxCell>
        <mxCell id="IFF2ozyvGrdAL48BXRAE-27" value="&lt;font&gt;&lt;span&gt;srl2&lt;/span&gt;&lt;/font&gt;" style="text;html=1;align=center;verticalAlign=middle;resizable=0;points=[];autosize=1;fontSize=8;fontFamily=Google Sans;fontColor=#001135;fontSource=https%3A%2F%2Ffonts.googleapis.com%2Fcss%3Ffamily%3DGoogle%2BSans;" vertex="1" parent="IFF2ozyvGrdAL48BXRAE-1">
          <mxGeometry x="405" y="273" width="31" height="22" as="geometry" />
        </mxCell>
        <mxCell id="IFF2ozyvGrdAL48BXRAE-28" value="" style="rounded=1;whiteSpace=wrap;html=1;strokeColor=none;arcSize=2;" vertex="1" parent="IFF2ozyvGrdAL48BXRAE-1">
          <mxGeometry x="223.06000000000003" y="213" width="38" height="22" as="geometry" />
        </mxCell>
        <mxCell id="IFF2ozyvGrdAL48BXRAE-29" value="" style="shape=image;editableCssRules=\.color;verticalLabelPosition=bottom;labelBackgroundColor=#ffffff;verticalAlign=top;aspect=fixed;imageAspect=0;image=data:image/svg+xml,PHN2ZyB4bWxucz0iaHR0cDovL3d3dy53My5vcmcvMjAwMC9zdmciIHhtbG5zOnhsaW5rPSJodHRwOi8vd3d3LnczLm9yZy8xOTk5L3hsaW5rIiB2aWV3Qm94PSIwIDAgMTMxIDgxIiBmaWxsPSIjZmZmIiBmaWxsLXJ1bGU9ImV2ZW5vZGQiIHN0cm9rZT0iIzAwMCIgc3Ryb2tlLWxpbmVjYXA9InJvdW5kIiBzdHJva2UtbGluZWpvaW49InJvdW5kIj48dXNlIHhsaW5rOmhyZWY9IiNBIiB4PSIuNSIgeT0iLjUiLz48c3ltYm9sIGlkPSJBIiBvdmVyZmxvdz0idmlzaWJsZSI+PHBhdGggY2xhc3M9ImNvbG9yIiBkPSJNMTE5LjA3OCA2Mi43MDNWNy4yNzVjMC0yLjc0Ni0yLjU0LTcuMjc1LTUuNTgtNy4yNzVIMTYuNDc1Yy0zLjA0IDAtNi4wOCA0LjUzLTYuMDggNy4yNzV2NTUuNDI3Qy0uNDk4IDc0LjI0NC4wMDQgNzQuMjQ0LjAwNCA3NC4yNDQuMDA0IDc3LjUxNiAzLjA0NCA4MCA2Ljg1MiA4MGgxMTYuM2MzLjgwOCAwIDYuODQ4LTIuNzQ3IDYuODQ4LTUuNzU2bC0xMC45MjItMTEuNTR6TTczLjk3NSA3NS4yMzdoLTIwLjI4Yy0xLjAwNCAwLTIuMDM3LS40OTctMi4wMzctLjk5M2wyLjI3My0zLjc3YzAtLjQ5Ny43NjctLjc2IDEuNzctLjc2SDcxLjkxYy43NjcgMCAxLjUzNS4yNjMgMS41MzUuNzZsMi41NCAzLjc3Yy4wMy43My0xLjAwNC45OTMtMi4wMDcuOTkzaDB6bTQwLjI5Mi0xMi43OThIMTUuMjA1VjcuNzcyYzAtMS4yNTYgMS4yNy0zLjAxIDIuNzc1LTMuMDFoOTMuNzVjMS41MzUgMCAyLjU0IDEuNzUzIDIuNTQgM1Y2Mi40NHoiIGZpbGw9IiMyYTMyODIiIHN0cm9rZT0ibm9uZSIvPjwvc3ltYm9sPjxzdHlsZSB0eXBlPSJ0ZXh0L2NzcyI+LmNvbG9yIHsgZmlsbDogcmdiKDAsIDE3LCA1Myk7IH0gPC9zdHlsZT48L3N2Zz4=;" vertex="1" parent="IFF2ozyvGrdAL48BXRAE-1">
          <mxGeometry x="217.06000000000003" y="211" width="49.89" height="30.85" as="geometry" />
        </mxCell>
        <mxCell id="IFF2ozyvGrdAL48BXRAE-30" value="Automation&lt;br&gt;client" style="text;html=1;align=center;verticalAlign=middle;resizable=0;points=[];autosize=1;fontSize=12;fontFamily=Google Sans;fontStyle=0;fontColor=#FFFFFF;fontSource=https%3A%2F%2Ffonts.googleapis.com%2Fcss%3Ffamily%3DGoogle%2BSans;" vertex="1" parent="IFF2ozyvGrdAL48BXRAE-1">
          <mxGeometry x="198.99999999999997" y="176.50000000000003" width="81" height="41" as="geometry" />
        </mxCell>
        <mxCell id="IFF2ozyvGrdAL48BXRAE-31" value="" style="shape=image;verticalLabelPosition=bottom;labelBackgroundColor=default;verticalAlign=top;aspect=fixed;imageAspect=0;image=data:image/png,iVBORw0KGgoAAAANSUhEUgAAACAAAAAgCAMAAABEpIrGAAAA6lBMVEUAWv8IX/9NjP8LYf/8/f9zpP////+bvv8FXf++1f8SZv/Z5/8mcv/t8/9BhP/6/P9lm/+Ntf8CXP+yzf8MYv+30P/Q4P8ebf8veP9rn//7/P/n7/83ff9HiP/w9f/2+f9Xkv8qdf/e6f/+/v9+q/8BWv8VZ//E2f+lxf8HXv+jw//G2v8WaP98qv/f6v8td/9Vkf/x9v9Kiv81ff/m7/9vov8dbf+XvP8EXf+70/8QZP/X5f8kcf9lnP/r8v8+gv9Chf/u9P/5+/8nc//a5/8TZv/A1v8GXv+ewP/4+v8ueP92pv/9/v9Rjv8gB2lPAAAAAW9yTlQBz6J3mgAAAAFzUkdCAK7OHOkAAADKSURBVDjLrdNJX0EBGIXxc7s8kspMk2RqooEGEUWpXOX7fx27Vt7fu3HW/+V5pA0s2HJAGIs7ABLbDiC54wBSuw5gb98BpDMOgGzOAeQLNigCUCqb4ODwCOD4xASqnAJUz0ygWh2g0WxZQOcXAFwGFtDVNQDtjgWkmwbA7Z0JdF8F6PZMoIdHgNiTCfRcAqD/YgEV8gAMhhZQLgvA68gC0jgN8PZuAk2mAB+BCfQ5AwhtoK9vB+hn/g+iKIoWa37w+xc6zS2DTaS9AgWAEyiBKbEgAAAAAElFTkSuQmCC;" vertex="1" parent="IFF2ozyvGrdAL48BXRAE-1">
          <mxGeometry x="235.50999999999996" y="217.5" width="13" height="13" as="geometry" />
        </mxCell>
        <mxCell id="IFF2ozyvGrdAL48BXRAE-32" value="" style="endArrow=oval;dashed=1;html=1;rounded=0;strokeColor=#00C9FF;startArrow=oval;startFill=1;endFill=1;endSize=2;startSize=2;entryX=1;entryY=0.5;entryDx=0;entryDy=0;exitX=0;exitY=0.5;exitDx=0;exitDy=0;" edge="1" parent="IFF2ozyvGrdAL48BXRAE-1" source="IFF2ozyvGrdAL48BXRAE-4" target="IFF2ozyvGrdAL48BXRAE-29">
          <mxGeometry width="50" height="50" relative="1" as="geometry">
            <mxPoint x="339" y="226" as="sourcePoint" />
            <mxPoint x="482.89" y="232" as="targetPoint" />
          </mxGeometry>
        </mxCell>
        <mxCell id="IFF2ozyvGrdAL48BXRAE-35" value="&lt;font style=&quot;font-size: 12px;&quot;&gt;SSH, REST&lt;br&gt;NETCONF, gNMI&lt;/font&gt;" style="text;html=1;align=center;verticalAlign=middle;resizable=0;points=[];autosize=1;fontSize=12;fontFamily=Google Sans;fontStyle=0;fontColor=#98A2AE;fontSource=https%3A%2F%2Ffonts.googleapis.com%2Fcss%3Ffamily%3DGoogle%2BSans;rotation=16;" vertex="1" parent="IFF2ozyvGrdAL48BXRAE-1">
          <mxGeometry x="282.5" y="245" width="106" height="41" as="geometry" />
        </mxCell>
        <mxCell id="zuu4uTVZVUMq6RitC7XG-0" value="" style="endArrow=oval;dashed=1;html=1;rounded=0;strokeColor=#00C9FF;startArrow=oval;startFill=1;endFill=1;endSize=2;startSize=2;entryX=1;entryY=0.5;entryDx=0;entryDy=0;exitX=0;exitY=0.5;exitDx=0;exitDy=0;" edge="1" parent="IFF2ozyvGrdAL48BXRAE-1" source="IFF2ozyvGrdAL48BXRAE-12" target="IFF2ozyvGrdAL48BXRAE-29">
          <mxGeometry width="50" height="50" relative="1" as="geometry">
            <mxPoint x="406" y="197" as="sourcePoint" />
            <mxPoint x="272" y="231" as="targetPoint" />
          </mxGeometry>
        </mxCell>
        <mxCell id="zuu4uTVZVUMq6RitC7XG-1" value="CLI, JSON,&lt;br&gt;XML, Proto" style="text;html=1;align=center;verticalAlign=middle;resizable=0;points=[];autosize=1;fontSize=12;fontFamily=Google Sans;fontStyle=0;fontColor=#98A2AE;fontSource=https%3A%2F%2Ffonts.googleapis.com%2Fcss%3Ffamily%3DGoogle%2BSans;rotation=-14;" vertex="1" parent="IFF2ozyvGrdAL48BXRAE-1">
          <mxGeometry x="297" y="172" width="77" height="41" as="geometry" />
        </mxCell>
      </root>
    </mxGraphModel>
  </diagram>
  <diagram name="[2] pydantify" id="JdRKrghhXUQ2X3bM7j3W">
    <mxGraphModel dx="943" dy="525" grid="0" gridSize="5" guides="1" tooltips="1" connect="1" arrows="1" fold="1" page="1" pageScale="1" pageWidth="827" pageHeight="1169" background="#4d5766" math="0" shadow="0">
      <root>
        <mxCell id="wYnqtxgRU_tpxbsMQ_vT-0" />
        <mxCell id="wYnqtxgRU_tpxbsMQ_vT-1" parent="wYnqtxgRU_tpxbsMQ_vT-0" />
        <mxCell id="NEbylFRRSoYrzsIm0nvb-18" value="" style="rounded=1;whiteSpace=wrap;html=1;arcSize=8;" vertex="1" parent="wYnqtxgRU_tpxbsMQ_vT-1">
          <mxGeometry x="551.5" y="363" width="98.5" height="62" as="geometry" />
        </mxCell>
        <mxCell id="NEbylFRRSoYrzsIm0nvb-3" value="" style="rounded=1;whiteSpace=wrap;html=1;arcSize=8;" vertex="1" parent="wYnqtxgRU_tpxbsMQ_vT-1">
          <mxGeometry x="217.06" y="355" width="39" height="44" as="geometry" />
        </mxCell>
        <mxCell id="NEbylFRRSoYrzsIm0nvb-1" value="" style="shape=image;verticalLabelPosition=bottom;labelBackgroundColor=default;verticalAlign=top;aspect=fixed;imageAspect=0;editableCssRules=.*;image=data:image/svg+xml,PHN2ZyB4bWxucz0iaHR0cDovL3d3dy53My5vcmcvMjAwMC9zdmciIGNsYXNzPSJzaS1nbHlwaCBzaS1nbHlwaC15aW5nLXlhbmciIHZpZXdCb3g9IjAgMCAxNyAxNyIgaGVpZ2h0PSI4MDAiIHdpZHRoPSI4MDAiPjxnIGZpbGwtcnVsZT0iZXZlbm9kZCIgZmlsbD0iIzQzNDM0MyIgdHJhbnNmb3JtPSJ0cmFuc2xhdGUoMSkiPjxwYXRoIGNsYXNzPSJzaS1nbHlwaC1maWxsIiBkPSJNNy45ODQuMDUzQzMuNTk5LjA1My4wNDUgMy42MTQuMDQ1IDguMDA2czMuNTU1IDcuOTUzIDcuOTM5IDcuOTUzIDcuOTM5LTMuNTYxIDcuOTM5LTcuOTUzUzEyLjM2OS4wNTMgNy45ODQuMDUzTTcuNDkgMi4wNDVjLjgzOCAwIDEuNTE5LjY1NCAxLjUxOSAxLjQ2cy0uNjgxIDEuNDYtMS41MTkgMS40NmMtLjg0IDAtMS41MTktLjY1NC0xLjUxOS0xLjQ2cy42NzktMS40NiAxLjUxOS0xLjQ2bS41NDUgMTIuODYzYy0zLjA1MSAwLTUuNjkzLTMuOTkuMDY2LTYuOTI0IDUuMjU2LTIuNjc2IDIuODAzLTcuMjQtLjA2Ni02Ljk3NiA0LjM3NSAwIDYuOTM5IDMuMTExIDYuOTM5IDYuOTUuMDAxIDMuODM5LTMuMTA3IDYuOTUtNi45MzkgNi45NSIvPjxlbGxpcHNlIGNsYXNzPSJzaS1nbHlwaC1maWxsIiByeT0iMS40NDUiIHJ4PSIxLjQ5MyIgY3k9IjExLjQ0NSIgY3g9IjguNDkzIi8+PC9nPjwvc3ZnPg==;" vertex="1" parent="wYnqtxgRU_tpxbsMQ_vT-1">
          <mxGeometry x="219.55" y="362" width="34" height="34" as="geometry" />
        </mxCell>
        <mxCell id="NEbylFRRSoYrzsIm0nvb-4" value="" style="rounded=1;whiteSpace=wrap;html=1;arcSize=8;" vertex="1" parent="wYnqtxgRU_tpxbsMQ_vT-1">
          <mxGeometry x="225.55" y="364" width="39" height="44" as="geometry" />
        </mxCell>
        <mxCell id="NEbylFRRSoYrzsIm0nvb-5" value="" style="shape=image;verticalLabelPosition=bottom;labelBackgroundColor=default;verticalAlign=top;aspect=fixed;imageAspect=0;editableCssRules=.*;image=data:image/svg+xml,PHN2ZyB4bWxucz0iaHR0cDovL3d3dy53My5vcmcvMjAwMC9zdmciIGNsYXNzPSJzaS1nbHlwaCBzaS1nbHlwaC15aW5nLXlhbmciIHZpZXdCb3g9IjAgMCAxNyAxNyIgaGVpZ2h0PSI4MDAiIHdpZHRoPSI4MDAiPjxnIGZpbGwtcnVsZT0iZXZlbm9kZCIgZmlsbD0iIzQzNDM0MyIgdHJhbnNmb3JtPSJ0cmFuc2xhdGUoMSkiPjxwYXRoIGNsYXNzPSJzaS1nbHlwaC1maWxsIiBkPSJNNy45ODQuMDUzQzMuNTk5LjA1My4wNDUgMy42MTQuMDQ1IDguMDA2czMuNTU1IDcuOTUzIDcuOTM5IDcuOTUzIDcuOTM5LTMuNTYxIDcuOTM5LTcuOTUzUzEyLjM2OS4wNTMgNy45ODQuMDUzTTcuNDkgMi4wNDVjLjgzOCAwIDEuNTE5LjY1NCAxLjUxOSAxLjQ2cy0uNjgxIDEuNDYtMS41MTkgMS40NmMtLjg0IDAtMS41MTktLjY1NC0xLjUxOS0xLjQ2cy42NzktMS40NiAxLjUxOS0xLjQ2bS41NDUgMTIuODYzYy0zLjA1MSAwLTUuNjkzLTMuOTkuMDY2LTYuOTI0IDUuMjU2LTIuNjc2IDIuODAzLTcuMjQtLjA2Ni02Ljk3NiA0LjM3NSAwIDYuOTM5IDMuMTExIDYuOTM5IDYuOTUuMDAxIDMuODM5LTMuMTA3IDYuOTUtNi45MzkgNi45NSIvPjxlbGxpcHNlIGNsYXNzPSJzaS1nbHlwaC1maWxsIiByeT0iMS40NDUiIHJ4PSIxLjQ5MyIgY3k9IjExLjQ0NSIgY3g9IjguNDkzIi8+PC9nPjwvc3ZnPg==;" vertex="1" parent="wYnqtxgRU_tpxbsMQ_vT-1">
          <mxGeometry x="228.04000000000002" y="371" width="34" height="34" as="geometry" />
        </mxCell>
        <mxCell id="NEbylFRRSoYrzsIm0nvb-6" value="" style="rounded=1;whiteSpace=wrap;html=1;arcSize=8;" vertex="1" parent="wYnqtxgRU_tpxbsMQ_vT-1">
          <mxGeometry x="234.55" y="373" width="39" height="44" as="geometry" />
        </mxCell>
        <mxCell id="NEbylFRRSoYrzsIm0nvb-7" value="" style="shape=image;verticalLabelPosition=bottom;labelBackgroundColor=default;verticalAlign=top;aspect=fixed;imageAspect=0;editableCssRules=.*;image=data:image/svg+xml,PHN2ZyB4bWxucz0iaHR0cDovL3d3dy53My5vcmcvMjAwMC9zdmciIGNsYXNzPSJzaS1nbHlwaCBzaS1nbHlwaC15aW5nLXlhbmciIHZpZXdCb3g9IjAgMCAxNyAxNyIgaGVpZ2h0PSI4MDAiIHdpZHRoPSI4MDAiPjxnIGZpbGwtcnVsZT0iZXZlbm9kZCIgZmlsbD0iIzQzNDM0MyIgdHJhbnNmb3JtPSJ0cmFuc2xhdGUoMSkiPjxwYXRoIGNsYXNzPSJzaS1nbHlwaC1maWxsIiBkPSJNNy45ODQuMDUzQzMuNTk5LjA1My4wNDUgMy42MTQuMDQ1IDguMDA2czMuNTU1IDcuOTUzIDcuOTM5IDcuOTUzIDcuOTM5LTMuNTYxIDcuOTM5LTcuOTUzUzEyLjM2OS4wNTMgNy45ODQuMDUzTTcuNDkgMi4wNDVjLjgzOCAwIDEuNTE5LjY1NCAxLjUxOSAxLjQ2cy0uNjgxIDEuNDYtMS41MTkgMS40NmMtLjg0IDAtMS41MTktLjY1NC0xLjUxOS0xLjQ2cy42NzktMS40NiAxLjUxOS0xLjQ2bS41NDUgMTIuODYzYy0zLjA1MSAwLTUuNjkzLTMuOTkuMDY2LTYuOTI0IDUuMjU2LTIuNjc2IDIuODAzLTcuMjQtLjA2Ni02Ljk3NiA0LjM3NSAwIDYuOTM5IDMuMTExIDYuOTM5IDYuOTUuMDAxIDMuODM5LTMuMTA3IDYuOTUtNi45MzkgNi45NSIvPjxlbGxpcHNlIGNsYXNzPSJzaS1nbHlwaC1maWxsIiByeT0iMS40NDUiIHJ4PSIxLjQ5MyIgY3k9IjExLjQ0NSIgY3g9IjguNDkzIi8+PC9nPjwvc3ZnPg==;" vertex="1" parent="wYnqtxgRU_tpxbsMQ_vT-1">
          <mxGeometry x="237.04000000000002" y="380" width="34" height="34" as="geometry" />
        </mxCell>
        <mxCell id="NEbylFRRSoYrzsIm0nvb-8" value="" style="rounded=1;whiteSpace=wrap;html=1;arcSize=8;fillColor=#00C9FF;strokeColor=#4D5766;" vertex="1" parent="wYnqtxgRU_tpxbsMQ_vT-1">
          <mxGeometry x="355" y="342" width="104" height="96" as="geometry" />
        </mxCell>
        <mxCell id="NEbylFRRSoYrzsIm0nvb-10" value="" style="shape=image;verticalLabelPosition=bottom;labelBackgroundColor=default;verticalAlign=top;aspect=fixed;imageAspect=0;editableCssRules=.*;image=data:image/svg+xml,PHN2ZyB4bWxucz0iaHR0cDovL3d3dy53My5vcmcvMjAwMC9zdmciIHdpZHRoPSIyNCIgaGVpZ2h0PSIyNCIgaWQ9IlB5ZGFudGljLS1TdHJlYW1saW5lLVNpbXBsZS1JY29ucyIgdmlld0JveD0iMCAwIDI0IDI0IiByb2xlPSJpbWciPjxkZXNjPlB5ZGFudGljIFN0cmVhbWxpbmUgSWNvbjogaHR0cHM6Ly9zdHJlYW1saW5laHEuY29tPC9kZXNjPjx0aXRsZT5QeWRhbnRpYzwvdGl0bGU+PHBhdGggc3Ryb2tlLXdpZHRoPSIxIiBmaWxsPSIjMDAwMDAwIiBkPSJtMjMuODI2IDE3LjMxNiAtNC4yMyAtNS44NjYgLTYuODQ3IC05LjQ5NmMtMC4zNDggLTAuNDggLTEuMTUxIC0wLjQ4IC0xLjQ5NyAwbC02Ljg0NSA5LjQ5NCAtNC4yMzMgNS44NjhhMC45MjUgMC45MjUgMCAwIDAgMC40NiAxLjQxN2wxMS4wNzggMy42MjZoMC4wMDJhMC45MiAwLjkyIDAgMCAwIDAuNTcyIDBoMC4wMDJsMTEuMDc3IC0zLjYyNmMwLjI4IC0wLjA5MiAwLjUgLTAuMzEgMC41OSAtMC41OTJhMC45MTYgMC45MTYgMCAwIDAgLTAuMTMgLTAuODI1aDAuMDAyWk0xMi4wMDEgNC4wN2w0LjQ0IDYuMTU4IC00LjE1MiAtMS4zNmMtMC4wMzIgLTAuMDEgLTAuMDY2IC0wLjAwOCAtMC4wOTggLTAuMDE2YTAuOCAwLjggMCAwIDAgLTAuMDk2IC0wLjAxNmMtMC4wMzIgLTAuMDA0IC0wLjA2MiAtMC4wMTYgLTAuMDk0IC0wLjAxNnMtMC4wNjIgMC4wMTIgLTAuMDk0IDAuMDE2YTAuNzQgMC43NCAwIDAgMCAtMC4wOTYgMC4wMTZjLTAuMDMyIDAuMDA2IC0wLjA2NiAwLjAwNiAtMC4wOTYgMC4wMTZMNy41OSAxMC4yMjFsLTAuMDI2IDAuMDA4IDQuNDQgLTYuMTU4aC0wLjAwMlptLTYuMjczIDguNyA0LjgzNCAtMS41ODMgMC41MTYgLTAuMTY4djkuMTlMMi40MSAxNy4zNzJsMy4zMTcgLTQuNlptNy4xOTcgNy40MzdWMTEuMDJsNS4zNSAxLjc1MiAzLjMxNiA0LjU5OCAtOC42NjYgMi44MzhaIi8+PC9zdmc+;" vertex="1" parent="wYnqtxgRU_tpxbsMQ_vT-1">
          <mxGeometry x="558.999649122807" y="370.0029824561404" width="24" height="24" as="geometry" />
        </mxCell>
        <mxCell id="NEbylFRRSoYrzsIm0nvb-11" value="" style="shape=image;verticalLabelPosition=bottom;labelBackgroundColor=default;verticalAlign=top;aspect=fixed;imageAspect=0;editableCssRules=.*;image=data:image/svg+xml,PHN2ZyB4bWxucz0iaHR0cDovL3d3dy53My5vcmcvMjAwMC9zdmciIGRhdGEtbmFtZT0iTGF5ZXIgMSIgdmlld0JveD0iMCAwIDI0IDI0IiBoZWlnaHQ9IjgwMHB4IiB3aWR0aD0iODAwcHgiIGZpbGw9IiMwMDAwMDAiPjxwYXRoIGQ9Ik0xMiwxNS41YTEsMSwwLDEsMCwxLDFBMSwxLDAsMCwwLDEyLDE1LjVaTTEyLDJhNS41NDUxNCw1LjU0NTE0LDAsMCwwLS41NjE2NS4wMjg1QTkuOTkzNDcsOS45OTM0NywwLDAsMCwxMiwyMmE1LjU0NTE0LDUuNTQ1MTQsMCwwLDAsLjU2MTY1LS4wMjg1QTkuOTkzNDcsOS45OTM0NywwLDAsMCwxMiwyWm0wLDE4QTcuOTg4ODksNy45ODg4OSwwLDAsMSw2LjcwOTM1LDYuMDE1MzgsNS40ODM4MSw1LjQ4MzgxLDAsMCwwLDEyLDEzYTMuNSwzLjUsMCwwLDEsMCw3Wm01LjI5MDY1LTIuMDE1MzhBNS40ODM4MSw1LjQ4MzgxLDAsMCwwLDEyLDExYTMuNSwzLjUsMCwwLDEsMC03LDcuOTg4ODksNy45ODg4OSwwLDAsMSw1LjI5MDY1LDEzLjk4NDYyWk0xMiw2LjVhMSwxLDAsMSwwLDEsMUExLDEsMCwwLDAsMTIsNi41WiIvPjwvc3ZnPg==;" vertex="1" parent="wYnqtxgRU_tpxbsMQ_vT-1">
          <mxGeometry x="362.5" y="377" width="24.11" height="24.11" as="geometry" />
        </mxCell>
        <mxCell id="NEbylFRRSoYrzsIm0nvb-12" value="pydantic" style="text;html=1;align=left;verticalAlign=middle;resizable=0;points=[];autosize=1;fontSize=12;fontFamily=Google Sans;fontStyle=0;fontColor=#4D5766;fontSource=https%3A%2F%2Ffonts.googleapis.com%2Fcss%3Ffamily%3DGoogle%2BSans;rotation=0;" vertex="1" parent="wYnqtxgRU_tpxbsMQ_vT-1">
          <mxGeometry x="587.5" y="368" width="65" height="26" as="geometry" />
        </mxCell>
        <mxCell id="NEbylFRRSoYrzsIm0nvb-13" value="pyang" style="text;html=1;align=left;verticalAlign=middle;resizable=0;points=[];autosize=1;fontSize=12;fontFamily=Google Sans;fontStyle=0;fontColor=#FFFFFF;fontSource=https%3A%2F%2Ffonts.googleapis.com%2Fcss%3Ffamily%3DGoogle%2BSans;rotation=0;" vertex="1" parent="wYnqtxgRU_tpxbsMQ_vT-1">
          <mxGeometry x="391" y="375.11" width="51" height="26" as="geometry" />
        </mxCell>
        <mxCell id="NEbylFRRSoYrzsIm0nvb-14" value="" style="shape=image;verticalLabelPosition=bottom;labelBackgroundColor=default;verticalAlign=top;aspect=fixed;imageAspect=0;editableCssRules=.*;image=data:image/svg+xml,PHN2ZyB4bWxucz0iaHR0cDovL3d3dy53My5vcmcvMjAwMC9zdmciIHhtbDpzcGFjZT0icHJlc2VydmUiIHZpZXdCb3g9IjAgMCAzMiAzMiIgaGVpZ2h0PSI4MDAiIHdpZHRoPSI4MDAiIGlkPSJVcGxvYWRlZCB0byBzdmdyZXBvLmNvbSIgdmVyc2lvbj0iMS4xIj48c3R5bGU+Lm9wZW5fZWVue2ZpbGw6IzBiMTcxOX08L3N0eWxlPjxwYXRoIGQ9Ik0yMS4wODYgMjQuMDAyYy0uMzU0IDAtLjcxMy0uMDc3LTEuMDUyLS4yMzZhMi40MiAyLjQyIDAgMCAxLTEuNDA3LTIuMjEyYzAtLjgxOC40MDYtMS41NzggMS4wODgtMi4wMzJsMy4xODUtMi4xMjNhLjUuNSAwIDAgMCAuMjIyLS4zOTQuNS41IDAgMCAwLS4xODctLjQxM2wtMi43NDctMi4yMDFhLjUuNSAwIDAgMSAuNjI1LS43ODFsMi43NDggMi4yMDJjLjM3OC4zMDQuNTgyLjc1NS41NiAxLjIzN2ExLjQ5IDEuNDkgMCAwIDEtLjY2NiAxLjE4MmwtMy4xODUgMi4xMjNhMS40NCAxLjQ0IDAgMCAwLS42NDMgMS4yYzAgLjU3NC4zMTEgMS4wNjMuODMxIDEuMzA3czEuMDk0LjE3IDEuNTM0LS4xOThsNi40MDItNC4yNTFjLjM3LS4zMTIuNjA2LS44MTcuNjA2LTEuMzU0cy0uMjM2LTEuMDQzLS42NDktMS4zODhjLS4wNDMtLjAzNC01LjAwMS00LjAxOC03Ljc4Ni02LjM1OWExLjggMS44IDAgMCAwLTIuNjk1LjQzOWwtMi43OCAxMi42OGEuNS41IDAgMCAxLS4wNTMuMTM4IDIuOCAyLjggMCAwIDEtNC4yNDYuNzc2Yy0yLjc3NS0yLjMzNS03LjcyNi02LjMxMi03Ljc3NS02LjM1MmEyLjgwNSAyLjgwNSAwIDAgMS0uMDA3LTQuMzE1bDYuNDAyLTQuMjUyYy42OTEtLjU3OSAxLjY4NS0uNzExIDIuNTU1LS4zMDNhMi40MiAyLjQyIDAgMCAxIDEuNDA3IDIuMjEyYzAgLjgxOC0uNDA2IDEuNTc4LTEuMDg4IDIuMDMyTDkuMDggMTQuNTAzYS40OTguNDk4IDAgMCAwLS4wNDMuODAxbDIuNzgyIDIuMzEyYS40OTkuNDk5IDAgMSAxLS42MzkuNzY5bC0yLjc4Mi0yLjMxMmExLjQ5IDEuNDkgMCAwIDEtLjUzOS0xLjIzMmMuMDI1LS40NzkuMjY4LS45MDQuNjY2LTEuMTdsMy4yMDUtMi4xMzdjLjQwMi0uMjY5LjY0My0uNzE3LjY0My0xLjIgMC0uNTc0LS4zMTEtMS4wNjItLjgzMS0xLjMwN2ExLjQxIDEuNDEgMCAwIDAtMS41MzQuMTk4bC02LjQwMiA0LjI1MmMtLjM3LjMxMS0uNjA2LjgxNy0uNjA2IDEuMzU0cy4yMzYgMS4wNDMuNjQ5IDEuMzg3Yy4wNDMuMDM0IDUuMDAxIDQuMDE4IDcuNzg2IDYuMzU5LjQxMS4zNDYuOTUxLjQ5IDEuNDc4LjM5NGExLjggMS44IDAgMCAwIDEuMjE3LS44MzNsMi43OC0xMi42OGEuNS41IDAgMCAxIC4wNTMtLjEzOCAyLjggMi44IDAgMCAxIDQuMjQ2LS43NzZjMi43NzUgMi4zMzUgNy43MjYgNi4zMTIgNy43NzUgNi4zNTJhMi44MDcgMi44MDcgMCAwIDEgLjAwNyA0LjMxNmwtNi40MDIgNC4yNTFhMi4zMyAyLjMzIDAgMCAxLTEuNTAzLjUzOSIgY2xhc3M9Im9wZW5fZWVuIi8+PHBhdGggZD0iTTIxLjA4NiAyNC4wMDJjLS4zNTQgMC0uNzEzLS4wNzctMS4wNTItLjIzNmEyLjQyIDIuNDIgMCAwIDEtMS40MDctMi4yMTJjMC0uODE4LjQwNi0xLjU3OCAxLjA4OC0yLjAzMmwzLjE4NS0yLjEyM2EuNS41IDAgMCAwIC4yMjItLjM5NC41LjUgMCAwIDAtLjE4Ny0uNDEzbC0yLjc0Ny0yLjIwMWEuNS41IDAgMCAxIC42MjUtLjc4MWwyLjc0OCAyLjIwMmMuMzc4LjMwNC41ODIuNzU1LjU2IDEuMjM3YTEuNDkgMS40OSAwIDAgMS0uNjY2IDEuMTgybC0zLjE4NSAyLjEyM2ExLjQ0IDEuNDQgMCAwIDAtLjY0MyAxLjJjMCAuNTc0LjMxMSAxLjA2My44MzEgMS4zMDdzMS4wOTQuMTcgMS41MzQtLjE5OGw2LjQwMi00LjI1MWMuMzctLjMxMi42MDYtLjgxNy42MDYtMS4zNTRzLS4yMzYtMS4wNDMtLjY0OS0xLjM4OGMtLjA0My0uMDM0LTUuMDAxLTQuMDE4LTcuNzg2LTYuMzU5YTEuOCAxLjggMCAwIDAtMi42OTUuNDM5bC0yLjc4IDEyLjY4YS41LjUgMCAwIDEtLjA1My4xMzggMi44IDIuOCAwIDAgMS00LjI0Ni43NzZjLTIuNzc1LTIuMzM1LTcuNzI2LTYuMzEyLTcuNzc1LTYuMzUyYTIuODA1IDIuODA1IDAgMCAxLS4wMDctNC4zMTVsNi40MDItNC4yNTJjLjY5MS0uNTc5IDEuNjg1LS43MTEgMi41NTUtLjMwM2EyLjQyIDIuNDIgMCAwIDEgMS40MDcgMi4yMTJjMCAuODE4LS40MDYgMS41NzgtMS4wODggMi4wMzJMOS4wOCAxNC41MDNhLjQ5OC40OTggMCAwIDAtLjA0My44MDFsMi43ODIgMi4zMTJhLjQ5OS40OTkgMCAxIDEtLjYzOS43NjlsLTIuNzgyLTIuMzEyYTEuNDkgMS40OSAwIDAgMS0uNTM5LTEuMjMyYy4wMjUtLjQ3OS4yNjgtLjkwNC42NjYtMS4xN2wzLjIwNS0yLjEzN2MuNDAyLS4yNjkuNjQzLS43MTcuNjQzLTEuMiAwLS41NzQtLjMxMS0xLjA2Mi0uODMxLTEuMzA3YTEuNDEgMS40MSAwIDAgMC0xLjUzNC4xOThsLTYuNDAyIDQuMjUyYy0uMzcuMzExLS42MDYuODE3LS42MDYgMS4zNTRzLjIzNiAxLjA0My42NDkgMS4zODdjLjA0My4wMzQgNS4wMDEgNC4wMTggNy43ODYgNi4zNTkuNDExLjM0Ni45NTEuNDkgMS40NzguMzk0YTEuOCAxLjggMCAwIDAgMS4yMTctLjgzM2wyLjc4LTEyLjY4YS41LjUgMCAwIDEgLjA1My0uMTM4IDIuOCAyLjggMCAwIDEgNC4yNDYtLjc3NmMyLjc3NSAyLjMzNSA3LjcyNiA2LjMxMiA3Ljc3NSA2LjM1MmEyLjgwNyAyLjgwNyAwIDAgMSAuMDA3IDQuMzE2bC02LjQwMiA0LjI1MWEyLjMzIDIuMzMgMCAwIDEtMS41MDMuNTM5IiBjbGFzcz0ib3Blbl9lZW4iLz48L3N2Zz4=;" vertex="1" parent="wYnqtxgRU_tpxbsMQ_vT-1">
          <mxGeometry x="362.5" y="401.11" width="25" height="25" as="geometry" />
        </mxCell>
        <mxCell id="NEbylFRRSoYrzsIm0nvb-15" value="data mode&lt;br&gt;code gen" style="text;html=1;align=left;verticalAlign=middle;resizable=0;points=[];autosize=1;fontSize=12;fontFamily=Google Sans;fontStyle=0;fontColor=#FFFFFF;fontSource=https%3A%2F%2Ffonts.googleapis.com%2Fcss%3Ffamily%3DGoogle%2BSans;rotation=0;" vertex="1" parent="wYnqtxgRU_tpxbsMQ_vT-1">
          <mxGeometry x="391" y="393.11" width="76" height="41" as="geometry" />
        </mxCell>
        <mxCell id="NEbylFRRSoYrzsIm0nvb-16" value="" style="endArrow=oval;dashed=1;html=1;rounded=0;strokeColor=#BEC8D2;startArrow=classic;startFill=1;endFill=1;endSize=2;startSize=2;entryX=1;entryY=0.5;entryDx=0;entryDy=0;strokeWidth=3;" edge="1" parent="wYnqtxgRU_tpxbsMQ_vT-1">
          <mxGeometry width="50" height="50" relative="1" as="geometry">
            <mxPoint x="340.5" y="394.81" as="sourcePoint" />
            <mxPoint x="289" y="394.81" as="targetPoint" />
          </mxGeometry>
        </mxCell>
        <mxCell id="NEbylFRRSoYrzsIm0nvb-17" value="" style="endArrow=oval;dashed=1;html=1;rounded=0;strokeColor=#BEC8D2;startArrow=classic;startFill=1;endFill=1;endSize=2;startSize=2;entryX=1;entryY=0.5;entryDx=0;entryDy=0;strokeWidth=3;" edge="1" parent="wYnqtxgRU_tpxbsMQ_vT-1">
          <mxGeometry width="50" height="50" relative="1" as="geometry">
            <mxPoint x="530.5" y="394.81" as="sourcePoint" />
            <mxPoint x="479" y="394.81" as="targetPoint" />
          </mxGeometry>
        </mxCell>
        <mxCell id="NEbylFRRSoYrzsIm0nvb-19" value="" style="shape=image;verticalLabelPosition=bottom;labelBackgroundColor=default;verticalAlign=top;aspect=fixed;imageAspect=0;editableCssRules=.*;image=data:image/svg+xml,PHN2ZyB4bWxucz0iaHR0cDovL3d3dy53My5vcmcvMjAwMC9zdmciIHZpZXdCb3g9IjAgMCAzMiAzMiIgaGVpZ2h0PSI4MDAiIHdpZHRoPSI4MDAiPiYjeGE7ICA8ZGVmcz4mI3hhOyAgICA8bGluZWFyR3JhZGllbnQgZ3JhZGllbnRVbml0cz0idXNlclNwYWNlT25Vc2UiIGdyYWRpZW50VHJhbnNmb3JtPSJtYXRyaXgoMTg5LjM4IDAgMCAxODkuODEgMjUyNDMuMDYxIDM4NTE5LjE3KSIgeTI9Ii0yMDIuODQiIHgyPSItMTMzLjE5OCIgeTE9Ii0yMDIuOTEiIHgxPSItMTMzLjI2OCIgaWQ9ImEiPiYjeGE7ICAgICAgPHN0b3Agc3RvcC1jb2xvcj0iIzM4N2ViOCIgb2Zmc2V0PSIwIi8+JiN4YTsgICAgICA8c3RvcCBzdG9wLWNvbG9yPSIjMzY2OTk0IiBvZmZzZXQ9IjEiLz4mI3hhOyAgICA8L2xpbmVhckdyYWRpZW50PiYjeGE7ICAgIDxsaW5lYXJHcmFkaWVudCBncmFkaWVudFVuaXRzPSJ1c2VyU3BhY2VPblVzZSIgZ3JhZGllbnRUcmFuc2Zvcm09Im1hdHJpeCgxODkuMzggMCAwIDE4OS44MSAyNTMwOS4wNjEgMzg1ODMuNDIpIiB5Mj0iLTIwMy4xMzMiIHgyPSItMTMzLjQ5NSIgeTE9Ii0yMDMuMjAzIiB4MT0iLTEzMy41NzUiIGlkPSJiIj4mI3hhOyAgICAgIDxzdG9wIHN0b3AtY29sb3I9IiNmZmUwNTIiIG9mZnNldD0iMCIvPiYjeGE7ICAgICAgPHN0b3Agc3RvcC1jb2xvcj0iI2ZmYzMzMSIgb2Zmc2V0PSIxIi8+JiN4YTsgICAgPC9saW5lYXJHcmFkaWVudD4mI3hhOyAgPC9kZWZzPiYjeGE7ICA8cGF0aCBzdHlsZT0iZmlsbDp1cmwoI2EpIiBkPSJNMTUuODg1IDIuMWMtNy4xIDAtNi42NTEgMy4wNy02LjY1MSAzLjA3djMuMTloNi43NTJ2MUg2LjU0NVMyIDguOCAyIDE2LjAwNXM0LjAxMyA2LjkxMiA0LjAxMyA2LjkxMkg4LjMzdi0zLjM2MXMtLjEzLTQuMDEzIDMuOS00LjAxM2g2Ljc2MnMzLjc3Mi4wNiAzLjc3Mi0zLjY1MlY1LjhzLjU3Mi0zLjcxMi02Ljg0Mi0zLjcxMlptLTMuNzMyIDIuMTM3YTEuMjE0IDEuMjE0IDAgMSAxLTEuMTgzIDEuMjQ0di0uMDJhMS4yMTQgMS4yMTQgMCAwIDEgMS4yMTQtMS4yMTRaIi8+JiN4YTsgIDxwYXRoIHN0eWxlPSJmaWxsOnVybCgjYikiIGQ9Ik0xNi4wODUgMjkuOTFjNy4xIDAgNi42NTEtMy4wOCA2LjY1MS0zLjA4di0zLjE4aC02Ljc1MXYtMWg5LjQ3UzMwIDIzLjE1OCAzMCAxNS45OTVzLTQuMDEzLTYuOTEyLTQuMDEzLTYuOTEySDIzLjY0VjEyLjRzLjEzIDQuMDEzLTMuOSA0LjAxM2gtNi43NjVTOS4yIDE2LjM1NiA5LjIgMjAuMDY4VjI2LjJzLS41NzIgMy43MTIgNi44NDIgMy43MTJoLjA0Wm0zLjczMi0yLjE0N0ExLjIxNCAxLjIxNCAwIDEgMSAyMSAyNi41MTl2LjAzYTEuMjE0IDEuMjE0IDAgMCAxLTEuMjE0IDEuMjE0eiIvPiYjeGE7PC9zdmc+;" vertex="1" parent="wYnqtxgRU_tpxbsMQ_vT-1">
          <mxGeometry x="560" y="396" width="23" height="23" as="geometry" />
        </mxCell>
        <mxCell id="NEbylFRRSoYrzsIm0nvb-20" value="python" style="text;html=1;align=left;verticalAlign=middle;resizable=0;points=[];autosize=1;fontSize=12;fontFamily=Google Sans;fontStyle=0;fontColor=#4D5766;fontSource=https%3A%2F%2Ffonts.googleapis.com%2Fcss%3Ffamily%3DGoogle%2BSans;rotation=0;" vertex="1" parent="wYnqtxgRU_tpxbsMQ_vT-1">
          <mxGeometry x="587.5" y="393" width="56" height="26" as="geometry" />
        </mxCell>
        <mxCell id="NEbylFRRSoYrzsIm0nvb-21" value="" style="shape=image;verticalLabelPosition=bottom;labelBackgroundColor=default;verticalAlign=top;aspect=fixed;imageAspect=0;editableCssRules=.*;image=data:image/svg+xml,PHN2ZyB4bWxucz0iaHR0cDovL3d3dy53My5vcmcvMjAwMC9zdmciIHdpZHRoPSIyNCIgaGVpZ2h0PSIyNCIgaWQ9IlB5ZGFudGljLS1TdHJlYW1saW5lLVNpbXBsZS1JY29ucyIgdmlld0JveD0iMCAwIDI0IDI0IiByb2xlPSJpbWciPjxkZXNjPlB5ZGFudGljIFN0cmVhbWxpbmUgSWNvbjogaHR0cHM6Ly9zdHJlYW1saW5laHEuY29tPC9kZXNjPjx0aXRsZT5QeWRhbnRpYzwvdGl0bGU+PHBhdGggc3Ryb2tlLXdpZHRoPSIxIiBmaWxsPSIjMDAwMDAwIiBkPSJtMjMuODI2IDE3LjMxNiAtNC4yMyAtNS44NjYgLTYuODQ3IC05LjQ5NmMtMC4zNDggLTAuNDggLTEuMTUxIC0wLjQ4IC0xLjQ5NyAwbC02Ljg0NSA5LjQ5NCAtNC4yMzMgNS44NjhhMC45MjUgMC45MjUgMCAwIDAgMC40NiAxLjQxN2wxMS4wNzggMy42MjZoMC4wMDJhMC45MiAwLjkyIDAgMCAwIDAuNTcyIDBoMC4wMDJsMTEuMDc3IC0zLjYyNmMwLjI4IC0wLjA5MiAwLjUgLTAuMzEgMC41OSAtMC41OTJhMC45MTYgMC45MTYgMCAwIDAgLTAuMTMgLTAuODI1aDAuMDAyWk0xMi4wMDEgNC4wN2w0LjQ0IDYuMTU4IC00LjE1MiAtMS4zNmMtMC4wMzIgLTAuMDEgLTAuMDY2IC0wLjAwOCAtMC4wOTggLTAuMDE2YTAuOCAwLjggMCAwIDAgLTAuMDk2IC0wLjAxNmMtMC4wMzIgLTAuMDA0IC0wLjA2MiAtMC4wMTYgLTAuMDk0IC0wLjAxNnMtMC4wNjIgMC4wMTIgLTAuMDk0IDAuMDE2YTAuNzQgMC43NCAwIDAgMCAtMC4wOTYgMC4wMTZjLTAuMDMyIDAuMDA2IC0wLjA2NiAwLjAwNiAtMC4wOTYgMC4wMTZMNy41OSAxMC4yMjFsLTAuMDI2IDAuMDA4IDQuNDQgLTYuMTU4aC0wLjAwMlptLTYuMjczIDguNyA0LjgzNCAtMS41ODMgMC41MTYgLTAuMTY4djkuMTlMMi40MSAxNy4zNzJsMy4zMTcgLTQuNlptNy4xOTcgNy40MzdWMTEuMDJsNS4zNSAxLjc1MiAzLjMxNiA0LjU5OCAtOC42NjYgMi44MzhaIi8+PC9zdmc+;" vertex="1" parent="wYnqtxgRU_tpxbsMQ_vT-1">
          <mxGeometry x="362.499649122807" y="349.0029824561404" width="24" height="24" as="geometry" />
        </mxCell>
        <mxCell id="NEbylFRRSoYrzsIm0nvb-22" value="pydantic" style="text;html=1;align=left;verticalAlign=middle;resizable=0;points=[];autosize=1;fontSize=12;fontFamily=Google Sans;fontStyle=0;fontColor=#FFFFFF;fontSource=https%3A%2F%2Ffonts.googleapis.com%2Fcss%3Ffamily%3DGoogle%2BSans;rotation=0;" vertex="1" parent="wYnqtxgRU_tpxbsMQ_vT-1">
          <mxGeometry x="391" y="347" width="65" height="26" as="geometry" />
        </mxCell>
      </root>
    </mxGraphModel>
  </diagram>
</mxfile>
